<svg width="33" height="33" viewBox="0 0 33 33" fill="none" xmlns="http://www.w3.org/2000/svg">
<path d="M32.4142 2C32.4142 0.895432 31.5188 1.06108e-06 30.4142 5.55323e-07L12.4142 2.1569e-06C11.3096 1.48255e-06 10.4142 0.895433 10.4142 2C10.4142 3.10457 11.3096 4 12.4142 4L28.4142 4L28.4142 20C28.4142 21.1046 29.3096 22 30.4142 22C31.5188 22 32.4142 21.1046 32.4142 20L32.4142 2ZM1.41418 31L2.8284 32.4142L31.8284 3.41422L30.4142 2L29 0.585788L-2.89679e-05 29.5858L1.41418 31Z" fill="#16EEDC"/>
</svg>
