<svg xmlns="http://www.w3.org/2000/svg" width="16" height="16" viewBox="0 0 16 16" fill="none">
    <path
        d="M7.9987 1.33325C11.6807 1.33325 14.6654 4.31792 14.6654 7.99992C14.6654 11.6819 11.6807 14.6666 7.9987 14.6666C4.3167 14.6666 1.33203 11.6819 1.33203 7.99992C1.33203 4.31792 4.3167 1.33325 7.9987 1.33325ZM7.9987 2.66659C6.58421 2.66659 5.22766 3.22849 4.22746 4.22868C3.22727 5.22888 2.66536 6.58543 2.66536 7.99992C2.66536 9.41441 3.22727 10.771 4.22746 11.7712C5.22766 12.7713 6.58421 13.3333 7.9987 13.3333C9.41319 13.3333 10.7697 12.7713 11.7699 11.7712C12.7701 10.771 13.332 9.41441 13.332 7.99992C13.332 6.58543 12.7701 5.22888 11.7699 4.22868C10.7697 3.22849 9.41319 2.66659 7.9987 2.66659ZM7.9987 3.99992C8.16199 3.99994 8.31959 4.05989 8.44161 4.1684C8.56364 4.2769 8.64159 4.42642 8.6607 4.58859L8.66536 4.66658V7.72392L10.47 9.52858C10.5896 9.64856 10.659 9.80954 10.6642 9.97884C10.6694 10.1481 10.6099 10.3131 10.4979 10.4401C10.3858 10.5671 10.2297 10.6468 10.061 10.6629C9.89243 10.6789 9.72402 10.6302 9.59003 10.5266L9.52736 10.4713L7.52736 8.47125C7.42375 8.36755 7.35721 8.23259 7.33803 8.08725L7.33203 7.99992V4.66658C7.33203 4.48977 7.40227 4.3202 7.52729 4.19518C7.65232 4.07016 7.82189 3.99992 7.9987 3.99992Z"
        fill="#16EEDC" />
</svg>