<svg xmlns="http://www.w3.org/2000/svg" width="16" height="16" viewBox="0 0 16 16" fill="none">
    <path
        d="M12.6654 2.66659H11.332V1.99992C11.332 1.82311 11.2618 1.65354 11.1368 1.52851C11.0117 1.40349 10.8422 1.33325 10.6654 1.33325C10.4886 1.33325 10.319 1.40349 10.194 1.52851C10.0689 1.65354 9.9987 1.82311 9.9987 1.99992V2.66659H5.9987V1.99992C5.9987 1.82311 5.92846 1.65354 5.80344 1.52851C5.67841 1.40349 5.50884 1.33325 5.33203 1.33325C5.15522 1.33325 4.98565 1.40349 4.86063 1.52851C4.7356 1.65354 4.66536 1.82311 4.66536 1.99992V2.66659H3.33203C2.8016 2.66659 2.29289 2.8773 1.91782 3.25237C1.54274 3.62744 1.33203 4.13615 1.33203 4.66658V12.6666C1.33203 13.197 1.54274 13.7057 1.91782 14.0808C2.29289 14.4559 2.8016 14.6666 3.33203 14.6666H12.6654C13.1958 14.6666 13.7045 14.4559 14.0796 14.0808C14.4546 13.7057 14.6654 13.197 14.6654 12.6666V4.66658C14.6654 4.13615 14.4546 3.62744 14.0796 3.25237C13.7045 2.8773 13.1958 2.66659 12.6654 2.66659ZM13.332 12.6666C13.332 12.8434 13.2618 13.013 13.1368 13.138C13.0117 13.263 12.8422 13.3333 12.6654 13.3333H3.33203C3.15522 13.3333 2.98565 13.263 2.86063 13.138C2.7356 13.013 2.66536 12.8434 2.66536 12.6666V7.99992H13.332V12.6666ZM13.332 6.66658H2.66536V4.66658C2.66536 4.48977 2.7356 4.3202 2.86063 4.19518C2.98565 4.07016 3.15522 3.99992 3.33203 3.99992H4.66536V4.66658C4.66536 4.8434 4.7356 5.01297 4.86063 5.13799C4.98565 5.26301 5.15522 5.33325 5.33203 5.33325C5.50884 5.33325 5.67841 5.26301 5.80344 5.13799C5.92846 5.01297 5.9987 4.8434 5.9987 4.66658V3.99992H9.9987V4.66658C9.9987 4.8434 10.0689 5.01297 10.194 5.13799C10.319 5.26301 10.4886 5.33325 10.6654 5.33325C10.8422 5.33325 11.0117 5.26301 11.1368 5.13799C11.2618 5.01297 11.332 4.8434 11.332 4.66658V3.99992H12.6654C12.8422 3.99992 13.0117 4.07016 13.1368 4.19518C13.2618 4.3202 13.332 4.48977 13.332 4.66658V6.66658Z"
        fill="#16EEDC" />
</svg>