<svg width="31" height="31" viewBox="0 0 31 31" fill="none" xmlns="http://www.w3.org/2000/svg">
<path d="M30.7072 1C30.7072 0.447718 30.2594 2.67058e-06 29.7072 1.069e-06L20.7072 5.21094e-07C20.1549 1.53262e-06 19.7072 0.447716 19.7072 1C19.7072 1.55229 20.1549 2 20.7072 2L28.7072 2L28.7072 10C28.7072 10.5523 29.1549 11 29.7072 11C30.2594 11 30.7072 10.5523 30.7072 10L30.7072 1ZM0.707153 30L1.41426 30.7071L30.4143 1.70711L29.7072 1L29 0.292895L4.65512e-05 29.2929L0.707153 30Z" fill="#7C8698"/>
</svg>
