<svg xmlns="http://www.w3.org/2000/svg" width="16" height="16" viewBox="0 0 16 16" fill="none">
    <path
        d="M8.0013 4.00008V6.00008L10.668 3.33341L8.0013 0.666748V2.66675C6.58681 2.66675 5.23026 3.22865 4.23007 4.22885C3.22987 5.22904 2.66797 6.58559 2.66797 8.00008C2.66797 9.04675 2.97464 10.0201 3.49464 10.8401L4.46797 9.86675C4.16028 9.29276 3.99992 8.65134 4.0013 8.00008C4.0013 6.93922 4.42273 5.9218 5.17288 5.17165C5.92302 4.42151 6.94044 4.00008 8.0013 4.00008ZM12.508 5.16008L11.5346 6.13341C11.828 6.69341 12.0013 7.33342 12.0013 8.00008C12.0013 9.06095 11.5799 10.0784 10.8297 10.8285C10.0796 11.5787 9.06217 12.0001 8.0013 12.0001V10.0001L5.33464 12.6667L8.0013 15.3334V13.3334C9.41579 13.3334 10.7723 12.7715 11.7725 11.7713C12.7727 10.7711 13.3346 9.41457 13.3346 8.00008C13.3346 6.95341 13.028 5.98008 12.508 5.16008Z"
        fill="#16EEDC" />
</svg>