<svg width="1424" height="80" viewBox="0 0 1424 80" fill="none" xmlns="http://www.w3.org/2000/svg">
    <g clip-path="url(#clip0_4007_893)">
        <g opacity="0.48" filter="url(#filter0_f_4007_893)">
            <path
                d="M949.418 -3.54419L822.391 -34.7442L1489 -42V114L520 108.921L803.281 89.3302L1083.19 95.1349L1348.48 82.8H1423.8L1413.68 55.2279L1423.8 29.8326L1413.68 -3.54419L1336.12 -17.3302L949.418 -3.54419Z"
                fill="#19D6C7" fill-opacity="0.5" />
        </g>
        <g opacity="0.48" filter="url(#filter1_f_4007_893)">
            <path
                d="M555.838 -11.0791L708.82 -35.2791L-94 -43V123L1073 117.595L731.835 96.7488L394.732 102.926L75.2285 89.8H-15.478L-7.2935 61.4605L-15.478 33.4372L16.7065 -8.07907L90.1207 -16.7488L555.838 -11.0791Z"
                fill="#19D6C7" fill-opacity="0.5" />
        </g>
    </g>
    <defs>
        <filter id="filter0_f_4007_893" x="472" y="-90" width="1065" height="252"
            filterUnits="userSpaceOnUse" color-interpolation-filters="sRGB">
            <feFlood flood-opacity="0" result="BackgroundImageFix" />
            <feBlend mode="normal" in="SourceGraphic" in2="BackgroundImageFix" result="shape" />
            <feGaussianBlur stdDeviation="24" result="effect1_foregroundBlur_4007_893" />
        </filter>
        <filter id="filter1_f_4007_893" x="-142" y="-91" width="1263" height="262"
            filterUnits="userSpaceOnUse" color-interpolation-filters="sRGB">
            <feFlood flood-opacity="0" result="BackgroundImageFix" />
            <feBlend mode="normal" in="SourceGraphic" in2="BackgroundImageFix" result="shape" />
            <feGaussianBlur stdDeviation="24" result="effect1_foregroundBlur_4007_893" />
        </filter>
        <clipPath id="clip0_4007_893">
            <rect width="1424" height="80" rx="8" fill="white" />
        </clipPath>
    </defs>
</svg>