<svg width="1920" height="725" viewBox="0 0 1920 725" fill="none" xmlns="http://www.w3.org/2000/svg">
<mask id="mask0_4049_969" style="mask-type:alpha" maskUnits="userSpaceOnUse" x="-129" y="0" width="2177" height="725">
<path d="M-128 408.487C-113.983 421.028 -96.7663 429.647 -78.8253 435.284C-60.8844 440.921 -42.1586 443.697 -23.445 445.58C26.4179 450.577 76.7033 449.285 126.699 445.869C134.088 445.362 141.549 444.795 148.588 442.49C176.224 433.401 205.32 429.683 234.284 426.979C252.262 425.301 270.541 423.998 288.228 427.619C291.705 428.331 295.158 429.236 298.345 430.793C318.448 440.558 340.711 445.833 363.059 446.147C368.914 446.232 375.216 445.821 379.792 442.164C381.519 440.776 382.919 438.977 383.825 436.949C385.008 434.294 385.744 431.24 384.766 428.5C383.788 425.76 380.565 423.72 377.897 424.867C376.532 429.84 380.094 435.103 384.706 437.432C389.318 439.762 394.691 439.846 399.858 439.895C411.557 440.003 423.256 440.1 434.955 440.208C438.794 440.245 442.67 440.269 446.425 439.436C451.17 438.374 453.186 432.954 455.154 428.5C457.689 422.742 461.372 417.504 465.911 413.146C467.155 411.951 468.483 410.805 469.509 409.417C472.624 405.216 472.588 399.531 472.37 394.304C472.189 389.935 471.972 385.469 470.282 381.437C468.591 377.406 465.126 373.845 460.792 373.278C459.066 377.442 455.069 380.58 450.614 381.28C446.159 381.98 441.39 380.218 438.469 376.778C435.233 372.976 434.388 367.689 431.852 363.392C429.703 359.747 426.311 356.85 422.375 355.293C414.105 352.046 403.106 354.182 397.54 347.254C394.051 342.933 393.061 335.473 387.567 334.688C385.261 334.363 383.028 335.497 380.818 336.233C374.673 338.31 367.827 337.416 361.779 335.051C355.73 332.685 350.345 328.943 345.033 325.213C342.099 323.137 338.839 320.409 339.057 316.824C339.129 315.689 339.552 314.615 339.793 313.505C340.614 309.678 339.153 305.731 337.234 302.328C332.561 294.047 325.209 287.638 319.413 280.094C313.618 272.55 309.284 262.736 312.097 253.647C315.84 253.116 319.377 256.037 320.838 259.514C322.299 262.99 322.166 266.913 322.009 270.691C321.901 273.395 321.78 276.135 321.019 278.742C319.329 284.56 318.653 290.667 319.027 296.715C319.232 299.938 320.705 304.017 323.929 303.897C324.738 298.96 321.659 294.204 318.146 290.643C314.632 287.083 310.443 284.005 308.052 279.611C303.947 272.067 306.072 262.507 302.909 254.528C299.746 246.55 292.055 241.504 288.252 233.96C285.101 227.708 284.944 220.273 286.453 213.429C287.962 206.585 291.017 200.199 294.108 193.911C294.603 192.897 295.11 191.883 295.701 190.917C299.468 184.773 306.7 181.14 309.682 174.574C310.866 171.967 311.469 168.804 313.86 167.223C316.649 165.376 320.367 166.631 323.675 166.245C328.782 165.642 332.863 160.379 332.151 155.285C329.024 154.404 325.8 156.118 323.035 157.832C320.271 159.546 317.156 161.369 313.968 160.693C310.781 160.017 308.753 155.261 311.457 153.463C313.401 152.183 315.176 150.638 316.721 148.9" stroke="#16EEDC" stroke-miterlimit="10"/>
<path d="M316.154 149.793C318.363 143.987 318.701 137.481 317.119 131.47C315.888 126.775 313.546 122.465 311.228 118.217C309.706 115.428 308.185 112.628 306.664 109.84C304.889 106.569 301.545 104.384 298.007 103.213C294.47 102.042 290.715 101.777 287.009 101.523C273.861 100.618 259.457 100.063 248.857 107.908C245.549 110.359 242.736 113.557 239.017 115.32C232.799 118.253 225.531 116.551 218.674 116.249C213.567 116.02 208.423 116.611 203.509 117.987C200.346 118.868 197.014 120.305 195.517 123.214C194.261 125.64 196.422 128.742 199.079 129.37C201.735 130.009 204.499 128.899 206.89 127.583C211.454 125.085 215.534 121.717 218.855 117.722C220.098 116.225 221.257 114.583 221.656 112.676C222.054 110.769 221.475 108.56 219.845 107.498C218.118 106.375 217.756 103.853 218.565 101.958C219.362 100.063 221.04 98.6866 222.754 97.5399C226.207 95.2344 230.059 93.5204 234.091 92.5186C237.146 91.7581 240.345 91.3839 243.146 89.9596C245.947 88.5353 248.338 85.6746 248 82.5484C247.843 81.0878 245.911 80.7137 244.45 80.7137C241.842 80.7137 239.222 80.7137 236.614 80.7257C236.433 79.5187 236.53 78.2633 236.928 77.1046C242.156 75.4147 247.65 74.5336 253.155 74.4612C255.34 74.437 257.707 74.4853 259.469 73.1938C262.319 71.0935 262.017 66.8326 261.437 63.3443C266.424 63.3443 271.422 63.3201 276.408 63.308C277.531 63.308 278.69 63.296 279.704 62.8252C281.708 61.8958 282.554 59.53 284.147 57.997C287.298 54.9674 292.333 55.8726 296.703 55.9571C302.076 56.0537 307.352 54.6052 312.689 54.0379C320.21 53.2292 327.792 54.1707 335.302 55.1122C342.184 55.9692 349.078 56.8383 355.814 58.504C358.579 59.192 361.32 60.0007 364.073 60.7008C368.805 61.8958 373.635 62.7528 378.512 63.0666C385.986 63.5495 393.532 62.7287 400.727 60.6646C404.349 59.6266 407.911 58.2747 411.654 57.8643C415.119 57.4901 418.62 57.9367 422.073 58.3833C426.202 58.9265 430.331 59.4576 434.472 60.0007C437.165 60.3508 439.954 60.6888 442.537 59.8559C445.121 59.023 447.415 56.6572 447.234 53.9534C447.197 53.3861 446.968 52.7343 446.425 52.5774C443.431 51.6963 440.304 53.1809 437.201 53.4465C434.533 53.6758 431.792 52.9516 429.583 51.4428C429.075 51.0927 428.568 50.6824 428.291 50.1271C427.337 48.232 429.389 46.2646 431.176 45.1299C436.899 41.4726 442.718 37.767 449.226 35.7874C455.733 33.8079 463.11 33.7113 469.014 37.0789C470.064 37.6704 471.042 38.3705 472.093 38.974C480.508 43.8505 491 42.052 500.622 40.6156C501.684 40.4587 503 40.4104 503.592 41.3036C503.918 41.7864 503.906 42.4262 503.846 43.0055C503.399 47.3992 500.707 51.9015 502.457 55.9571C503.495 58.3592 505.958 59.9163 508.53 60.4474C511.09 60.9785 513.758 60.6163 516.305 60.0611C518.913 59.4938 521.835 58.3954 522.692 55.8726C523.465 53.5913 522.112 51.0203 520.145 49.6443C518.177 48.2562 515.726 47.7854 513.359 47.3509C512.261 47.1457 511.886 45.6128 512.43 44.6471C512.973 43.6694 514.06 43.1504 515.086 42.7279C525.698 38.2739 537.482 36.6444 548.915 38.0446C549.676 38.1411 550.642 38.455 550.654 39.2275C550.702 42.2572 549.917 45.311 548.432 47.9424C553.213 49.6322 558.417 47.6647 563.101 45.7335C565.492 44.7437 568.39 42.7521 567.544 40.3018C566.53 37.3445 560.808 37.1272 561.29 34.0372C561.484 32.7819 562.739 32.0214 563.862 31.43C565.854 30.3919 567.846 29.3659 569.838 28.352C573.46 26.4932 577.046 33.2043 580.898 31.8766C583.385 31.0196 583.542 27.2415 581.815 25.262C580.089 23.2824 577.348 22.5944 574.825 21.8581C574.402 21.7374 573.907 21.496 573.919 21.0614C573.931 20.7718 573.943 20.47 573.955 20.1803C574.088 17.2955 574.269 14.2416 575.899 11.8517C578.978 7.34941 585.461 7.28905 590.894 7.69945C592.428 7.82015 593.321 9.57037 593.393 11.1033C593.466 12.6483 593.031 14.2054 593.321 15.7142C594.057 19.5526 598.694 21.0132 602.545 21.7374C604.38 22.0754 606.698 22.2323 607.7 20.639C609.729 17.38 602.835 13.9157 604.332 10.3912C604.972 8.88235 606.819 8.38747 608.425 8.07363C611.998 7.37355 615.608 6.68553 619.242 6.79417C626.317 7.01143 633.429 6.00959 640.166 3.84897C641.952 3.28166 643.703 2.62986 645.514 2.14704C649.438 1.09691 653.519 0.8555 657.575 0.614091C663.141 0.288189 668.743 0.662373 674.212 1.7125C676.12 2.07462 678.51 3.28166 678.064 5.16465C677.87 5.98544 677.158 6.55276 676.482 7.03557C664.662 15.34 650.307 14.6641 637.087 18.6353C628.515 21.2063 620.74 25.8413 613.073 30.4402C607.435 33.8199 601.796 37.2117 596.17 40.6156C594.045 41.8951 594.335 45.3834 596.194 47.025C598.054 48.6666 600.782 48.8839 603.257 48.6545C605.732 48.4372 608.232 47.8579 610.682 48.2562C614.461 48.8597 617.48 51.6238 620.245 54.2793C622.587 56.5365 624.941 58.8178 626.776 61.5096C629.481 65.4807 630.966 70.2727 630.966 75.0767C630.966 76.67 630.797 78.3237 629.976 79.6997C628.696 81.8483 626.052 82.8622 623.553 82.8622C621.053 82.8622 618.651 82.0173 616.297 81.1723C613.689 80.2429 611.636 77.8892 611.069 75.1854C612.155 74.5577 613.64 75.2337 614.28 76.3079C614.92 77.3822 614.932 78.722 614.836 79.9774C614.558 83.2726 613.604 86.5075 612.047 89.4285C609.982 93.2911 604.851 94.655 600.577 93.6894C596.303 92.7117 592.693 89.9355 589.276 87.1834C585.86 84.4314 582.37 81.5586 578.157 80.3153C575.887 79.6514 573.472 79.4945 571.13 79.8566C570.176 80.0015 568.969 80.7619 569.392 81.6189C571.468 83.4899 574.764 83.2967 577.312 82.1259C579.859 80.9551 581.936 78.9876 584.278 77.4426C587.695 75.1975 591.703 73.8697 595.784 73.6404C596.955 73.5679 598.138 73.5921 599.273 73.3024C603.33 72.2764 605.479 66.8206 603.221 63.308C601.627 60.8215 598.609 59.699 595.76 58.9385C590.266 57.478 584.568 56.79 578.881 56.8866C575.477 56.9469 572.181 59.011 570.647 62.0527C569.247 64.8289 569.259 68.2207 567.46 70.7555C564.852 74.4491 559.648 74.8715 555.145 75.1009C550.835 75.3182 546.537 75.6561 542.239 76.1269C540.814 76.2838 539.329 76.4769 538.158 77.2856C536.021 78.7703 535.659 82.0293 536.951 84.2865C538.242 86.5437 540.79 87.8594 543.35 88.2818C545.921 88.7043 548.541 88.3663 551.113 88.0163C551.584 85.566 549.917 83.1036 547.744 81.8603C545.583 80.6171 543.011 80.3153 540.536 80.0377C536.444 79.5911 532.013 79.2048 528.463 81.281C527.026 79.748 524.672 79.3618 522.608 79.7842C520.543 80.2067 518.696 81.3051 516.885 82.3914C514.41 83.8761 511.947 85.3487 509.472 86.8334C508.458 87.4369 507.323 88.2094 507.19 89.3923C507.105 90.1407 507.347 91.1184 506.671 91.4564C504.135 92.7358 501.612 94.0153 499.077 95.2948C495.225 97.2502 491.253 99.278 488.488 102.609C485.724 105.929 484.468 110.902 486.653 114.632C487.378 115.875 488.44 116.889 489.575 117.77C496.674 123.25 506.635 123.407 514.289 128.066C515.303 128.682 516.341 129.466 516.692 130.613C516.836 131.06 516.849 131.53 516.873 132.001C517.042 135.453 517.211 138.917 517.368 142.37C517.428 143.565 517.561 144.916 518.527 145.641C518.901 145.93 519.372 146.063 519.843 146.136L526 147.077C526.459 138.398 533.196 130.432 541.683 128.537C542.492 128.356 543.313 128.223 544.11 128.006C548.263 126.859 551.39 123.334 553.298 119.472C555.205 115.609 556.111 111.348 557.367 107.232C558.296 104.167 559.467 101.113 561.472 98.6141C563.464 96.1156 566.41 94.1963 569.609 94.0998C572.482 94.0032 575.223 95.3551 577.541 97.0691C580.692 99.4108 583.312 102.561 584.592 106.255C585.389 108.56 585.703 111.119 587.115 113.111C589.276 116.153 593.997 116.985 597.076 114.861C599.164 113.413 600.324 111.01 601.978 109.079C603.632 107.148 606.384 105.627 608.642 106.798C610.417 107.715 610.574 110.129 610.634 112.121C610.803 117.999 612.107 123.853 614.486 129.237C615.27 131.023 616.248 132.846 617.914 133.872C620.22 135.284 623.577 135.007 625.17 137.191C626.04 138.386 626.088 139.992 626.088 141.476C626.088 142.84 626.088 144.204 626.088 145.58C626.088 148.079 623.589 149.72 621.379 150.891C616.526 153.462 611.672 156.033 606.819 158.604C602.448 160.922 597.559 163.939 596.895 168.84C605.382 171.471 614.522 171.978 623.239 170.313C625.678 169.854 628.684 168.345 628.249 165.907C628.165 165.436 627.947 165.002 627.718 164.591C624.76 159.22 619.242 155.587 613.375 153.788C607.507 152.002 601.265 151.869 595.132 152.11C586.898 152.448 578.483 153.523 571.154 157.301C570.37 157.711 569.476 158.592 569.995 159.316C571.118 160.886 573.171 161.381 574.897 162.238C576.624 163.095 578.278 164.99 577.505 166.752C576.841 168.273 574.728 168.731 574.04 170.252C573.364 171.737 574.475 173.548 575.96 174.223C577.445 174.912 579.159 174.803 580.789 174.73C583.831 174.61 586.898 174.73 589.928 175.044C590.689 175.129 591.462 175.213 592.222 175.286C592.814 177.603 591.087 179.848 589.24 181.381C583.397 186.209 575.658 187.911 568.233 189.456C562.775 190.591 556.811 186.378 556.063 180.85C552.598 180.79 549.434 182.818 546.935 185.208C544.436 187.598 542.372 190.434 539.715 192.655C536.033 195.721 531.361 197.483 527.871 200.779C524.237 204.219 520.229 207.236 515.919 209.783C512.599 211.751 509.11 213.428 506.031 215.746C502.952 218.063 500.26 221.141 499.318 224.883C498.413 228.492 499.161 232.512 497.447 235.807C492.762 244.799 482.186 248.578 473.385 253.647C472.576 254.118 471.743 254.625 471.199 255.397C470.922 255.796 470.728 256.254 470.559 256.713C469.364 259.875 468.712 263.231 468.628 266.611C468.591 268.095 468.7 269.677 469.569 270.884C470.97 272.827 473.698 273.056 475.908 273.974C478.117 274.891 479.977 277.957 478.154 279.502C477.164 280.335 478.274 281.989 479.518 282.387C480.761 282.785 482.258 282.773 483.079 283.787C484.275 285.272 482.947 287.396 481.667 288.796C479.313 291.379 475.799 294.204 472.721 292.526C468.809 290.39 464.209 289.521 459.79 290.1C457.943 283.944 461.649 276.774 458.631 271.101C456.748 267.552 452.57 265.657 448.55 265.524C445.266 265.416 442.078 263.557 440.376 260.745C440.11 260.31 439.857 259.827 439.398 259.598C439.181 259.489 438.939 259.441 438.698 259.429C433.325 258.958 431.092 267.166 425.84 268.349C421.179 269.399 417.497 264.535 413.102 262.664C409.818 261.264 406.003 261.589 402.671 262.833C399.339 264.076 396.369 266.14 393.495 268.252C387.543 272.622 387.193 281.204 384.199 287.951C383.148 290.317 381.736 292.514 380.71 294.88C376.786 303.981 379.587 315.641 387.519 321.592C395.451 327.53 407.802 326.77 414.612 319.576C416.773 317.295 418.354 314.518 420.491 312.213C422.616 309.895 425.562 308 428.701 308.29C431.828 308.58 434.677 311.911 433.518 314.832C430.669 322.062 421.626 325.551 419.224 332.938C418.946 333.795 433.398 337.102 434.714 337.344C439.978 338.309 439.338 342.244 438.843 347.097C438.13 353.977 439.748 361.062 443.37 366.952C444.831 369.33 446.715 371.6 449.274 372.722C450.976 373.471 452.884 373.664 454.743 373.676C462.277 373.712 469.992 370.972 477.188 373.181C478.274 373.519 479.409 373.965 480.508 373.676C481.884 373.326 482.705 371.962 483.466 370.767C486.569 365.842 490.915 361.702 495.974 358.817C497.121 358.165 498.992 357.839 499.378 359.107C499.427 359.276 499.439 359.445 499.451 359.614L500.139 370.706C500.236 372.179 499.885 374.195 498.413 374.291C496.674 374.4 496.396 371.624 497.519 370.296C499.125 368.377 502.155 367.846 504.316 369.113C504.353 369.137 504.389 369.161 504.425 369.186C507.866 371.225 512.067 371.334 516.064 371.394C519.915 371.455 523.754 371.503 527.606 371.563C534.669 371.672 541.72 371.781 548.782 371.889C550.497 371.913 552.272 371.926 553.817 371.213C555.375 370.501 556.618 368.823 556.28 367.146C556.002 365.806 554.65 364.78 553.286 364.864C551.922 364.949 550.714 366.144 550.618 367.508C550.497 369.21 551.849 370.634 553.141 371.744C568.885 385.372 590.061 391.842 604.851 406.507C605.479 407.123 606.119 407.811 606.252 408.68C606.565 410.708 604.139 411.927 602.195 412.603C589.953 416.828 579.666 425.217 568.317 431.457C547.563 442.876 522.378 446.931 499.608 440.365C486.593 436.611 472.721 435.851 459.379 438.168C458.788 438.265 458.184 438.385 457.689 438.711C457.013 439.146 456.627 439.906 456.277 440.619C454.466 444.276 452.606 448.223 453.21 452.254C453.584 454.753 454.864 457.01 456.18 459.159C459.041 463.794 462.205 468.248 465.646 472.472C468.917 476.48 468.603 482.201 469.932 487.198C471.574 493.378 475.763 498.508 479.844 503.421C480.097 507.272 483.104 509.613 486.448 511.532C493.825 515.745 502.107 519.439 506.61 526.645C507.516 528.081 508.24 529.638 508.941 531.183C511.633 537.158 514.072 543.785 512.442 550.146C511.585 553.501 509.617 556.917 510.739 560.201C511.053 561.142 511.621 561.975 512.055 562.868C514.06 566.876 513.649 571.607 513.601 576.085C513.468 586.743 515.593 597.414 519.807 607.203C520.507 608.832 521.279 610.558 520.929 612.297C519.976 617.077 519.01 621.856 518.056 626.636C516.74 633.191 515.545 640.493 519.058 646.178C521.461 650.077 525.807 652.648 527.642 656.849C529.9 662.039 530.202 668.05 528.475 673.433C528.149 674.447 527.751 675.473 527.799 676.548C527.908 679.046 530.262 680.724 532.049 682.474C535.007 685.395 536.77 689.487 536.854 693.639C536.878 695.028 536.757 696.536 537.506 697.707C537.904 698.347 538.532 698.806 539.16 699.216C542.951 701.69 547.865 702.777 550.509 706.446C551.523 707.858 552.115 709.548 553.129 710.96C554.566 712.964 556.847 714.328 559.286 714.642C561.435 714.92 563.971 714.545 565.432 716.151C566.277 717.08 566.47 718.432 567.218 719.446C567.955 720.448 569.126 721.015 570.285 721.486C577.517 724.431 585.654 725.083 593.261 723.321C593.937 723.164 594.637 722.971 595.144 722.512C596.122 721.643 596.098 720.037 595.446 718.903C594.794 717.768 593.671 716.996 592.572 716.296C587.502 713.037 582.117 710.248 576.527 707.979C574.052 706.977 571.517 706.06 569.331 704.527C567.158 702.994 565.335 700.701 565.069 698.045C564.743 694.895 566.579 691.974 567.798 689.053C569.235 685.613 569.826 681.545 568.124 678.238C567.303 676.644 566.023 675.341 565.154 673.783C564.285 672.226 563.898 670.162 564.937 668.714C565.166 668.388 565.468 668.11 565.733 667.821C568.257 665.117 568.885 661.037 568.124 657.404C567.363 653.771 565.383 650.536 563.222 647.53C565.081 646.432 567.146 645.708 569.283 645.382C570.152 641.845 571.022 638.308 571.891 634.784C572.313 633.082 573.955 631.887 575.67 631.489C577.384 631.09 579.171 631.332 580.91 631.573C582.503 631.79 584.085 632.02 585.679 632.237C586.367 632.334 587.151 632.394 587.671 631.935C589.832 627.662 590.822 622.858 590.822 618.054C590.822 616.944 590.822 615.688 591.631 614.94C591.908 614.675 592.271 614.506 592.621 614.361C596.75 612.671 601.796 613.842 605.612 611.536C607.399 610.45 608.69 608.736 609.922 607.046C615.85 598.886 621.548 590.292 624.084 580.527C625.291 575.88 625.762 571.016 627.464 566.525C630.084 559.633 634.407 552.644 641.385 550.279C645.007 549.047 649.003 549.204 652.601 547.877C654.267 547.261 655.813 546.332 657.141 545.161C658.662 543.821 658.71 541.503 658.626 539.476C658.227 530.314 657.515 520.501 662.163 512.595C662.61 511.822 663.117 511.086 663.479 510.277C665.435 505.98 663.419 500.862 664.578 496.287C666.002 490.614 671.701 487.331 675.89 483.239C682.446 476.83 685.694 467.21 684.378 458.145C684.016 455.622 681.601 453.884 679.199 453.039C676.796 452.194 674.176 451.904 671.918 450.721C666.171 447.704 664.783 440.317 663.008 434.076C662.851 433.509 662.67 432.93 662.356 432.435C660.726 429.876 656.815 430.805 654.038 432.048C650.162 433.775 646.287 435.501 642.423 437.227C639.405 438.567 635.88 439.918 632.934 438.446C630.29 437.13 629.082 433.992 626.764 432.169C623.516 429.61 618.844 430.105 614.884 431.264C610.924 432.423 606.904 434.125 602.811 433.569C600.179 433.207 597.317 431.264 597.571 428.608C597.667 427.522 598.283 426.556 598.875 425.639L604.923 416.309C608.304 415.186 608.63 412.47 611.274 410.08C613.713 407.871 617.214 407.352 620.498 407.111C648.11 405.047 675.794 415.258 703.224 411.468C720.514 409.078 736.982 401.003 749.441 388.776C761.901 376.549 770.292 360.241 772.996 343.005C762.891 343.946 752.653 343.488 742.68 341.641C741.461 341.411 739.952 340.844 739.915 339.601C739.795 334.483 734.917 329.981 729.81 330.258C729.798 332.938 731.73 335.34 734.096 336.607C736.462 337.875 739.203 338.225 741.871 338.466C749.719 339.178 757.639 339.154 765.487 338.406C770.714 337.911 773.998 332.286 774.614 327.072C775.23 321.857 774.083 316.546 774.795 311.344C776.655 297.885 789.79 289.315 797.095 277.86C804.387 266.43 806.415 251.161 817.221 242.965C826.3 236.085 838.735 236.423 849.734 233.429C857.835 231.22 865.671 227.032 874.062 227.454C880.751 227.792 887.548 231.063 893.899 228.963C894.647 225.619 899.476 224.099 902 226.416C904.765 228.951 903.811 233.417 904.499 237.111C905.38 241.878 909.666 245.801 914.496 246.248C917.224 246.501 919.941 245.765 922.681 245.632C925.422 245.5 928.501 246.188 929.998 248.493C930.807 249.724 931.036 251.233 931.604 252.597C933.958 258.161 941.033 259.598 947.033 260.274C949.448 260.551 951.875 258.56 952.08 256.146C952.176 255.071 951.887 253.973 952.116 252.911C952.865 249.435 957.779 249.41 961.244 250.195C979.172 254.275 997.572 257.884 1015.85 255.88C1017.84 255.663 1019.96 255.313 1021.39 253.913C1022.68 252.657 1023.16 250.798 1023.52 249.024C1024.52 244.087 1025.11 239.066 1025.29 234.021C1025.41 230.58 1024.33 226.018 1020.89 225.885C1018.68 225.801 1016.96 227.792 1015.91 229.748C1014.86 231.703 1014 233.936 1012.12 235.095C1010.24 236.254 1007 235.264 1007.12 233.055C1007.27 230.52 1005.35 228.022 1002.86 227.515C1000.37 227.008 997.971 228.239 995.508 228.746C992.61 229.337 989.543 228.891 986.875 227.623C981.973 225.294 978.593 220.067 978.472 214.647C978.436 212.849 978.714 211.002 978.182 209.288C976.866 205.088 971.132 203.772 967.087 205.534C964.866 206.5 962.753 208.576 963.055 210.99C963.115 211.473 963.26 211.932 963.429 212.39C964.479 215.36 966.013 218.353 965.674 221.491C965.336 224.63 961.92 227.635 959.143 226.139C955.871 224.376 957.235 219.319 955.642 215.963C954.41 213.38 951.066 212.04 948.398 213.042C948.047 207.103 947.963 201.153 948.132 195.202C941.781 193.657 935.431 192.112 929.092 190.567C928.295 190.374 927.45 190.144 926.919 189.517C926.509 189.034 926.364 188.382 926.183 187.779C924.722 182.999 919.591 179.631 914.616 180.21C913.916 180.295 913.143 180.5 912.781 181.104C912.624 181.369 912.576 181.671 912.528 181.973C912.009 185.739 913.288 189.71 915.908 192.462C921.184 197.99 930.722 198.159 935.238 204.339C939.077 209.602 936.674 218.341 930.529 220.514C928.404 221.274 926.074 221.286 923.901 221.902C921.728 222.517 919.53 224.05 919.253 226.295C918.975 228.541 921.836 230.774 923.563 229.313C928.803 224.28 928.706 216.023 928.235 208.769C928.175 207.888 928.006 206.826 927.185 206.488C922.464 204.557 917.731 202.625 913.011 200.694C910.379 199.62 907.505 198.316 906.382 195.709C905.598 193.898 905.839 191.822 905.513 189.879C905.187 187.936 903.859 185.811 901.891 185.835C900.334 185.859 899.03 187.525 899.368 189.046C892.377 189.034 884.795 183.928 879 187.827C875.438 190.229 874.46 195.057 871.551 198.22C869.172 200.815 865.683 202.082 862.942 204.303C857.57 208.648 855.614 216.12 850.495 220.767C845.702 225.125 838.88 226.344 832.421 226.814C829.367 227.032 826.179 227.104 823.414 225.801C820.65 224.497 818.537 221.793 816.653 219.246C815.325 217.448 813.937 215.517 813.816 213.284C813.551 208.323 819.539 204.424 818.706 199.523C818.283 197.073 816.146 194.888 816.653 192.45C817.221 189.71 820.722 188.732 823.499 189.118C830.006 190.012 836.067 195.226 842.406 193.488C848.744 191.75 851.328 183.783 851.582 177.06C851.702 173.656 850.966 169.432 847.718 168.43C845.4 167.718 841.983 168.611 841.174 166.329C840.365 164.048 843.734 162.588 846.197 162.153C855.143 160.56 863.184 154.512 867.204 146.353C869.136 142.43 865.719 137.952 862.109 135.477C858.5 133.003 854.081 130.83 852.765 126.654C852.39 125.471 852.318 124.204 852.016 122.996C850.773 117.915 845.183 114.33 840.039 115.32L839.098 125.893C838.892 128.211 836.49 129.756 834.196 130.094C831.902 130.432 829.56 129.937 827.23 130.058C822.835 130.275 818.489 132.967 816.955 137.083C815.374 141.331 817.233 146.594 821.133 148.912C825.032 151.229 830.55 150.324 833.508 146.896C835.838 144.204 836.526 140.462 838.446 137.469C840.365 134.475 844.808 132.351 847.404 134.801C850.024 137.276 848.249 141.633 846.209 144.615C844.168 147.596 841.983 151.591 844.132 154.488C852.258 154.947 860.649 154.525 868.098 151.253C870.923 150.01 873.555 148.393 876.175 146.775C880.401 144.168 884.638 141.549 888.864 138.942C891.098 137.566 893.331 136.189 895.565 134.801C895.879 134.608 896.205 134.403 896.434 134.101C899.537 134.101 902.64 134.101 905.755 134.101C908.278 134.463 909.558 130.287 907.493 128.802C905.429 127.318 902.157 129.044 901.674 131.542C901.191 134.041 902.941 136.588 905.26 137.662C907.578 138.736 910.27 138.579 912.757 138C915.244 137.421 917.611 136.431 920.086 135.852C924.891 134.729 929.913 135.2 934.827 135.67C937.833 135.96 941.636 135.827 942.892 133.075C944.063 130.528 942.131 127.269 943.484 124.819C945.838 120.57 953.444 124.674 956.945 121.295C958.31 119.967 956.281 117.77 954.398 117.48C952.515 117.191 950.172 117.335 949.194 115.694C948.313 114.233 949.315 112.218 950.824 111.421C952.333 110.624 954.132 110.697 955.835 110.781L968.306 111.457C969.453 111.517 970.673 111.566 971.663 110.986C972.653 110.407 973.208 108.959 972.46 108.089C968.934 105.217 964.503 103.479 959.964 103.201C956.245 102.972 951.633 103.249 949.822 100.002C946.623 94.2808 957.151 86.9299 953.106 81.7638C950.836 78.8669 945.971 80.2308 943.508 82.9708C941.045 85.7108 939.789 89.3923 937.145 91.9512C934.332 94.6792 929.648 97.0088 930.408 100.847C931.217 104.903 937.99 106.713 936.988 110.721C936.119 114.209 929.732 115.151 930.553 118.639C931.048 120.715 930.662 123.129 929.056 124.541C927.631 125.773 925.615 125.978 923.744 126.123C921.414 126.304 919.011 126.473 916.778 125.761C914.544 125.048 912.504 123.25 912.238 120.92C911.779 116.853 906.708 114.064 903.026 115.863C902.929 114.801 902.845 113.738 902.748 112.676C900.901 111.457 898.571 110.986 896.386 111.397C894.333 111.783 892.341 112.918 890.277 112.592C886.679 112.036 885.23 107.739 884.493 104.179C883.866 101.125 883.431 97.4312 885.749 95.343C887.089 94.1239 889.009 93.8342 890.772 93.4601C899.802 91.5529 908.012 85.9643 913.095 78.2513C924.372 61.1595 942.675 49.8616 963.151 49.8495C966.978 49.8495 971.047 50.3082 974.041 52.686C974.536 53.0844 974.995 53.5189 975.466 53.9293C985.04 62.2458 1000.32 58.6609 1011.5 64.6479C1014.06 66.0239 1016.64 68.9691 1015.22 71.516C1007.45 72.1195 999.685 72.7109 991.91 73.3145C989.036 73.5317 988.288 77.9133 990.195 80.0618C992.103 82.2104 995.254 82.6449 998.116 82.9467C1006.42 83.8158 1016.26 84.0692 1021.4 77.4908C1023.35 75.0164 1024.33 71.8177 1026.58 69.6209C1031.67 64.6841 1039.99 67.0982 1047.06 66.5791C1051.41 66.2532 1055.55 64.6961 1059.76 63.5857C1074.81 59.6024 1090.71 61.3164 1106.17 63.0546C1106.72 60.6405 1107.26 58.2143 1107.81 55.8002C1108.66 52.0705 1102.37 48.389 1104.84 45.4679C1110.7 44.792 1116.63 44.7437 1122.51 45.2989C1123.91 45.4317 1125.68 45.9749 1125.74 47.3871C1125.83 49.3425 1127.64 50.8996 1129.56 51.31C1131.48 51.7204 1133.47 51.2255 1135.34 50.622C1139.93 49.1494 1144.3 47.0009 1148.27 44.2729C1148.9 43.8384 1149.55 43.3797 1150.31 43.2952C1159.8 42.2934 1166.77 32.5405 1176.31 32.0938C1181.35 31.8524 1186.76 34.2907 1191.28 32.0094C1192.03 31.6352 1192.7 31.1403 1193.38 30.6575C1197.97 27.3381 1203.22 23.8497 1208.81 24.7309C1211.72 25.1895 1214.3 26.807 1217.13 27.6519C1218.95 28.1951 1220.84 28.4124 1222.73 28.6296C1230.58 29.5349 1238.42 30.4281 1246.27 31.3334C1246.75 33.5423 1244.46 35.2563 1242.53 36.4392C1240.6 37.6221 1238.5 39.7586 1239.47 41.7864C1243.88 41.4243 1248.3 41.1346 1252.72 40.9053C1267.33 40.169 1281.69 45.9869 1296.29 45.0937C1300.84 44.8161 1305.49 43.8988 1309.89 45.0937C1315.51 46.6267 1319.92 51.4186 1325.65 52.4205C1333.08 53.712 1340.68 53.9776 1348.18 53.1809C1349.71 53.024 1351.31 52.7826 1352.58 51.9135C1354.59 50.5254 1355.57 47.6647 1357.95 47.0733C1366.94 44.8523 1376.53 45.0575 1385.42 47.6768C1389.27 48.8114 1392.97 50.3806 1396.84 51.4549C1399.23 52.1187 1401.67 52.6016 1404.11 53.0844C1418.03 55.8123 1432.08 58.5644 1446.27 58.1178C1451.07 57.9729 1455.86 57.4539 1460.67 57.2487C1470.88 56.8021 1481.17 57.7436 1491.14 60.037L1491.83 57.0676C1504.16 61.3647 1517.18 63.6581 1530.24 63.8271C1533.6 63.8754 1537.15 63.8271 1540.1 65.4566C1550.1 71.0211 1560.9 76.5131 1572.32 75.7406C1572.26 78.1547 1573.19 80.5809 1574.86 82.3311C1569.9 85.0711 1563.75 84.4072 1558.31 82.826C1552.86 81.2448 1547.62 78.8065 1541.98 78.1426C1543.46 85.3366 1549.73 91.2874 1557 92.3737C1557.99 93.9187 1556.54 95.9948 1554.82 96.6104C1553.09 97.226 1551.18 96.9726 1549.38 97.3226C1545.57 98.083 1542.9 101.39 1539.89 103.841C1536.89 106.291 1532.14 107.884 1529.33 105.205C1525.39 101.451 1518.09 102.32 1515.14 106.882C1518.74 117.553 1532.59 122.26 1535.83 133.051C1536.09 133.956 1536.27 134.97 1535.83 135.791C1535.04 137.215 1532.86 137.288 1531.96 138.652C1530.4 141.018 1534.14 143.492 1534.56 146.292C1534.86 148.356 1533.13 150.312 1531.12 150.891C1529.1 151.471 1526.95 150.976 1524.98 150.264C1514.29 146.389 1506.95 136.443 1502.06 126.171C1500.57 123.045 1499.23 119.424 1500.55 116.225C1500.97 115.187 1501.66 114.282 1502.29 113.352C1504.6 109.936 1506.4 105.82 1505.67 101.752C1504.93 97.6847 1500.82 94.0877 1496.84 95.1499C1498.01 97.383 1495.67 100.123 1493.17 100.449C1490.67 100.775 1488.26 99.6039 1485.89 98.7228C1483.52 97.8416 1480.7 97.2985 1478.61 98.7107C1475.13 101.064 1476.12 107.039 1472.8 109.61C1470.51 111.385 1467.18 110.721 1464.57 109.478C1461.96 108.234 1459.47 106.46 1456.6 106.17C1451.61 105.675 1447.48 109.659 1443.59 112.809C1442.39 113.775 1440.74 114.728 1439.42 113.944C1437.61 112.857 1435.1 113.123 1433.55 114.571C1431.84 116.177 1431.5 118.724 1431.27 121.053L1430.67 127.052C1430.4 129.635 1432.19 132.086 1434.45 133.377C1436.7 134.669 1439.35 135.055 1441.93 135.381C1449.92 136.395 1457.94 137.179 1465.97 137.734C1468.88 144.506 1470.06 152.026 1469.39 159.365C1466.97 160.717 1464.29 157.409 1464.58 154.657C1464.89 151.712 1467.19 149.081 1470.05 148.356C1475.47 146.98 1480.34 151.905 1483.37 156.613C1485.01 159.16 1486.54 161.887 1486.95 164.893C1487.24 167.054 1486.95 169.335 1487.83 171.327C1489.75 175.744 1496.1 176.432 1498.76 180.452C1500.16 182.588 1500.25 185.509 1498.97 187.718C1501.2 189.505 1504.3 189.553 1507.05 190.301C1509.81 191.05 1512.74 193.343 1512.17 196.143L1502.64 199.74C1501.9 203.977 1501.83 209.53 1505.79 211.207C1506.9 211.678 1508.37 211.92 1508.71 213.066C1510.22 218.257 1511.73 223.435 1513.24 228.625C1513.48 229.446 1513.72 230.291 1513.74 231.148C1513.83 234.938 1509.82 237.449 1506.17 238.45C1502.53 239.452 1498.37 239.983 1495.91 242.856C1494.7 244.268 1493.38 245.765 1491.59 246.272C1489.8 246.779 1487.46 245.777 1487.29 243.918C1487.25 243.448 1487.35 242.977 1487.27 242.506C1486.94 240.756 1484.27 240.551 1482.97 241.758C1481.66 242.965 1481.29 244.836 1480.69 246.501C1478.91 251.402 1474.47 255.24 1469.35 256.291C1465.96 255.071 1464.45 250.847 1465.1 247.298C1465.75 243.749 1468.01 240.744 1470.21 237.871C1471.96 235.59 1473.7 233.296 1475.45 231.015C1479.3 225.982 1487.82 230.001 1493.46 227.092C1496.84 225.354 1498.46 221.491 1499.79 217.919C1501.38 213.597 1502.24 207.441 1498.04 205.558C1495.36 204.363 1492.69 203.168 1490.01 201.973C1489.22 201.623 1488.37 201.213 1488.03 200.416C1487.51 199.221 1488.39 197.942 1489.01 196.795C1491.91 191.4 1489.1 184.749 1485.71 179.643C1482.32 174.537 1478.13 169.335 1478.22 163.203L1470.21 162.648C1468.54 162.527 1466.69 162.467 1465.43 163.541C1463.57 165.11 1464.05 168.164 1465.33 170.24C1466.61 172.316 1468.53 174.042 1469.29 176.348C1470.33 179.51 1468.98 182.902 1467.65 185.956C1465.9 189.975 1462.77 194.767 1458.47 193.862C1454.68 193.053 1452.23 197.701 1451.18 201.43C1450.31 204.52 1449.44 207.598 1448.56 210.688C1447.26 215.287 1451.93 219.21 1456.06 221.612C1460.19 224.014 1465.02 227.539 1464.23 232.246C1463.63 235.831 1459.58 238.1 1455.97 237.69C1452.36 237.28 1449.26 234.841 1446.97 232.029C1444.67 229.217 1442.98 225.945 1440.8 223.036C1437.45 218.582 1432.97 214.985 1427.89 212.704C1426.96 212.282 1425.97 211.907 1424.94 211.98C1423.07 212.113 1421.51 213.766 1419.63 213.718C1415.65 213.621 1415.2 206.85 1411.39 205.715C1409.63 205.196 1407.73 206.114 1406.45 207.429C1404.03 209.904 1403.27 213.839 1404.59 217.025C1405.9 220.212 1409.21 222.481 1412.67 222.542C1416.55 222.614 1420.43 222.686 1424.32 222.759C1422.48 227.539 1419.35 231.812 1415.33 234.998C1415.06 235.216 1414.78 235.433 1414.57 235.698C1413.14 237.533 1415.44 239.947 1417.47 241.118C1421.66 243.556 1425.85 245.982 1430.05 248.421C1433.6 250.485 1437.36 252.754 1439.09 256.472C1440.83 260.189 1439.3 265.669 1435.27 266.43C1433.89 266.683 1432.12 266.019 1432.02 264.619C1429.85 263.424 1430.88 261.843 1432.22 261.336C1433.56 260.829 1435.05 261.07 1436.46 261.336C1448.44 263.533 1460.42 265.73 1472.38 267.914C1523.34 277.257 1575.69 274.565 1627.28 279.393C1659.32 282.387 1692.4 288.181 1723.08 278.464C1734.23 274.939 1745.87 273.081 1757.11 269.894C1766.47 267.226 1775.9 264.559 1785.6 263.557C1790.67 263.038 1795.78 262.965 1800.87 262.893C1826.45 262.519 1852.09 261.819 1877.57 264.076C1887.15 264.921 1896.72 266.188 1906.01 268.675C1912.38 270.377 1918.59 272.646 1924.91 274.517C1942.03 279.574 1959.93 281.687 1977.78 282.061C1987.68 282.266 1997.67 281.94 2007.28 279.587C2021.74 276.062 2034.7 268.168 2047.38 260.382" stroke="#16EEDC" stroke-miterlimit="10"/>
<path d="M683.074 65.3483C674.176 67.5934 671.291 73.7011 667.705 81.2934C667.451 90.3945 670.614 98.18 670.892 98.8318C671.206 99.5077 671.785 99.906 672.184 100.184C672.655 100.304 673.126 100.401 680.333 101.994C687.915 101.837 695.051 99.9543 697.647 99.2663C700.242 98.3248 702.343 96.6229 704.83 94.6192C706.412 91.7343 708.307 89.1633 712.859 82.9953C719.56 78.4448 726.973 76.4894 732.14 75.1375C737.682 74.9806 742.487 72.6268 746.145 70.8404C749.163 67.8711 752.918 66.2898 760.235 63.1998C768.795 65.8915 776.498 63.9119 781.049 62.7411C785.07 59.977 788.317 56.5852 788.921 55.9696C789.537 55.2091 789.428 54.3521 789.223 52.7951C787.086 52.5657 785.528 52.7468 782.136 53.1451C778.743 53.5434 775.351 53.9538 780.578 47.7858C786.929 42.5834 793.992 38.6605 797.952 35.7636C803.783 35.0877 806.041 30.7423 806.983 28.9318C807.091 26.7711 808.057 24.9726 808.516 24.1398C809.144 23.4156 809.772 22.6913 812.331 19.7461C814.915 16.7647 818.102 14.4955 821.277 12.2262C825.153 10.6933 829.041 11.0433 829.041 11.0433C829.536 12.9263 827.725 14.7731 825.805 15.0749C823.885 15.3766 821.978 14.5921 820.191 13.8437C815.325 11.8038 810.424 9.84837 805.329 8.50854C799.666 7.02388 793.762 6.66176 787.919 6.29965C783.114 6.00996 778.321 5.72027 773.515 5.43058C763.953 4.8512 754.198 4.28388 744.926 6.72212C743.404 7.12044 741.907 7.60326 740.398 8.06194C729.689 11.3572 718.304 12.3952 707.172 11.1399C700.918 10.1984 694.689 8.79824 688.362 8.81031C684.595 8.81031 680.768 9.37762 677.267 10.7778C673.766 12.178 671.81 14.9421 668.671 16.5475C661.258 20.3376 652.263 19.6616 644.282 21.2791C642.544 21.6291 640.757 22.124 639.465 23.3431C638.173 24.5623 637.594 26.6867 638.62 28.1351C639.163 28.8955 640.033 29.3301 640.902 29.6681C647.446 32.1425 654.678 29.4508 661.668 29.0766C664.469 28.9318 667.463 29.2335 669.697 30.9234C670.264 31.3458 670.759 31.8528 671.254 32.3598C676.482 37.8277 680.599 44.3578 683.279 51.4311C684.161 53.7607 684.897 56.2834 684.414 58.7337L683.11 65.3604L683.074 65.3483Z" stroke="#16EEDC" stroke-miterlimit="10"/>
<path d="M488.5 303.245C489.563 302.919 490.01 301.7 490.299 300.626C490.915 298.405 491.531 296.184 492.147 293.963C492.243 293.625 492.34 293.275 492.376 292.925C492.533 291.609 491.845 290.233 490.71 289.557C489.575 288.881 488.042 288.929 486.955 289.69C486.774 289.822 486.593 289.967 486.448 290.136C486.182 290.462 486.025 290.848 485.893 291.247C484.987 293.89 485.023 296.847 485.977 299.479C486.75 301.591 488.307 303.607 490.505 304.078C491.338 304.259 492.219 304.198 493.064 304.307C493.909 304.416 494.803 304.778 495.237 305.514C495.636 306.202 495.539 307.083 495.213 307.82C494.887 308.556 494.368 309.159 493.885 309.799C493.004 310.97 492.279 312.249 491.712 313.601C491.169 314.917 490.806 316.51 491.615 317.681C492.352 318.743 493.764 319.045 495.044 319.19C502.071 319.962 509.17 318.417 516.221 318.936C516.45 318.948 516.692 318.973 516.885 319.105C517.501 319.516 517.138 320.445 516.993 321.169C516.704 322.666 517.778 324.163 519.155 324.815C520.531 325.467 522.125 325.454 523.634 325.346C525.143 325.237 526.7 325.032 528.185 325.358C530.624 325.889 532.966 327.784 535.345 327.024C536.637 326.601 537.554 325.479 538.677 324.694C540.73 323.27 543.434 323.089 545.873 323.632C548.312 324.175 550.533 325.382 552.73 326.565C554.698 327.627 556.835 328.895 557.536 331.019C558.115 332.793 558.598 334.676 558.32 336.523C558.139 337.718 557.669 338.853 557.475 340.048C557.282 341.243 557.475 342.607 558.381 343.403C558.96 343.91 559.745 344.103 560.445 344.429C561.146 344.755 561.858 345.286 561.942 346.059C562.075 347.302 560.53 348.316 560.808 349.535C561.049 350.597 562.425 350.851 563.512 350.996C565.794 351.297 568.015 352.106 569.959 353.349C570.708 353.82 571.492 354.568 571.311 355.437C571.082 356.56 569.549 356.717 568.402 356.645C566.47 356.524 564.538 356.512 562.619 356.5C560.011 356.488 557.101 356.584 555.278 358.455C554.397 359.36 553.745 360.676 552.513 360.93C551.946 361.038 551.366 360.893 550.811 360.748C548.601 360.157 546.09 359.336 545.221 357.212C545.088 356.886 545.004 356.512 545.124 356.174C545.233 355.884 545.474 355.679 545.716 355.486C547.72 353.88 550.002 352.625 552.429 351.78C553.238 351.503 554.119 351.237 554.638 350.549C555.338 349.607 555.061 348.231 554.385 347.266C553.708 346.3 552.718 345.612 551.897 344.791C551.076 343.971 550.352 342.86 550.485 341.701C550.594 340.736 550.702 339.758 550.811 338.792C549.459 338.985 548.118 339.179 546.766 339.36C545.45 339.541 544.038 339.686 542.842 339.106C541.128 338.273 540.404 336.209 540.15 334.314C539.897 332.419 539.921 330.415 539.015 328.726C538.858 328.424 538.641 328.122 538.327 328.001C537.796 327.796 537.228 328.17 536.757 328.508C532.906 331.248 527.715 331.997 523.235 330.476C522.958 330.379 522.668 330.271 522.487 330.029C522.294 329.776 522.27 329.45 522.125 329.172C521.871 328.689 521.316 328.46 520.797 328.267L517.114 326.903C516.667 326.734 516.197 326.565 515.726 326.649C515.472 326.686 515.231 326.794 515.013 326.927C513.77 327.615 512.852 328.798 511.573 329.414C510.401 329.969 509.073 329.993 507.782 330.005C501.189 330.065 494.61 330.126 488.017 330.186C487.51 330.186 487.088 329.715 486.991 329.208C486.895 328.701 487.015 328.194 487.148 327.687C487.535 326.239 488.283 324.513 489.768 324.428C490.118 324.404 490.48 324.489 490.806 324.368C491.132 324.247 491.374 323.801 491.132 323.547L488.295 320.675C488.126 320.506 487.945 320.325 487.704 320.24C487.583 320.204 487.462 320.192 487.341 320.18C485.603 320.047 483.852 320.228 482.186 320.735C481.788 320.856 481.377 321 481.063 321.29C480.532 321.761 480.387 322.521 480.266 323.221C480.134 324.03 479.989 324.839 479.856 325.636C479.675 326.71 478.564 327.325 477.538 327.7C474.689 328.726 471.574 328.991 468.604 328.448C467.952 328.327 467.179 328.062 467.034 327.41C466.406 324.573 468.169 321.411 470.91 320.457C471.296 320.325 471.731 320.204 471.996 319.878C472.431 319.323 472.117 318.514 471.731 317.922C470.161 315.557 467.662 314 465.235 312.515C464.004 311.767 462.748 311.006 461.335 310.68C460.502 310.487 459.645 310.463 458.8 310.451C455.419 310.403 452.039 310.608 448.671 310.511C447.258 310.475 445.821 310.378 444.493 309.896C443.431 309.509 442.477 308.894 441.535 308.278C440.485 307.602 440.316 306.045 440.847 304.911C441.378 303.776 442.429 302.979 443.479 302.303C447.041 299.974 451.025 298.308 455.19 297.427C456.675 297.113 458.221 296.896 459.718 297.149C468.338 298.646 475.944 303.655 484.408 305.876C485.108 306.057 485.844 306.226 486.557 306.057C487.45 305.852 488.138 305.164 488.778 304.5C489.913 303.317 491.06 302.146 492.195 300.963" stroke="#16EEDC" stroke-miterlimit="10"/>
<path d="M1436.78 288.217L1442.31 287.191C1444.83 291.234 1447.47 295.845 1446.41 300.505C1445.35 305.152 1438.32 308.037 1435.74 304.029C1433.49 300.553 1435.95 294.433 1432.21 292.647C1429.04 291.138 1423.93 292.019 1423.83 295.532C1423.8 296.763 1424.46 297.946 1424.42 299.177C1424.35 301.434 1421.97 303.003 1419.73 303.245C1417.48 303.486 1415.22 302.846 1412.97 302.762C1405.02 302.472 1398.62 308.894 1393.32 314.82C1390.92 317.512 1388.36 321.217 1390.05 324.392C1386.89 324.018 1383.73 323.632 1380.56 323.257C1381.32 327.494 1376.75 331.719 1372.58 330.632C1370.89 322.859 1376.23 314.241 1383.94 312.285C1384.52 312.14 1385.25 312.08 1385.6 312.563C1388.52 316.643 1390.84 321.145 1392.48 325.877C1392.86 327.011 1393.23 328.206 1393.03 329.389C1392.82 330.705 1391.97 331.803 1391.26 332.938C1387.93 338.213 1387.5 345.201 1390.16 350.838C1391.27 353.192 1392.89 355.353 1393.54 357.875C1394.75 362.607 1392.15 367.652 1388.39 370.767C1384.62 373.881 1379.85 375.45 1375.2 376.947C1369.17 366.24 1360.39 357.091 1349.94 350.621C1344.58 353.385 1345.59 361.629 1341.77 366.313C1340.18 368.256 1337.81 369.487 1336.35 371.515C1332.2 377.273 1337.33 385.143 1342.77 389.705C1348.22 394.268 1354.92 399.531 1354.18 406.592C1354.04 407.968 1353.63 409.477 1354.36 410.647C1354.73 411.215 1355.29 411.601 1355.86 411.975C1359.74 414.534 1363.61 417.105 1367.49 419.664C1370.35 413.846 1369.59 406.7 1366.69 400.907C1363.78 395.113 1358.96 390.478 1353.78 386.567C1352.75 385.782 1351.69 385.022 1350.73 384.165C1347.52 381.304 1348.42 376.223 1348.6 371.938C1348.79 367.653 1347.95 363.476 1345.48 360.157C1343 356.837 1338.68 354.725 1334.64 355.606L1335.07 335.183C1331.85 333.409 1327.95 335.28 1324.58 336.728C1321.21 338.176 1316.54 338.889 1314.5 335.835C1313.82 334.833 1313.6 333.602 1313.28 332.443C1311.7 326.697 1307.55 322.074 1304.1 317.21C1300.65 312.346 1297.68 306.443 1298.97 300.625C1289.42 298.235 1280.03 305.405 1274.37 313.468C1268.7 321.531 1264.84 331.067 1257.35 337.464C1255.45 339.094 1253.31 340.506 1251.7 342.425C1249.25 345.334 1248.2 349.148 1247.22 352.818C1246.05 357.187 1244.88 361.69 1245.43 366.18C1245.97 370.67 1248.64 375.209 1252.95 376.597C1254.4 377.055 1256.05 377.2 1257.15 378.238C1259.58 380.52 1257.33 384.612 1254.69 386.639C1252.04 388.667 1248.62 390.804 1248.7 394.135C1248.79 398.891 1255.33 400.05 1260.07 399.712C1262.88 399.506 1264.97 396.839 1265.61 394.087C1267.4 386.446 1260.3 379.023 1252.61 377.466C1244.92 375.909 1237.06 378.516 1229.63 381.087C1226.27 375.595 1224.94 368.884 1225.98 362.535C1228.32 348.171 1207.95 338.237 1208.8 323.704C1208.99 320.336 1210.36 317.101 1210.34 313.722C1210.32 310.342 1208.07 306.516 1204.7 306.624C1200.24 306.781 1196.67 313.541 1192.83 311.259C1189.32 309.171 1192.35 302.991 1189.66 299.925C1188.56 298.67 1186.8 298.308 1185.25 297.704C1180.46 295.857 1176.98 290.993 1176.79 285.863C1160.63 287.613 1144.44 289.11 1128.24 290.353C1129.23 286.744 1129.87 282.085 1126.77 279.973C1121.65 276.484 1113.23 284.704 1109.2 279.997C1105.97 276.231 1102.74 272.465 1099.51 268.711C1096.27 264.957 1092.17 260.926 1087.35 261.807C1086.85 261.903 1086.36 262.048 1085.92 262.326C1083.75 263.738 1084.72 267.069 1085.92 269.363C1088.33 273.974 1091.91 279.273 1097.09 278.85C1097.84 281.119 1094.15 282.302 1093.33 284.547C1092.18 287.674 1096.71 289.532 1100 290.003C1103.3 290.474 1107.49 293.612 1105.3 296.123L1121.46 297.064L1122.62 288.808C1122.97 292.912 1126.36 296.256 1130.17 297.801C1133.99 299.346 1138.23 299.43 1142.36 299.503C1144.87 302.255 1143.67 306.793 1141.38 309.726C1139.08 312.66 1135.87 314.856 1133.99 318.079C1132.21 321.109 1131.8 324.754 1130.42 327.977C1129.03 331.2 1125.92 334.254 1122.46 333.638C1120.18 333.228 1118.02 334.676 1116.11 336.016C1105.98 343.137 1095.05 349.124 1083.59 353.856C1081.88 354.556 1080.09 355.256 1078.25 355.16C1074.67 354.991 1071.87 351.973 1070.22 348.798C1068.56 345.624 1067.65 342.063 1065.58 339.142C1062.74 335.123 1058.02 332.648 1055.51 328.411C1053.25 324.597 1053.09 319.841 1050.9 315.979C1047.04 309.123 1037.33 305.803 1036.3 298.006C1035.98 295.507 1036.61 292.731 1035.22 290.631C1034.69 289.822 1033.9 289.219 1033.16 288.579C1028.49 284.547 1025.28 278.862 1024.25 272.779C1023.94 270.92 1023.77 268.916 1022.59 267.456C1020.1 264.366 1014.57 266.043 1012.86 269.616C1011.14 273.189 1012.21 277.474 1013.82 281.083C1016.58 287.227 1020.87 292.671 1026.22 296.763C1029.23 299.056 1032.85 301.386 1033.41 305.128C1033.55 306.141 1033.45 307.167 1033.41 308.193C1032.87 318.127 1037.04 328.218 1044.42 334.881C1047.44 337.609 1051.08 339.975 1052.61 343.729C1053.46 345.805 1053.56 348.11 1054.2 350.259C1056.36 357.441 1063.9 361.34 1070.78 364.309C1077.86 367.363 1085.96 370.284 1093.04 367.23C1095.4 366.216 1097.48 364.575 1099.88 363.633C1102.28 362.692 1105.33 362.607 1107.14 364.442C1109.41 366.723 1108.62 370.549 1107.34 373.495C1103.7 381.823 1097.29 388.764 1093.98 397.237C1092.72 400.436 1091.94 403.816 1090.65 407.002C1085.72 419.061 1074.21 426.894 1063.59 434.426C1052.96 441.958 1041.93 450.915 1038.9 463.589C1038.67 464.554 1038.49 465.556 1038.62 466.534C1038.8 467.874 1039.55 469.056 1040.24 470.227C1045.26 478.749 1047.76 488.731 1047.35 498.605C1047.24 501.176 1046.92 503.843 1045.56 506.028C1043.05 510.096 1037.53 511.713 1035.42 516.011L1027.97 531.183C1026.57 534.044 1025.15 536.953 1024.62 540.091C1024.29 542.059 1024.31 544.05 1024.3 546.042C1024.27 554.672 1023.48 563.29 1021.98 571.788C1021.2 576.23 1019.97 581.034 1016.33 583.702C1013.15 586.043 1008.02 587.069 1007.61 591.004C1007.05 596.303 1003.62 601.204 998.84 603.533C996.51 604.668 993.95 605.211 991.427 605.742C976.83 608.808 962.221 611.886 947.625 614.952C943.544 615.809 941.661 610.196 940.864 606.104C939.113 597.003 934.006 588.578 926.762 582.808C925.47 581.77 923.961 580.563 923.973 578.91C924.009 566.996 928.09 554.105 922.186 543.748C918.854 537.894 912.54 533.452 911.646 526.777C911.115 522.83 912.648 518.944 913.904 515.166C920.581 495.129 920.013 472.774 912.335 453.099C910.753 449.056 908.507 444.759 904.439 443.262C902.084 442.393 898.583 441.512 899.09 439.061L901.36 428.162C902.41 423.152 903.449 417.914 902.084 412.977C900.72 408.04 896.156 403.586 891.073 404.19C889.468 409.284 891.484 414.764 891.327 420.111C891.17 425.458 886.558 431.638 881.596 429.658C886.449 425.917 891.279 421.994 894.732 416.924C898.185 411.855 900.104 405.445 898.547 399.519C895.142 395.402 889.407 394.002 884.071 393.882C878.734 393.761 873.362 394.642 868.05 394.014C865.635 393.725 863.269 393.133 860.89 392.663C850.821 390.683 840.305 390.948 830.344 393.447C824.513 394.908 818.815 397.129 812.814 397.611C804.93 398.251 796.841 395.68 790.768 390.635C780.506 382.113 775.572 357.878 772.602 344.878" stroke="#16EEDC" stroke-miterlimit="10"/>
<path d="M1472.43 366.24C1476 366.035 1478.83 362.052 1477.84 358.612C1473.1 357.393 1468.08 357.32 1463.31 358.407C1466.39 355.715 1465.79 349.982 1462.21 348.002C1459.68 346.59 1456.01 346.698 1454.68 344.115C1453.93 342.643 1454.33 340.88 1454.66 339.251C1455.48 335.195 1455.68 330.741 1453.61 327.156C1451.53 323.571 1446.48 321.519 1443.05 323.825C1439.11 333.119 1441.69 344.791 1449.21 351.527C1450.39 352.589 1451.69 353.542 1452.68 354.786C1454.67 357.32 1450.56 360.748 1451.17 363.911C1452.11 368.836 1460.96 365.782 1464.11 369.681C1463.53 373.531 1462.95 377.369 1462.37 381.22C1465.69 381.027 1468.58 384.769 1467.55 387.931C1466.77 386.217 1463.82 388.088 1464.35 389.899C1464.88 391.709 1466.95 392.506 1468.76 393.037C1471.04 393.713 1473.31 394.389 1475.59 395.077L1480.59 396.562C1490.66 385.771 1483.2 372.541 1472.43 366.228V366.24Z" stroke="#16EEDC" stroke-miterlimit="10"/>
<path d="M1436.82 409.887C1438.91 406.121 1441.07 402.066 1440.72 397.781C1440.37 393.496 1436.31 389.235 1432.15 390.418C1427.36 391.77 1426.08 398.807 1421.32 400.291C1419.1 400.991 1416.63 400.255 1414.4 400.955C1408.67 402.742 1408.51 412.12 1402.84 414.112C1399.86 415.162 1395.45 414.233 1394.35 417.202C1394.14 417.745 1394.12 418.337 1394.1 418.904C1393.83 425.229 1393.82 432.29 1398.13 436.937C1401.26 440.305 1405.96 441.596 1410.41 442.743C1415.67 444.095 1420.94 445.447 1426.2 446.799C1429.48 447.644 1432.51 444.385 1433.4 441.114C1434.28 437.842 1433.95 434.294 1435.07 431.083C1436.2 427.872 1439.82 425.048 1442.85 426.581C1440.7 422.742 1438.56 418.904 1436.81 409.887H1436.82Z" stroke="#16EEDC" stroke-miterlimit="10"/>
<path d="M1504.75 429.755C1505.42 433.509 1506.08 437.179 1510.74 438.289C1514.46 438.603 1513.26 441.995 1512.07 445.387C1510.87 448.778 1519.28 448.513 1527.76 450.758C1534.94 455.152 1537.36 456.624 1539.92 459.449C1538.53 461.923 1537.72 463.335 1535.97 463.842C1534.73 464.892 1533.48 465.943 1533.17 468.453C1534.75 468.803 1539.56 469.841 1544.51 470.131C1549.4 469.648 1552.11 476.999 1563.55 478.942C1568.54 472.919 1569.86 471.326 1572.27 469.262C1573.45 470.964 1579.41 479.63 1589.31 485.46C1599.78 486.474 1601.84 486.667 1604.72 485.907C1604.5 483.843 1604.43 483.083 1603.89 482.455C1603.35 481.924 1599.63 478.327 1594.34 476.975C1589.76 474.585 1585.17 472.183 1580.79 467.644C1581.69 462.551 1582.07 460.475 1583.27 458.604C1583.41 456.503 1583.72 451.748 1583.72 451.748C1578.71 448.585 1574.36 446.654 1562.37 441.319C1556.08 439.062 1549.55 436.478 1543.02 435.006C1536.49 433.533 1535.62 434.921 1530.11 438.289C1527.62 439.822 1523.99 440.498 1522.03 438.325C1521.46 437.71 1521.12 436.925 1520.76 436.177C1519.14 432.737 1516.85 429.2 1513.21 428.053C1509.58 426.907 1504.75 429.755 1504.75 429.755Z" stroke="#16EEDC" stroke-miterlimit="10"/>
<path d="M1418.52 469.334L1418.41 470.782C1418.27 472.678 1420.3 474.017 1421.96 473.088C1422.87 472.581 1423.75 471.7 1424.77 470.746C1425.64 469.95 1427.04 470.444 1427.23 471.603L1427.83 475.55C1427.42 475.997 1427.9 476.697 1428.46 476.456L1435.05 473.607C1435.82 473.269 1436.67 473.824 1436.72 474.669C1436.86 476.975 1439.37 479.34 1441.92 479.051C1444.68 478.737 1446.77 476.456 1447.88 473.824C1448.25 472.979 1449.39 472.883 1449.96 473.607C1451.36 475.381 1451.86 477.868 1451.09 480.004C1454.99 478.99 1458.77 477.506 1462.32 475.586C1462.94 475.249 1463.72 475.683 1463.74 476.383C1463.81 478.882 1466.64 481.417 1469.43 481.248C1472.81 481.042 1475.51 478.532 1477.87 476.081C1478.92 474.983 1478.8 473.184 1477.57 472.303C1476.34 471.422 1474.77 471.458 1473.3 471.507L1456.32 472.11C1455.6 472.134 1454.98 472.617 1454.75 473.305C1453 478.604 1446.63 481.199 1441.1 482.889C1432.18 485.617 1422.17 484.603 1413.98 480.125C1405.28 475.357 1398.33 466.811 1388.55 465.073C1384.22 464.301 1379.23 464.808 1375.97 461.85C1373.68 459.774 1372.93 456.551 1372.16 453.558C1367.64 436.104 1352.99 402.053 1331.68 399.422C1330.74 399.301 1329.73 399.265 1328.89 399.712C1327.68 400.363 1327.17 401.836 1327.02 403.2C1326.15 410.961 1332.85 417.334 1339.19 421.897C1345.53 426.46 1352.77 431.59 1353.77 439.339C1354.16 442.369 1353.59 445.724 1355.33 448.235C1355.82 448.959 1356.49 449.551 1357.18 450.094C1363.35 455.043 1371.43 456.732 1379.2 458.277L1415.64 465.52C1417.42 465.87 1418.65 467.499 1418.52 469.31V469.334Z" stroke="#16EEDC" stroke-miterlimit="10"/>
<path d="M1558.91 488.985C1559.42 499.546 1569.53 507.44 1571.35 517.857C1572.06 521.973 1571.43 526.258 1572.43 530.314C1575.4 542.312 1591.19 547.889 1593.64 559.995C1594.89 566.139 1592.28 572.331 1591.21 578.511C1590.51 582.555 1590.43 586.804 1588.73 590.546C1585.23 598.307 1576.08 601.59 1570.21 607.758C1565.84 612.357 1563.42 618.416 1560.15 623.848C1556.88 629.28 1552.08 634.482 1545.79 635.315C1542.95 635.689 1539.98 635.134 1537.26 636.015C1534.33 636.969 1532.18 639.395 1529.7 641.229C1527.23 643.064 1523.7 644.283 1521.16 642.569C1517.38 640.034 1513.6 637.488 1509.81 634.953C1507.85 633.637 1505.75 632.152 1505.03 629.907C1504.31 627.711 1505.1 625.345 1505.1 623.039C1505.12 617.04 1498.94 611.826 1493.04 612.852C1495.01 610.16 1491.07 607.01 1487.81 606.322C1484.55 605.634 1480.22 604.27 1480.49 600.95C1480.59 599.816 1481.04 598.234 1479.95 597.896C1471.56 595.338 1462.49 597.426 1454.17 600.226C1444.71 603.425 1435.11 607.601 1425.15 606.708C1422.08 606.43 1418.81 605.706 1416.08 607.13C1414.26 608.084 1413.02 609.834 1411.47 611.198C1408.09 614.192 1402.79 615.121 1398.9 612.816C1395.01 610.51 1393.4 604.789 1396.03 601.119C1397.49 599.079 1399.89 597.933 1401.68 596.17C1406.42 591.499 1405.93 583.883 1405.36 577.244C1404.64 568.758 1404.35 560.225 1404.49 551.703C1404.55 548.19 1407.26 545.149 1410.42 543.64C1413.58 542.131 1417.19 541.817 1420.69 541.539C1426.77 541.045 1432.95 540.489 1438.54 538.051C1444.12 535.613 1449.07 530.917 1450.19 524.931C1450.74 521.961 1451.4 517.761 1454.43 517.869C1458.56 518.026 1462.73 516.469 1465.75 513.657C1468.73 510.868 1470.69 506.885 1474.3 504.99C1481.47 501.236 1490.42 507.706 1498.14 505.316C1495.57 502.479 1497.12 497.579 1500.25 495.37C1503.37 493.161 1507.43 492.883 1511.26 492.69C1519.22 492.28 1527.19 491.87 1535.16 491.459C1534.69 497.772 1525.59 500.512 1524.77 506.777C1524.04 512.317 1530.18 516.192 1535.61 517.519C1540.24 518.654 1545.86 518.775 1549 515.178C1552.17 511.544 1551.26 506.064 1551.61 501.26C1551.96 496.456 1555.84 490.723 1558.89 488.973L1558.91 488.985Z" stroke="#16EEDC" stroke-miterlimit="10"/>
<path d="M1654.47 650.174C1658.68 650.21 1664.09 650.246 1665.12 640.421C1670.52 640.264 1674.22 640.143 1677.16 635.907C1675.96 632.406 1674.95 629.437 1671.7 627.518C1671.12 624.428 1670.76 622.508 1671.52 620.553C1671.41 618.598 1671.29 616.654 1669.46 614.494C1662.08 617.934 1665.42 624.017 1663.07 630.185C1661.57 634.132 1657.69 636.655 1655.53 640.276C1653.37 643.897 1654.46 650.174 1654.46 650.174H1654.47Z" stroke="#16EEDC" stroke-miterlimit="10"/>
<path d="M1647.83 647.193C1649.5 647.205 1648.18 655.207 1646.76 658.478C1643.33 660.386 1639.97 661.617 1636.61 662.86C1633.02 663.717 1630.17 665.878 1628.31 667.29C1626.87 669.185 1625.14 670.766 1617.78 677.526C1606.62 677.453 1596.64 676.994 1595.82 670.633C1600.65 664.067 1606.95 662.957 1610.81 662.281C1614.87 663.403 1618.65 662.365 1627.41 659.939L1631.37 646.987C1636.87 647.06 1642.36 647.132 1647.85 647.205L1647.83 647.193Z" stroke="#16EEDC" stroke-miterlimit="10"/>
<path d="M1491.77 412.929C1488.91 412.144 1485.85 412.048 1482.94 412.651C1484.76 418.916 1487 425.06 1489.63 431.023C1488.65 433.28 1484.77 432.037 1484.24 429.635C1483.7 427.233 1485.21 424.903 1486.65 422.899C1489.09 419.495 1491.54 416.104 1493.98 412.7" stroke="#16EEDC" stroke-miterlimit="10"/>
<path d="M1470.68 418.53C1472.91 422.416 1470.42 428.15 1466.05 429.164C1464.54 429.514 1462.79 429.441 1461.7 430.54C1460.95 431.288 1460.7 432.386 1460.55 433.424C1459.63 439.194 1459.91 445.157 1461.36 450.83L1457.42 450.89C1458.16 448.621 1456.44 446.135 1454.26 445.157C1452.07 444.179 1449.57 444.324 1447.19 444.493C1447.69 447.028 1448.18 449.671 1447.48 452.158C1446.78 454.644 1444.45 456.865 1441.89 456.539C1441.79 451.784 1441.15 447.04 1439.98 442.429C1443.44 440.727 1444 435.151 1440.93 432.797C1443.26 432.604 1445.59 432.411 1447.92 432.217C1448.81 427.848 1449.15 423.358 1448.93 418.904C1450.18 417.576 1452.45 418.192 1453.86 419.338C1455.27 420.485 1456.41 422.066 1458.12 422.694C1462.73 424.384 1466.79 418.083 1470.7 418.53H1470.68Z" stroke="#16EEDC" stroke-miterlimit="10"/>
<path d="M1100.36 508.346C1100.3 515.649 1094.88 521.672 1092.25 528.479C1091.8 529.65 1091.43 530.857 1091.06 532.052C1090.27 534.599 1089.49 537.146 1088.7 539.693C1088.12 541.576 1087.53 543.519 1087.6 545.487C1087.75 549.554 1090.67 553.538 1089.37 557.4C1088.47 560.056 1085.84 561.673 1083.35 562.989C1080.3 564.594 1076.89 566.115 1073.51 565.427C1070.71 564.86 1068.45 562.868 1066.34 560.961C1063.42 558.33 1062.16 554.19 1062.45 550.267C1062.74 546.344 1064.46 542.65 1066.69 539.427C1069.61 535.191 1073.61 531.34 1074.46 526.271C1074.58 525.57 1074.61 524.798 1074.23 524.194C1071.32 519.62 1071.27 513.162 1074.73 508.986C1076.33 507.066 1078.49 505.727 1080.43 504.182C1084.37 501.055 1087.52 496.939 1089.5 492.316C1090.46 490.083 1091.91 486.667 1094.99 487.573C1097.15 488.212 1096.94 489.757 1096.94 491.568C1096.94 497.386 1100.42 502.492 1100.36 508.358V508.346Z" stroke="#16EEDC" stroke-miterlimit="10"/>
<path d="M1026.33 185.992C1021.6 184.109 1024.24 182.009 1022.17 181.321C1023.45 180.017 1024.76 178.641 1025.3 176.891C1025.85 175.141 1025.3 172.92 1023.66 172.135C1020.14 170.469 1017.18 176.348 1013.28 176.312C1015.17 178.134 1017.23 180.705 1016.15 183.095C1015.08 185.485 1011.82 185.666 1009.21 185.485C1008.1 185.413 1006.93 185.316 1005.98 184.737C1003.43 183.192 1003.69 179.245 1001.63 177.108C999.564 174.972 996.075 175.418 993.793 177.132C991.511 178.846 990.195 181.526 988.964 184.109C987.394 187.38 985.837 190.663 984.267 193.934C982.468 197.7 984.472 202.517 987.974 204.786C991.475 207.055 996.027 207.176 1000.07 206.174C1000.23 206.138 1000.39 206.089 1000.53 206.041C1001.33 205.727 1001.82 204.931 1002.32 204.231C1005 200.465 1009.72 198.244 1014.32 198.57C1020.15 198.98 1024.99 203.024 1030.41 205.208C1035.83 207.393 1043.66 206.669 1045.44 201.104C1046.65 197.338 1044.21 193.174 1040.83 191.11C1037.45 189.046 1030.41 187.878 1026.31 185.992H1026.33Z" stroke="#16EEDC" stroke-miterlimit="10"/>
<path d="M1091.26 182.48C1087.62 181.514 1084.19 185.715 1084.73 189.457C1085.27 193.198 1088.47 195.999 1091.86 197.652C1095.26 199.306 1099 200.163 1102.33 201.925C1103.38 202.481 1104.53 203.458 1104.24 204.617C1103.96 205.74 1102.57 206.078 1101.61 206.717C1100.64 207.357 1100.46 209.325 1101.61 209.264C1100.1 208.878 1099.01 211.002 1099.57 212.451C1100.12 213.899 1101.54 214.817 1102.66 215.891C1105.76 218.836 1106.9 223.664 1105.45 227.684C1101.22 228.601 1096.55 226.959 1093.82 223.616C1092.65 222.18 1091.03 221.117 1089.26 220.622C1088.18 220.321 1087.05 220.212 1086.02 219.765C1082.75 218.365 1081.74 214.237 1081.59 210.688C1081.45 207.14 1081.66 203.229 1079.48 200.417C1076.54 196.638 1070.51 196.445 1067.62 192.631C1064.52 188.527 1066.95 182.19 1071.23 179.366C1075.52 176.541 1080.95 176.264 1086.09 176.07C1088.92 175.962 1092.47 176.3 1091.26 182.48Z" stroke="#16EEDC" stroke-miterlimit="10"/>
<path d="M1136.48 63.4532C1134.42 61.2806 1131.37 60.0977 1128.39 60.3391C1129.26 65.7708 1128.69 71.4318 1126.76 76.5859C1130.22 79.7846 1136.37 79.3621 1139.36 75.7289C1142.36 72.0957 1141.59 65.988 1137.79 63.1998" stroke="#16EEDC" stroke-miterlimit="10"/>
<path d="M785.251 78.4082C783.15 78.9997 781.013 79.6998 779.274 81.0275C777.536 82.3553 776.232 84.4314 776.377 86.6161C776.413 87.1472 776.558 87.7146 776.968 88.0525C780.844 91.1546 786.374 92.0599 791.034 90.3459C793.183 89.5613 795.127 88.2698 797.288 87.5214C800.62 86.3627 804.23 86.5437 807.731 86.1575C809.989 85.904 812.367 85.3367 813.937 83.6951C815.506 82.0535 815.845 79.0721 814.082 77.6357C813.128 76.8632 811.836 76.6942 810.617 76.5735C801.646 75.7044 794.028 75.9459 785.251 78.4082Z" stroke="#16EEDC" stroke-miterlimit="10"/>
</mask>
<g mask="url(#mask0_4049_969)">
<rect x="-21.8984" y="-34.6221" width="1919" height="832" fill="url(#paint0_linear_4049_969)" stroke="#16EEDC"/>
<g filter="url(#filter0_f_4049_969)">
<ellipse cx="955.602" cy="564.5" rx="336" ry="176" fill="white"/>
<path d="M955.602 389C1048.32 389 1132.24 408.687 1192.96 440.492C1253.7 472.31 1291.1 516.178 1291.1 564.5C1291.1 612.822 1253.7 656.69 1192.96 688.508C1132.24 720.313 1048.32 740 955.602 740C862.882 740 778.965 720.313 718.246 688.508C657.503 656.69 620.102 612.822 620.102 564.5C620.102 516.178 657.503 472.31 718.246 440.492C778.965 408.687 862.882 389 955.602 389Z" stroke="#16EEDC"/>
</g>
</g>
<g filter="url(#filter1_d_4049_969)">
<rect x="296" y="217.5" width="32" height="22" fill="#EEF3F8"/>
<rect x="296" y="217.5" width="18" height="14" fill="#41479B"/>
<rect x="314" y="217.5" width="14" height="2" fill="#DC251C"/>
<rect x="314" y="221.5" width="14" height="2" fill="#DC251C"/>
<rect x="314" y="225.5" width="14" height="2" fill="#DC251C"/>
<rect x="314" y="229.5" width="14" height="2" fill="#DC251C"/>
<rect x="296" y="233.5" width="32" height="2" fill="#DC251C"/>
<rect x="296" y="237.5" width="32" height="2" fill="#DC251C"/>
<rect x="298" y="219.5" width="2" height="2" fill="#C5D0EC"/>
<rect x="302" y="219.5" width="2" height="2" fill="#C5D0EC"/>
<rect x="306" y="219.5" width="2" height="2" fill="#C5D0EC"/>
<rect x="310" y="219.5" width="2" height="2" fill="#C5D0EC"/>
<rect x="298" y="223.5" width="2" height="2" fill="#C5D0EC"/>
<rect x="302" y="223.5" width="2" height="2" fill="#C5D0EC"/>
<rect x="306" y="223.5" width="2" height="2" fill="#C5D0EC"/>
<rect x="300" y="225.5" width="2" height="2" fill="#C5D0EC"/>
<rect x="304" y="225.5" width="2" height="2" fill="#C5D0EC"/>
<rect x="308" y="225.5" width="2" height="2" fill="#C5D0EC"/>
<rect x="300" y="221.5" width="2" height="2" fill="#C5D0EC"/>
<rect x="304" y="221.5" width="2" height="2" fill="#C5D0EC"/>
<rect x="308" y="221.5" width="2" height="2" fill="#C5D0EC"/>
<rect x="310" y="223.5" width="2" height="2" fill="#C5D0EC"/>
<rect x="298" y="227.5" width="2" height="2" fill="#C5D0EC"/>
<rect x="302" y="227.5" width="2" height="2" fill="#C5D0EC"/>
<rect x="306" y="227.5" width="2" height="2" fill="#C5D0EC"/>
<rect x="310" y="227.5" width="2" height="2" fill="#C5D0EC"/>
</g>
<g filter="url(#filter2_d_4049_969)">
<g clip-path="url(#clip0_4049_969)">
<rect x="560" y="441.5" width="32" height="8" fill="#FFD018"/>
<rect x="560" y="449.5" width="32" height="8" fill="#41479B"/>
<rect x="560" y="457.5" width="32" height="8" fill="#DC251C"/>
<path d="M570 457.5C570 455.5 572 451.5 576 451.5C580 451.5 582 455.5 582 457.5" stroke="#F5F8FB" stroke-width="0.75" stroke-dasharray="1 0.5"/>
</g>
</g>
<g filter="url(#filter3_d_4049_969)">
<g clip-path="url(#clip1_4049_969)">
<rect x="1352" y="384.5" width="32" height="24" rx="4" fill="#F5F8FB"/>
<rect x="1352" y="384.5" width="32" height="4" fill="#DC251C"/>
<rect x="1352" y="392.5" width="32" height="8" fill="#41479B"/>
<rect x="1352" y="404.5" width="32" height="4" fill="#DC251C"/>
</g>
<rect x="1352.25" y="384.75" width="31.5" height="23.5" rx="3.75" stroke="#DBDBDB" stroke-width="0.5"/>
</g>
<g filter="url(#filter4_d_4049_969)">
<rect x="1000" y="213.5" width="32" height="24" rx="4" fill="#E31D1C" shape-rendering="crispEdges"/>
<rect x="1000.25" y="213.75" width="31.5" height="23.5" rx="3.75" stroke="#DBDBDB" stroke-width="0.5" shape-rendering="crispEdges"/>
<path d="M1014.49 221.261C1013.22 221.016 1011.85 221.387 1010.87 222.373C1009.29 223.952 1009.29 226.512 1010.87 228.092C1011.85 229.078 1013.22 229.448 1014.5 229.202C1012.63 230.479 1010.06 230.288 1008.4 228.629C1006.52 226.753 1006.52 223.711 1008.4 221.835C1010.06 220.177 1012.62 219.986 1014.49 221.261Z" fill="#F5F8FB"/>
<path d="M1015.7 223.053L1016.64 224.284L1018.17 224.003L1017.29 225.285L1018.03 226.652L1016.54 226.213L1015.47 227.338L1015.43 225.785L1014.03 225.114L1015.49 224.593L1015.7 223.053Z" fill="#F5F8FB"/>
</g>
<g filter="url(#filter5_d_4049_969)">
<g clip-path="url(#clip2_4049_969)">
<rect x="912" y="195.5" width="32" height="24" fill="#F5F8FB"/>
<rect x="912" y="195.5" width="10" height="24" fill="#2B9F5A"/>
<rect x="934" y="195.5" width="10" height="24" fill="#DC251C"/>
</g>
<rect x="912.25" y="195.75" width="31.5" height="23.5" rx="3.75" stroke="#DBDBDB" stroke-width="0.5" shape-rendering="crispEdges"/>
</g>
<g filter="url(#filter6_d_4049_969)">
<g clip-path="url(#clip3_4049_969)">
<rect x="861" y="176.5" width="32" height="24" rx="4" fill="white"/>
<rect x="861" y="176.5" width="33" height="24" fill="#DC251C"/>
<rect x="875" y="180.5" width="4" height="16" fill="#F5F8FB"/>
<rect x="885" y="186.5" width="4" height="16" transform="rotate(90 885 186.5)" fill="#F5F8FB"/>
</g>
<rect x="861.25" y="176.75" width="31.5" height="23.5" rx="3.75" stroke="#DBDBDB" stroke-width="0.5"/>
</g>
<g filter="url(#filter7_d_4049_969)">
<g clip-path="url(#clip4_4049_969)">
<rect x="881" y="137.5" width="32" height="24" fill="#272727"/>
<rect x="881" y="145.5" width="32" height="8" fill="#E31D1C"/>
<rect x="881" y="153.5" width="32" height="8" fill="#FFD018"/>
</g>
<rect x="881.5" y="138" width="31" height="23" rx="3.5" stroke="#DBDBDB" shape-rendering="crispEdges"/>
</g>
<g filter="url(#filter8_d_4049_969)">
<rect x="1368" y="274.5" width="32" height="24" rx="4" fill="#E31D1C"/>
<rect x="1368.25" y="274.75" width="31.5" height="23.5" rx="3.75" stroke="#DBDBDB" stroke-width="0.5"/>
<path d="M1373.5 280.5L1374.27 282.146L1376 282.41L1374.75 283.691L1375.05 285.5L1373.5 284.646L1371.95 285.5L1372.25 283.691L1371 282.41L1372.73 282.146L1373.5 280.5Z" fill="#FFD018"/>
<path d="M1377.5 278.634L1377.44 279.358L1377.98 279.795L1377.29 279.989L1377.04 280.675L1376.67 280.07L1375.96 280.057L1376.43 279.489L1376.25 278.795L1376.9 279.049L1377.5 278.634Z" fill="#FFD018"/>
<path d="M1378.74 280.534L1379.21 281.09L1379.9 281.013L1379.55 281.638L1379.86 282.306L1379.17 282.136L1378.66 282.626L1378.59 281.896L1377.97 281.531L1378.61 281.25L1378.74 280.534Z" fill="#FFD018"/>
<path d="M1379 283.5L1379.31 284.158L1380 284.264L1379.5 284.776L1379.62 285.5L1379 285.158L1378.38 285.5L1378.5 284.776L1378 284.264L1378.69 284.158L1379 283.5Z" fill="#FFD018"/>
<path d="M1377.5 285.634L1377.44 286.358L1377.98 286.795L1377.29 286.989L1377.04 287.675L1376.67 287.07L1375.96 287.057L1376.43 286.489L1376.25 285.795L1376.9 286.049L1377.5 285.634Z" fill="#FFD018"/>
</g>
<g filter="url(#filter9_d_4049_969)">
<rect x="1483" y="221.5" width="32" height="24" rx="4" fill="#F5F8FB"/>
<rect x="1483.25" y="221.75" width="31.5" height="23.5" rx="3.75" stroke="#DBDBDB" stroke-width="0.5"/>
<circle cx="1498.5" cy="233" r="3.5" fill="#DC251C"/>
</g>
<g filter="url(#filter10_d_4049_969)">
<g clip-path="url(#clip5_4049_969)">
<rect x="931" y="164.5" width="32" height="12" fill="#E31D1C"/>
<rect x="931" y="152.5" width="32" height="12" fill="#F5F8FB"/>
</g>
<rect x="931.25" y="152.75" width="31.5" height="23.5" rx="3.75" stroke="#DBDBDB" stroke-width="0.5" shape-rendering="crispEdges"/>
</g>
<defs>
<filter id="filter0_f_4049_969" x="491.602" y="260.5" width="928" height="608" filterUnits="userSpaceOnUse" color-interpolation-filters="sRGB">
<feFlood flood-opacity="0" result="BackgroundImageFix"/>
<feBlend mode="normal" in="SourceGraphic" in2="BackgroundImageFix" result="shape"/>
<feGaussianBlur stdDeviation="64" result="effect1_foregroundBlur_4049_969"/>
</filter>
<filter id="filter1_d_4049_969" x="288" y="215.5" width="48" height="40" filterUnits="userSpaceOnUse" color-interpolation-filters="sRGB">
<feFlood flood-opacity="0" result="BackgroundImageFix"/>
<feColorMatrix in="SourceAlpha" type="matrix" values="0 0 0 0 0 0 0 0 0 0 0 0 0 0 0 0 0 0 127 0" result="hardAlpha"/>
<feOffset dy="6"/>
<feGaussianBlur stdDeviation="4"/>
<feComposite in2="hardAlpha" operator="out"/>
<feColorMatrix type="matrix" values="0 0 0 0 0 0 0 0 0 0 0 0 0 0 0 0 0 0 0.12 0"/>
<feBlend mode="normal" in2="BackgroundImageFix" result="effect1_dropShadow_4049_969"/>
<feBlend mode="normal" in="SourceGraphic" in2="effect1_dropShadow_4049_969" result="shape"/>
</filter>
<filter id="filter2_d_4049_969" x="552" y="439.5" width="48" height="40" filterUnits="userSpaceOnUse" color-interpolation-filters="sRGB">
<feFlood flood-opacity="0" result="BackgroundImageFix"/>
<feColorMatrix in="SourceAlpha" type="matrix" values="0 0 0 0 0 0 0 0 0 0 0 0 0 0 0 0 0 0 127 0" result="hardAlpha"/>
<feOffset dy="6"/>
<feGaussianBlur stdDeviation="4"/>
<feComposite in2="hardAlpha" operator="out"/>
<feColorMatrix type="matrix" values="0 0 0 0 0 0 0 0 0 0 0 0 0 0 0 0 0 0 0.12 0"/>
<feBlend mode="normal" in2="BackgroundImageFix" result="effect1_dropShadow_4049_969"/>
<feBlend mode="normal" in="SourceGraphic" in2="effect1_dropShadow_4049_969" result="shape"/>
</filter>
<filter id="filter3_d_4049_969" x="1344" y="382.5" width="48" height="40" filterUnits="userSpaceOnUse" color-interpolation-filters="sRGB">
<feFlood flood-opacity="0" result="BackgroundImageFix"/>
<feColorMatrix in="SourceAlpha" type="matrix" values="0 0 0 0 0 0 0 0 0 0 0 0 0 0 0 0 0 0 127 0" result="hardAlpha"/>
<feOffset dy="6"/>
<feGaussianBlur stdDeviation="4"/>
<feComposite in2="hardAlpha" operator="out"/>
<feColorMatrix type="matrix" values="0 0 0 0 0 0 0 0 0 0 0 0 0 0 0 0 0 0 0.12 0"/>
<feBlend mode="normal" in2="BackgroundImageFix" result="effect1_dropShadow_4049_969"/>
<feBlend mode="normal" in="SourceGraphic" in2="effect1_dropShadow_4049_969" result="shape"/>
</filter>
<filter id="filter4_d_4049_969" x="992" y="211.5" width="48" height="40" filterUnits="userSpaceOnUse" color-interpolation-filters="sRGB">
<feFlood flood-opacity="0" result="BackgroundImageFix"/>
<feColorMatrix in="SourceAlpha" type="matrix" values="0 0 0 0 0 0 0 0 0 0 0 0 0 0 0 0 0 0 127 0" result="hardAlpha"/>
<feOffset dy="6"/>
<feGaussianBlur stdDeviation="4"/>
<feComposite in2="hardAlpha" operator="out"/>
<feColorMatrix type="matrix" values="0 0 0 0 0 0 0 0 0 0 0 0 0 0 0 0 0 0 0.12 0"/>
<feBlend mode="normal" in2="BackgroundImageFix" result="effect1_dropShadow_4049_969"/>
<feBlend mode="normal" in="SourceGraphic" in2="effect1_dropShadow_4049_969" result="shape"/>
</filter>
<filter id="filter5_d_4049_969" x="904" y="193.5" width="48" height="40" filterUnits="userSpaceOnUse" color-interpolation-filters="sRGB">
<feFlood flood-opacity="0" result="BackgroundImageFix"/>
<feColorMatrix in="SourceAlpha" type="matrix" values="0 0 0 0 0 0 0 0 0 0 0 0 0 0 0 0 0 0 127 0" result="hardAlpha"/>
<feOffset dy="6"/>
<feGaussianBlur stdDeviation="4"/>
<feComposite in2="hardAlpha" operator="out"/>
<feColorMatrix type="matrix" values="0 0 0 0 0 0 0 0 0 0 0 0 0 0 0 0 0 0 0.12 0"/>
<feBlend mode="normal" in2="BackgroundImageFix" result="effect1_dropShadow_4049_969"/>
<feBlend mode="normal" in="SourceGraphic" in2="effect1_dropShadow_4049_969" result="shape"/>
</filter>
<filter id="filter6_d_4049_969" x="853" y="174.5" width="48" height="40" filterUnits="userSpaceOnUse" color-interpolation-filters="sRGB">
<feFlood flood-opacity="0" result="BackgroundImageFix"/>
<feColorMatrix in="SourceAlpha" type="matrix" values="0 0 0 0 0 0 0 0 0 0 0 0 0 0 0 0 0 0 127 0" result="hardAlpha"/>
<feOffset dy="6"/>
<feGaussianBlur stdDeviation="4"/>
<feComposite in2="hardAlpha" operator="out"/>
<feColorMatrix type="matrix" values="0 0 0 0 0 0 0 0 0 0 0 0 0 0 0 0 0 0 0.12 0"/>
<feBlend mode="normal" in2="BackgroundImageFix" result="effect1_dropShadow_4049_969"/>
<feBlend mode="normal" in="SourceGraphic" in2="effect1_dropShadow_4049_969" result="shape"/>
</filter>
<filter id="filter7_d_4049_969" x="873" y="135.5" width="48" height="40" filterUnits="userSpaceOnUse" color-interpolation-filters="sRGB">
<feFlood flood-opacity="0" result="BackgroundImageFix"/>
<feColorMatrix in="SourceAlpha" type="matrix" values="0 0 0 0 0 0 0 0 0 0 0 0 0 0 0 0 0 0 127 0" result="hardAlpha"/>
<feOffset dy="6"/>
<feGaussianBlur stdDeviation="4"/>
<feComposite in2="hardAlpha" operator="out"/>
<feColorMatrix type="matrix" values="0 0 0 0 0 0 0 0 0 0 0 0 0 0 0 0 0 0 0.12 0"/>
<feBlend mode="normal" in2="BackgroundImageFix" result="effect1_dropShadow_4049_969"/>
<feBlend mode="normal" in="SourceGraphic" in2="effect1_dropShadow_4049_969" result="shape"/>
</filter>
<filter id="filter8_d_4049_969" x="1360" y="272.5" width="48" height="40" filterUnits="userSpaceOnUse" color-interpolation-filters="sRGB">
<feFlood flood-opacity="0" result="BackgroundImageFix"/>
<feColorMatrix in="SourceAlpha" type="matrix" values="0 0 0 0 0 0 0 0 0 0 0 0 0 0 0 0 0 0 127 0" result="hardAlpha"/>
<feOffset dy="6"/>
<feGaussianBlur stdDeviation="4"/>
<feComposite in2="hardAlpha" operator="out"/>
<feColorMatrix type="matrix" values="0 0 0 0 0 0 0 0 0 0 0 0 0 0 0 0 0 0 0.12 0"/>
<feBlend mode="normal" in2="BackgroundImageFix" result="effect1_dropShadow_4049_969"/>
<feBlend mode="normal" in="SourceGraphic" in2="effect1_dropShadow_4049_969" result="shape"/>
</filter>
<filter id="filter9_d_4049_969" x="1475" y="219.5" width="48" height="40" filterUnits="userSpaceOnUse" color-interpolation-filters="sRGB">
<feFlood flood-opacity="0" result="BackgroundImageFix"/>
<feColorMatrix in="SourceAlpha" type="matrix" values="0 0 0 0 0 0 0 0 0 0 0 0 0 0 0 0 0 0 127 0" result="hardAlpha"/>
<feOffset dy="6"/>
<feGaussianBlur stdDeviation="4"/>
<feComposite in2="hardAlpha" operator="out"/>
<feColorMatrix type="matrix" values="0 0 0 0 0 0 0 0 0 0 0 0 0 0 0 0 0 0 0.12 0"/>
<feBlend mode="normal" in2="BackgroundImageFix" result="effect1_dropShadow_4049_969"/>
<feBlend mode="normal" in="SourceGraphic" in2="effect1_dropShadow_4049_969" result="shape"/>
</filter>
<filter id="filter10_d_4049_969" x="923" y="150.5" width="48" height="40" filterUnits="userSpaceOnUse" color-interpolation-filters="sRGB">
<feFlood flood-opacity="0" result="BackgroundImageFix"/>
<feColorMatrix in="SourceAlpha" type="matrix" values="0 0 0 0 0 0 0 0 0 0 0 0 0 0 0 0 0 0 127 0" result="hardAlpha"/>
<feOffset dy="6"/>
<feGaussianBlur stdDeviation="4"/>
<feComposite in2="hardAlpha" operator="out"/>
<feColorMatrix type="matrix" values="0 0 0 0 0 0 0 0 0 0 0 0 0 0 0 0 0 0 0.12 0"/>
<feBlend mode="normal" in2="BackgroundImageFix" result="effect1_dropShadow_4049_969"/>
<feBlend mode="normal" in="SourceGraphic" in2="effect1_dropShadow_4049_969" result="shape"/>
</filter>
<linearGradient id="paint0_linear_4049_969" x1="-22.3984" y1="413.878" x2="1897.6" y2="413.878" gradientUnits="userSpaceOnUse">
<stop stop-color="white"/>
<stop offset="0.386192" stop-color="#C9C9C9"/>
<stop offset="0.860577" stop-color="#E8E8E8"/>
<stop offset="1" stop-color="white"/>
</linearGradient>
<clipPath id="clip0_4049_969">
<rect x="560" y="441.5" width="32" height="24" rx="4" fill="white"/>
</clipPath>
<clipPath id="clip1_4049_969">
<rect x="1352" y="384.5" width="32" height="24" rx="4" fill="white"/>
</clipPath>
<clipPath id="clip2_4049_969">
<rect x="912" y="195.5" width="32" height="24" rx="4" fill="white"/>
</clipPath>
<clipPath id="clip3_4049_969">
<rect x="861" y="176.5" width="32" height="24" rx="4" fill="white"/>
</clipPath>
<clipPath id="clip4_4049_969">
<rect x="881" y="137.5" width="32" height="24" rx="4" fill="white"/>
</clipPath>
<clipPath id="clip5_4049_969">
<rect x="931" y="152.5" width="32" height="24" rx="4" fill="white"/>
</clipPath>
</defs>
</svg>
