
<svg width="2176" height="725" viewBox="0 0 2176 725" fill="none" xmlns="http://www.w3.org/2000/svg">
<mask id="mask0_4096_820" style="mask-type:alpha" maskUnits="userSpaceOnUse" x="-1" y="0" width="2177" height="725">
<path d="M0 408.487C14.0171 421.028 31.2337 429.647 49.1747 435.284C67.1156 440.921 85.8414 443.697 104.555 445.58C154.418 450.577 204.703 449.285 254.699 445.869C262.088 445.362 269.549 444.795 276.588 442.49C304.224 433.401 333.32 429.683 362.284 426.979C380.262 425.301 398.541 423.998 416.228 427.619C419.705 428.331 423.158 429.236 426.345 430.793C446.448 440.558 468.711 445.833 491.059 446.147C496.914 446.232 503.216 445.821 507.792 442.164C509.519 440.776 510.919 438.977 511.825 436.949C513.008 434.294 513.744 431.24 512.766 428.5C511.788 425.76 508.565 423.72 505.897 424.867C504.532 429.84 508.094 435.103 512.706 437.432C517.318 439.762 522.691 439.846 527.858 439.895C539.557 440.003 551.256 440.1 562.955 440.208C566.794 440.245 570.67 440.269 574.425 439.436C579.17 438.374 581.186 432.954 583.154 428.5C585.689 422.742 589.372 417.504 593.911 413.146C595.155 411.951 596.483 410.805 597.509 409.417C600.624 405.216 600.588 399.531 600.37 394.304C600.189 389.935 599.972 385.469 598.282 381.437C596.591 377.406 593.126 373.845 588.792 373.278C587.066 377.442 583.069 380.58 578.614 381.28C574.159 381.98 569.39 380.218 566.469 376.778C563.233 372.976 562.388 367.689 559.852 363.392C557.703 359.747 554.311 356.85 550.375 355.293C542.105 352.046 531.106 354.182 525.54 347.254C522.051 342.933 521.061 335.473 515.567 334.688C513.261 334.363 511.028 335.497 508.818 336.233C502.673 338.31 495.827 337.416 489.779 335.051C483.73 332.685 478.345 328.943 473.033 325.213C470.099 323.137 466.839 320.409 467.057 316.824C467.129 315.689 467.552 314.615 467.793 313.505C468.614 309.678 467.153 305.731 465.234 302.328C460.561 294.047 453.209 287.638 447.413 280.094C441.618 272.55 437.284 262.736 440.097 253.647C443.84 253.116 447.377 256.037 448.838 259.514C450.299 262.99 450.166 266.913 450.009 270.691C449.901 273.395 449.78 276.135 449.019 278.742C447.329 284.56 446.653 290.667 447.027 296.715C447.232 299.938 448.705 304.017 451.929 303.897C452.738 298.96 449.659 294.204 446.146 290.643C442.632 287.083 438.443 284.005 436.052 279.611C431.947 272.067 434.072 262.507 430.909 254.528C427.746 246.55 420.055 241.504 416.252 233.96C413.101 227.708 412.944 220.273 414.453 213.429C415.962 206.585 419.017 200.199 422.108 193.911C422.603 192.897 423.11 191.883 423.701 190.917C427.468 184.773 434.7 181.14 437.682 174.574C438.866 171.967 439.469 168.804 441.86 167.223C444.649 165.376 448.367 166.631 451.675 166.245C456.782 165.642 460.863 160.379 460.151 155.285C457.024 154.404 453.8 156.118 451.035 157.832C448.271 159.546 445.156 161.369 441.968 160.693C438.781 160.017 436.753 155.261 439.457 153.463C441.401 152.183 443.176 150.638 444.721 148.9" stroke="#16EEDC" stroke-miterlimit="10"/>
<path d="M444.154 149.793C446.363 143.987 446.701 137.481 445.12 131.47C443.888 126.775 441.546 122.465 439.228 118.217C437.707 115.428 436.185 112.628 434.664 109.84C432.889 106.569 429.545 104.384 426.008 103.213C422.47 102.042 418.715 101.777 415.009 101.523C401.861 100.618 387.457 100.063 376.857 107.908C373.549 110.359 370.736 113.557 367.017 115.32C360.8 118.253 353.531 116.551 346.674 116.249C341.567 116.02 336.424 116.611 331.51 117.987C328.346 118.868 325.014 120.305 323.517 123.214C322.262 125.64 324.423 128.742 327.079 129.37C329.735 130.009 332.5 128.899 334.89 127.583C339.454 125.085 343.535 121.717 346.855 117.722C348.098 116.225 349.257 114.583 349.656 112.676C350.054 110.769 349.475 108.56 347.845 107.498C346.118 106.375 345.756 103.853 346.565 101.958C347.362 100.063 349.04 98.6866 350.755 97.5399C354.208 95.2344 358.059 93.5204 362.091 92.5186C365.146 91.7581 368.345 91.3839 371.146 89.9596C373.947 88.5353 376.338 85.6746 376 82.5484C375.843 81.0878 373.911 80.7137 372.45 80.7137C369.842 80.7137 367.223 80.7137 364.615 80.7257C364.434 79.5187 364.53 78.2633 364.929 77.1046C370.156 75.4147 375.65 74.5336 381.155 74.4612C383.34 74.437 385.707 74.4853 387.47 73.1938C390.319 71.0935 390.017 66.8326 389.438 63.3443C394.424 63.3443 399.422 63.3201 404.408 63.308C405.531 63.308 406.69 63.296 407.704 62.8252C409.709 61.8958 410.554 59.53 412.147 57.997C415.299 54.9674 420.333 55.8726 424.704 55.9571C430.076 56.0537 435.352 54.6052 440.689 54.0379C448.21 53.2292 455.793 54.1707 463.302 55.1122C470.184 55.9692 477.078 56.8383 483.815 58.504C486.58 59.192 489.32 60.0007 492.073 60.7008C496.806 61.8958 501.635 62.7528 506.513 63.0666C513.986 63.5495 521.532 62.7287 528.728 60.6646C532.35 59.6266 535.911 58.2747 539.654 57.8643C543.119 57.4901 546.62 57.9367 550.073 58.3833C554.202 58.9265 558.331 59.4576 562.472 60.0007C565.165 60.3508 567.954 60.6888 570.537 59.8559C573.121 59.023 575.415 56.6572 575.234 53.9534C575.198 53.3861 574.968 52.7343 574.425 52.5774C571.431 51.6963 568.304 53.1809 565.201 53.4465C562.533 53.6758 559.792 52.9516 557.583 51.4428C557.076 51.0927 556.569 50.6824 556.291 50.1271C555.337 48.232 557.39 46.2646 559.176 45.1299C564.899 41.4726 570.719 37.767 577.226 35.7874C583.734 33.8079 591.11 33.7113 597.014 37.0789C598.065 37.6704 599.043 38.3705 600.093 38.974C608.508 43.8505 619 42.052 628.622 40.6156C629.685 40.4587 631.001 40.4104 631.592 41.3036C631.918 41.7864 631.906 42.4262 631.846 43.0055C631.399 47.3992 628.707 51.9015 630.457 55.9571C631.496 58.3592 633.959 59.9163 636.53 60.4474C639.09 60.9785 641.758 60.6163 644.305 60.0611C646.913 59.4938 649.835 58.3954 650.692 55.8726C651.465 53.5913 650.113 51.0203 648.145 49.6443C646.177 48.2562 643.726 47.7854 641.36 47.3509C640.261 47.1457 639.887 45.6128 640.43 44.6471C640.973 43.6694 642.06 43.1504 643.086 42.7279C653.698 38.2739 665.482 36.6444 676.916 38.0446C677.676 38.1411 678.642 38.455 678.654 39.2275C678.702 42.2572 677.918 45.311 676.433 47.9424C681.214 49.6322 686.417 47.6647 691.102 45.7335C693.492 44.7437 696.39 42.7521 695.545 40.3018C694.531 37.3445 688.808 37.1272 689.291 34.0372C689.484 32.7819 690.739 32.0214 691.862 31.43C693.854 30.3919 695.847 29.3659 697.839 28.352C701.461 26.4932 705.046 33.2043 708.898 31.8766C711.385 31.0196 711.542 27.2415 709.815 25.262C708.089 23.2824 705.348 22.5944 702.825 21.8581C702.402 21.7374 701.907 21.496 701.919 21.0614C701.931 20.7718 701.944 20.47 701.956 20.1803C702.088 17.2955 702.269 14.2416 703.899 11.8517C706.978 7.34941 713.462 7.28905 718.895 7.69945C720.428 7.82015 721.321 9.57037 721.394 11.1033C721.466 12.6483 721.032 14.2054 721.321 15.7142C722.058 19.5526 726.694 21.0132 730.545 21.7374C732.38 22.0754 734.698 22.2323 735.701 20.639C737.729 17.38 730.835 13.9157 732.332 10.3912C732.972 8.88235 734.819 8.38747 736.425 8.07363C739.999 7.37355 743.609 6.68553 747.243 6.79417C754.318 7.01143 761.429 6.00959 768.166 3.84897C769.953 3.28166 771.703 2.62986 773.514 2.14704C777.438 1.09691 781.519 0.8555 785.575 0.614091C791.141 0.288189 796.743 0.662373 802.213 1.7125C804.12 2.07462 806.511 3.28166 806.064 5.16465C805.871 5.98544 805.158 6.55276 804.482 7.03557C792.663 15.34 778.307 14.6641 765.087 18.6353C756.515 21.2063 748.74 25.8413 741.073 30.4402C735.435 33.8199 729.797 37.2117 724.171 40.6156C722.046 41.8951 722.335 45.3834 724.195 47.025C726.054 48.6666 728.783 48.8839 731.258 48.6545C733.733 48.4372 736.232 47.8579 738.683 48.2562C742.462 48.8597 745.48 51.6238 748.245 54.2793C750.587 56.5365 752.941 58.8178 754.776 61.5096C757.481 65.4807 758.966 70.2727 758.966 75.0767C758.966 76.67 758.797 78.3237 757.976 79.6997C756.696 81.8483 754.052 82.8622 751.553 82.8622C749.054 82.8622 746.651 82.0173 744.297 81.1723C741.689 80.2429 739.636 77.8892 739.069 75.1854C740.156 74.5577 741.641 75.2337 742.281 76.3079C742.92 77.3822 742.932 78.722 742.836 79.9774C742.558 83.2726 741.604 86.5075 740.047 89.4285C737.982 93.2911 732.851 94.655 728.577 93.6894C724.303 92.7117 720.693 89.9355 717.277 87.1834C713.86 84.4314 710.371 81.5586 706.157 80.3153C703.887 79.6514 701.473 79.4945 699.13 79.8566C698.177 80.0015 696.969 80.7619 697.392 81.6189C699.469 83.4899 702.765 83.2967 705.312 82.1259C707.859 80.9551 709.936 78.9876 712.278 77.4426C715.695 75.1975 719.703 73.8697 723.784 73.6404C724.955 73.5679 726.139 73.5921 727.273 73.3024C731.33 72.2764 733.479 66.8206 731.221 63.308C729.628 60.8215 726.609 59.699 723.76 58.9385C718.267 57.478 712.568 56.79 706.882 56.8866C703.477 56.9469 700.181 59.011 698.648 62.0527C697.247 64.8289 697.259 68.2207 695.46 70.7555C692.852 74.4491 687.649 74.8715 683.145 75.1009C678.835 75.3182 674.537 75.6561 670.239 76.1269C668.814 76.2838 667.329 76.4769 666.158 77.2856C664.021 78.7703 663.659 82.0293 664.951 84.2865C666.243 86.5437 668.79 87.8594 671.35 88.2818C673.921 88.7043 676.541 88.3663 679.113 88.0163C679.584 85.566 677.918 83.1036 675.744 81.8603C673.583 80.6171 671.012 80.3153 668.537 80.0377C664.444 79.5911 660.013 79.2048 656.463 81.281C655.027 79.748 652.672 79.3618 650.608 79.7842C648.543 80.2067 646.696 81.3051 644.885 82.3914C642.41 83.8761 639.947 85.3487 637.472 86.8334C636.458 87.4369 635.323 88.2094 635.19 89.3923C635.106 90.1407 635.347 91.1184 634.671 91.4564C632.136 92.7358 629.612 94.0153 627.077 95.2948C623.225 97.2502 619.253 99.278 616.489 102.609C613.724 105.929 612.468 110.902 614.653 114.632C615.378 115.875 616.44 116.889 617.575 117.77C624.674 123.25 634.635 123.407 642.289 128.066C643.303 128.682 644.342 129.466 644.692 130.613C644.837 131.06 644.849 131.53 644.873 132.001C645.042 135.453 645.211 138.917 645.368 142.37C645.428 143.565 645.561 144.916 646.527 145.641C646.901 145.93 647.372 146.063 647.843 146.136L654 147.077C654.459 138.398 661.196 130.432 669.684 128.537C670.493 128.356 671.314 128.223 672.11 128.006C676.264 126.859 679.391 123.334 681.298 119.472C683.206 115.609 684.111 111.348 685.367 107.232C686.297 104.167 687.468 101.113 689.472 98.6141C691.464 96.1156 694.41 94.1963 697.609 94.0998C700.483 94.0032 703.223 95.3551 705.541 97.0691C708.693 99.4108 711.312 102.561 712.592 106.255C713.389 108.56 713.703 111.119 715.116 113.111C717.277 116.153 721.997 116.985 725.076 114.861C727.165 113.413 728.324 111.01 729.978 109.079C731.632 107.148 734.385 105.627 736.642 106.798C738.417 107.715 738.574 110.129 738.634 112.121C738.803 117.999 740.107 123.853 742.486 129.237C743.271 131.023 744.249 132.846 745.915 133.872C748.221 135.284 751.577 135.007 753.171 137.191C754.04 138.386 754.088 139.992 754.088 141.476C754.088 142.84 754.088 144.204 754.088 145.58C754.088 148.079 751.589 149.72 749.38 150.891C744.526 153.462 739.673 156.033 734.819 158.604C730.449 160.922 725.559 163.939 724.895 168.84C733.382 171.471 742.522 171.978 751.239 170.313C753.678 169.854 756.684 168.345 756.249 165.907C756.165 165.436 755.948 165.002 755.718 164.591C752.76 159.22 747.243 155.587 741.375 153.788C735.507 152.002 729.266 151.869 723.132 152.11C714.898 152.448 706.483 153.523 699.155 157.301C698.37 157.711 697.476 158.592 697.996 159.316C699.118 160.886 701.171 161.381 702.897 162.238C704.624 163.095 706.278 164.99 705.505 166.752C704.841 168.273 702.728 168.731 702.04 170.252C701.364 171.737 702.475 173.548 703.96 174.223C705.445 174.912 707.159 174.803 708.789 174.73C711.832 174.61 714.898 174.73 717.929 175.044C718.689 175.129 719.462 175.213 720.223 175.286C720.814 177.603 719.088 179.848 717.24 181.381C711.397 186.209 703.658 187.911 696.233 189.456C690.776 190.591 684.811 186.378 684.063 180.85C680.598 180.79 677.435 182.818 674.935 185.208C672.436 187.598 670.372 190.434 667.716 192.655C664.033 195.721 659.361 197.483 655.872 200.779C652.238 204.219 648.229 207.236 643.919 209.783C640.599 211.751 637.11 213.428 634.031 215.746C630.952 218.063 628.26 221.141 627.318 224.883C626.413 228.492 627.161 232.512 625.447 235.807C620.762 244.799 610.186 248.578 601.385 253.647C600.576 254.118 599.743 254.625 599.2 255.397C598.922 255.796 598.729 256.254 598.56 256.713C597.364 259.875 596.712 263.231 596.628 266.611C596.592 268.095 596.7 269.677 597.57 270.884C598.97 272.827 601.699 273.056 603.908 273.974C606.118 274.891 607.977 277.957 606.154 279.502C605.164 280.335 606.274 281.989 607.518 282.387C608.762 282.785 610.259 282.773 611.08 283.787C612.275 285.272 610.947 287.396 609.667 288.796C607.313 291.379 603.799 294.204 600.721 292.526C596.809 290.39 592.209 289.521 587.79 290.1C585.943 283.944 589.65 276.774 586.631 271.101C584.748 267.552 580.57 265.657 576.55 265.524C573.266 265.416 570.079 263.557 568.376 260.745C568.111 260.31 567.857 259.827 567.398 259.598C567.181 259.489 566.94 259.441 566.698 259.429C561.325 258.958 559.092 267.166 553.84 268.349C549.18 269.399 545.497 264.535 541.103 262.664C537.819 261.264 534.004 261.589 530.671 262.833C527.339 264.076 524.369 266.14 521.496 268.252C515.543 272.622 515.193 281.204 512.199 287.951C511.149 290.317 509.736 292.514 508.71 294.88C504.786 303.981 507.587 315.641 515.519 321.592C523.451 327.53 535.802 326.77 542.612 319.576C544.773 317.295 546.355 314.518 548.492 312.213C550.616 309.895 553.562 308 556.701 308.29C559.828 308.58 562.678 311.911 561.519 314.832C558.669 322.062 549.626 325.551 547.224 332.938C546.946 333.795 561.398 337.102 562.714 337.344C567.978 338.309 567.338 342.244 566.843 347.097C566.131 353.977 567.748 361.062 571.37 366.952C572.831 369.33 574.715 371.6 577.274 372.722C578.977 373.471 580.884 373.664 582.744 373.676C590.277 373.712 597.992 370.972 605.188 373.181C606.274 373.519 607.409 373.965 608.508 373.676C609.884 373.326 610.705 371.962 611.466 370.767C614.569 365.842 618.915 361.702 623.974 358.817C625.121 358.165 626.992 357.839 627.379 359.107C627.427 359.276 627.439 359.445 627.451 359.614L628.139 370.706C628.236 372.179 627.886 374.195 626.413 374.291C624.674 374.4 624.397 371.624 625.519 370.296C627.125 368.377 630.156 367.846 632.317 369.113C632.353 369.137 632.389 369.161 632.425 369.186C635.866 371.225 640.068 371.334 644.064 371.394C647.915 371.455 651.755 371.503 655.606 371.563C662.669 371.672 669.72 371.781 676.783 371.889C678.497 371.913 680.272 371.926 681.817 371.213C683.375 370.501 684.618 368.823 684.28 367.146C684.003 365.806 682.65 364.78 681.286 364.864C679.922 364.949 678.714 366.144 678.618 367.508C678.497 369.21 679.849 370.634 681.141 371.744C696.885 385.372 718.061 391.842 732.851 406.507C733.479 407.123 734.119 407.811 734.252 408.68C734.566 410.708 732.139 411.927 730.195 412.603C717.953 416.828 707.666 425.217 696.317 431.457C675.563 442.876 650.378 446.931 627.608 440.365C614.593 436.611 600.721 435.851 587.38 438.168C586.788 438.265 586.184 438.385 585.689 438.711C585.013 439.146 584.627 439.906 584.277 440.619C582.466 444.276 580.607 448.223 581.21 452.254C581.585 454.753 582.864 457.01 584.18 459.159C587.042 463.794 590.205 468.248 593.646 472.472C596.918 476.48 596.604 482.201 597.932 487.198C599.574 493.378 603.763 498.508 607.844 503.421C608.098 507.272 611.104 509.613 614.448 511.532C621.825 515.745 630.107 519.439 634.611 526.645C635.516 528.081 636.241 529.638 636.941 531.183C639.633 537.158 642.072 543.785 640.442 550.146C639.585 553.501 637.617 556.917 638.74 560.201C639.054 561.142 639.621 561.975 640.056 562.868C642.06 566.876 641.649 571.607 641.601 576.085C641.468 586.743 643.593 597.414 647.807 607.203C648.507 608.832 649.28 610.558 648.93 612.297C647.976 617.077 647.01 621.856 646.056 626.636C644.74 633.191 643.545 640.493 647.058 646.178C649.461 650.077 653.807 652.648 655.642 656.849C657.9 662.039 658.202 668.05 656.475 673.433C656.149 674.447 655.751 675.473 655.799 676.548C655.908 679.046 658.262 680.724 660.049 682.474C663.007 685.395 664.77 689.487 664.854 693.639C664.878 695.028 664.758 696.536 665.506 697.707C665.905 698.347 666.532 698.806 667.16 699.216C670.951 701.69 675.865 702.777 678.509 706.446C679.523 707.858 680.115 709.548 681.129 710.96C682.566 712.964 684.848 714.328 687.287 714.642C689.436 714.92 691.971 714.545 693.432 716.151C694.277 717.08 694.47 718.432 695.219 719.446C695.955 720.448 697.126 721.015 698.285 721.486C705.517 724.431 713.655 725.083 721.261 723.321C721.937 723.164 722.637 722.971 723.144 722.512C724.122 721.643 724.098 720.037 723.446 718.903C722.794 717.768 721.671 716.996 720.573 716.296C715.502 713.037 710.117 710.248 704.527 707.979C702.052 706.977 699.517 706.06 697.331 704.527C695.158 702.994 693.335 700.701 693.07 698.045C692.744 694.895 694.579 691.974 695.798 689.053C697.235 685.613 697.827 681.545 696.124 678.238C695.303 676.644 694.023 675.341 693.154 673.783C692.285 672.226 691.899 670.162 692.937 668.714C693.166 668.388 693.468 668.11 693.734 667.821C696.257 665.117 696.885 661.037 696.124 657.404C695.364 653.771 693.384 650.536 691.222 647.53C693.082 646.432 695.146 645.708 697.283 645.382C698.153 641.845 699.022 638.308 699.891 634.784C700.314 633.082 701.956 631.887 703.67 631.489C705.384 631.09 707.171 631.332 708.91 631.573C710.504 631.79 712.085 632.02 713.679 632.237C714.367 632.334 715.152 632.394 715.671 631.935C717.832 627.662 718.822 622.858 718.822 618.054C718.822 616.944 718.822 615.688 719.631 614.94C719.909 614.675 720.271 614.506 720.621 614.361C724.75 612.671 729.797 613.842 733.612 611.536C735.399 610.45 736.691 608.736 737.922 607.046C743.85 598.886 749.549 590.292 752.084 580.527C753.291 575.88 753.762 571.016 755.465 566.525C758.085 559.633 762.407 552.644 769.385 550.279C773.007 549.047 777.003 549.204 780.601 547.877C782.267 547.261 783.813 546.332 785.141 545.161C786.662 543.821 786.71 541.503 786.626 539.476C786.227 530.314 785.515 520.501 790.163 512.595C790.61 511.822 791.117 511.086 791.479 510.277C793.435 505.98 791.419 500.862 792.578 496.287C794.003 490.614 799.701 487.331 803.891 483.239C810.447 476.83 813.694 467.21 812.378 458.145C812.016 455.622 809.601 453.884 807.199 453.039C804.796 452.194 802.176 451.904 799.919 450.721C794.172 447.704 792.783 440.317 791.008 434.076C790.852 433.509 790.67 432.93 790.357 432.435C788.727 429.876 784.815 430.805 782.038 432.048C778.162 433.775 774.287 435.501 770.423 437.227C767.405 438.567 763.88 439.918 760.934 438.446C758.29 437.13 757.082 433.992 754.764 432.169C751.517 429.61 746.844 430.105 742.884 431.264C738.924 432.423 734.904 434.125 730.811 433.569C728.179 433.207 725.317 431.264 725.571 428.608C725.668 427.522 726.283 426.556 726.875 425.639L732.924 416.309C736.304 415.186 736.63 412.47 739.274 410.08C741.713 407.871 745.214 407.352 748.498 407.111C776.11 405.047 803.794 415.258 831.225 411.468C848.514 409.078 864.982 401.003 877.441 388.776C889.901 376.549 898.292 360.241 900.996 343.005C890.891 343.946 880.653 343.488 870.68 341.641C869.461 341.411 867.952 340.844 867.916 339.601C867.795 334.483 862.917 329.981 857.81 330.258C857.798 332.938 859.73 335.34 862.096 336.607C864.463 337.875 867.203 338.225 869.871 338.466C877.719 339.178 885.639 339.154 893.487 338.406C898.715 337.911 901.999 332.286 902.614 327.072C903.23 321.857 902.083 316.546 902.795 311.344C904.655 297.885 917.791 289.315 925.095 277.86C932.387 266.43 934.415 251.161 945.221 242.965C954.3 236.085 966.736 236.423 977.735 233.429C985.836 231.22 993.671 227.032 1002.06 227.454C1008.75 227.792 1015.55 231.063 1021.9 228.963C1022.65 225.619 1027.48 224.099 1030 226.416C1032.76 228.951 1031.81 233.417 1032.5 237.111C1033.38 241.878 1037.67 245.801 1042.5 246.248C1045.22 246.501 1047.94 245.765 1050.68 245.632C1053.42 245.5 1056.5 246.188 1058 248.493C1058.81 249.724 1059.04 251.233 1059.6 252.597C1061.96 258.161 1069.03 259.598 1075.03 260.274C1077.45 260.551 1079.87 258.56 1080.08 256.146C1080.18 255.071 1079.89 253.973 1080.12 252.911C1080.86 249.435 1085.78 249.41 1089.24 250.195C1107.17 254.275 1125.57 257.884 1143.85 255.88C1145.84 255.663 1147.96 255.313 1149.39 253.913C1150.69 252.657 1151.16 250.798 1151.52 249.024C1152.52 244.087 1153.11 239.066 1153.29 234.021C1153.41 230.58 1152.33 226.018 1148.89 225.885C1146.68 225.801 1144.96 227.792 1143.91 229.748C1142.86 231.703 1142 233.936 1140.12 235.095C1138.24 236.254 1135 235.264 1135.12 233.055C1135.27 230.52 1133.35 228.022 1130.86 227.515C1128.37 227.008 1125.97 228.239 1123.51 228.746C1120.61 229.337 1117.54 228.891 1114.88 227.623C1109.97 225.294 1106.59 220.067 1106.47 214.647C1106.44 212.849 1106.71 211.002 1106.18 209.288C1104.87 205.088 1099.13 203.772 1095.09 205.534C1092.87 206.5 1090.75 208.576 1091.05 210.99C1091.12 211.473 1091.26 211.932 1091.43 212.39C1092.48 215.36 1094.01 218.353 1093.67 221.491C1093.34 224.63 1089.92 227.635 1087.14 226.139C1083.87 224.376 1085.24 219.319 1083.64 215.963C1082.41 213.38 1079.07 212.04 1076.4 213.042C1076.05 207.103 1075.96 201.153 1076.13 195.202C1069.78 193.657 1063.43 192.112 1057.09 190.567C1056.3 190.374 1055.45 190.144 1054.92 189.517C1054.51 189.034 1054.36 188.382 1054.18 187.779C1052.72 182.999 1047.59 179.631 1042.62 180.21C1041.92 180.295 1041.14 180.5 1040.78 181.104C1040.62 181.369 1040.58 181.671 1040.53 181.973C1040.01 185.739 1041.29 189.71 1043.91 192.462C1049.18 197.99 1058.72 198.159 1063.24 204.339C1067.08 209.602 1064.67 218.341 1058.53 220.514C1056.4 221.274 1054.07 221.286 1051.9 221.902C1049.73 222.517 1047.53 224.05 1047.25 226.295C1046.98 228.541 1049.84 230.774 1051.56 229.313C1056.8 224.28 1056.71 216.023 1056.24 208.769C1056.17 207.888 1056.01 206.826 1055.18 206.488C1050.46 204.557 1045.73 202.625 1041.01 200.694C1038.38 199.62 1035.51 198.316 1034.38 195.709C1033.6 193.898 1033.84 191.822 1033.51 189.879C1033.19 187.936 1031.86 185.811 1029.89 185.835C1028.33 185.859 1027.03 187.525 1027.37 189.046C1020.38 189.034 1012.8 183.928 1007 187.827C1003.44 190.229 1002.46 195.057 999.551 198.22C997.173 200.815 993.683 202.082 990.943 204.303C985.57 208.648 983.614 216.12 978.495 220.767C973.702 225.125 966.881 226.344 960.421 226.814C957.367 227.032 954.179 227.104 951.415 225.801C948.65 224.497 946.537 221.793 944.654 219.246C943.326 217.448 941.937 215.517 941.816 213.284C941.551 208.323 947.539 204.424 946.706 199.523C946.284 197.073 944.147 194.888 944.654 192.45C945.221 189.71 948.722 188.732 951.499 189.118C958.007 190.012 964.068 195.226 970.406 193.488C976.745 191.75 979.328 183.783 979.582 177.06C979.703 173.656 978.966 169.432 975.718 168.43C973.4 167.718 969.983 168.611 969.175 166.329C968.366 164.048 971.734 162.588 974.197 162.153C983.143 160.56 991.184 154.512 995.205 146.353C997.136 142.43 993.72 137.952 990.11 135.477C986.5 133.003 982.081 130.83 980.765 126.654C980.391 125.471 980.318 124.204 980.016 122.996C978.773 117.915 973.183 114.33 968.04 115.32L967.098 125.893C966.893 128.211 964.49 129.756 962.196 130.094C959.902 130.432 957.56 129.937 955.23 130.058C950.835 130.275 946.489 132.967 944.955 137.083C943.374 141.331 945.233 146.594 949.133 148.912C953.032 151.229 958.55 150.324 961.508 146.896C963.838 144.204 964.526 140.462 966.446 137.469C968.366 134.475 972.809 132.351 975.404 134.801C978.024 137.276 976.25 141.633 974.209 144.615C972.169 147.596 969.983 151.591 972.133 154.488C980.258 154.947 988.649 154.525 996.098 151.253C998.923 150.01 1001.56 148.393 1004.18 146.775C1008.4 144.168 1012.64 141.549 1016.86 138.942C1019.1 137.566 1021.33 136.189 1023.56 134.801C1023.88 134.608 1024.2 134.403 1024.43 134.101C1027.54 134.101 1030.64 134.101 1033.75 134.101C1036.28 134.463 1037.56 130.287 1035.49 128.802C1033.43 127.318 1030.16 129.044 1029.67 131.542C1029.19 134.041 1030.94 136.588 1033.26 137.662C1035.58 138.736 1038.27 138.579 1040.76 138C1043.24 137.421 1045.61 136.431 1048.09 135.852C1052.89 134.729 1057.91 135.2 1062.83 135.67C1065.83 135.96 1069.64 135.827 1070.89 133.075C1072.06 130.528 1070.13 127.269 1071.48 124.819C1073.84 120.57 1081.44 124.674 1084.95 121.295C1086.31 119.967 1084.28 117.77 1082.4 117.48C1080.51 117.191 1078.17 117.335 1077.19 115.694C1076.31 114.233 1077.32 112.218 1078.82 111.421C1080.33 110.624 1082.13 110.697 1083.83 110.781L1096.31 111.457C1097.45 111.517 1098.67 111.566 1099.66 110.986C1100.65 110.407 1101.21 108.959 1100.46 108.089C1096.93 105.217 1092.5 103.479 1087.96 103.201C1084.25 102.972 1079.63 103.249 1077.82 100.002C1074.62 94.2808 1085.15 86.9299 1081.11 81.7638C1078.84 78.8669 1073.97 80.2308 1071.51 82.9708C1069.05 85.7108 1067.79 89.3923 1065.15 91.9512C1062.33 94.6792 1057.65 97.0088 1058.41 100.847C1059.22 104.903 1065.99 106.713 1064.99 110.721C1064.12 114.209 1057.73 115.151 1058.55 118.639C1059.05 120.715 1058.66 123.129 1057.06 124.541C1055.63 125.773 1053.62 125.978 1051.74 126.123C1049.41 126.304 1047.01 126.473 1044.78 125.761C1042.54 125.048 1040.5 123.25 1040.24 120.92C1039.78 116.853 1034.71 114.064 1031.03 115.863C1030.93 114.801 1030.85 113.738 1030.75 112.676C1028.9 111.457 1026.57 110.986 1024.39 111.397C1022.33 111.783 1020.34 112.918 1018.28 112.592C1014.68 112.036 1013.23 107.739 1012.49 104.179C1011.87 101.125 1011.43 97.4312 1013.75 95.343C1015.09 94.1239 1017.01 93.8342 1018.77 93.4601C1027.8 91.5529 1036.01 85.9643 1041.1 78.2513C1052.37 61.1595 1070.68 49.8616 1091.15 49.8495C1094.98 49.8495 1099.05 50.3082 1102.04 52.686C1102.54 53.0844 1103 53.5189 1103.47 53.9293C1113.04 62.2458 1128.33 58.6609 1139.51 64.6479C1142.06 66.0239 1144.64 68.9691 1143.22 71.516C1135.45 72.1195 1127.69 72.7109 1119.91 73.3145C1117.04 73.5317 1116.29 77.9133 1118.2 80.0618C1120.1 82.2104 1123.25 82.6449 1126.12 82.9467C1134.42 83.8158 1144.26 84.0692 1149.41 77.4908C1151.35 75.0164 1152.33 71.8177 1154.58 69.6209C1159.67 64.6841 1167.99 67.0982 1175.06 66.5791C1179.41 66.2532 1183.55 64.6961 1187.76 63.5857C1202.81 59.6024 1218.71 61.3164 1234.17 63.0546C1234.72 60.6405 1235.26 58.2143 1235.81 55.8002C1236.66 52.0705 1230.37 48.389 1232.84 45.4679C1238.7 44.792 1244.63 44.7437 1250.51 45.2989C1251.91 45.4317 1253.68 45.9749 1253.74 47.3871C1253.83 49.3425 1255.64 50.8996 1257.56 51.31C1259.48 51.7204 1261.47 51.2255 1263.34 50.622C1267.93 49.1494 1272.3 47.0009 1276.27 44.2729C1276.9 43.8384 1277.55 43.3797 1278.31 43.2952C1287.8 42.2934 1294.77 32.5405 1304.31 32.0938C1309.35 31.8524 1314.76 34.2907 1319.28 32.0094C1320.03 31.6352 1320.7 31.1403 1321.38 30.6575C1325.97 27.3381 1331.22 23.8497 1336.81 24.7309C1339.72 25.1895 1342.3 26.807 1345.13 27.6519C1346.95 28.1951 1348.84 28.4124 1350.73 28.6296C1358.58 29.5349 1366.42 30.4281 1374.27 31.3334C1374.75 33.5423 1372.46 35.2563 1370.53 36.4392C1368.6 37.6221 1366.5 39.7586 1367.47 41.7864C1371.88 41.4243 1376.3 41.1346 1380.72 40.9053C1395.33 40.169 1409.69 45.9869 1424.29 45.0937C1428.84 44.8161 1433.49 43.8988 1437.89 45.0937C1443.51 46.6267 1447.92 51.4186 1453.65 52.4205C1461.08 53.712 1468.68 53.9776 1476.18 53.1809C1477.72 53.024 1479.31 52.7826 1480.58 51.9135C1482.59 50.5254 1483.57 47.6647 1485.95 47.0733C1494.94 44.8523 1504.53 45.0575 1513.42 47.6768C1517.27 48.8114 1520.97 50.3806 1524.84 51.4549C1527.23 52.1187 1529.67 52.6016 1532.11 53.0844C1546.03 55.8123 1560.08 58.5644 1574.27 58.1178C1579.07 57.9729 1583.86 57.4539 1588.67 57.2487C1598.88 56.8021 1609.17 57.7436 1619.14 60.037L1619.83 57.0676C1632.16 61.3647 1645.18 63.6581 1658.24 63.8271C1661.6 63.8754 1665.15 63.8271 1668.1 65.4566C1678.1 71.0211 1688.9 76.5131 1700.32 75.7406C1700.26 78.1547 1701.19 80.5809 1702.86 82.3311C1697.9 85.0711 1691.75 84.4072 1686.31 82.826C1680.86 81.2448 1675.62 78.8065 1669.98 78.1426C1671.46 85.3366 1677.73 91.2874 1685 92.3737C1685.99 93.9187 1684.54 95.9948 1682.82 96.6104C1681.09 97.226 1679.18 96.9726 1677.38 97.3226C1673.57 98.083 1670.9 101.39 1667.89 103.841C1664.89 106.291 1660.14 107.884 1657.33 105.205C1653.39 101.451 1646.09 102.32 1643.14 106.882C1646.74 117.553 1660.59 122.26 1663.83 133.051C1664.09 133.956 1664.27 134.97 1663.83 135.791C1663.04 137.215 1660.86 137.288 1659.96 138.652C1658.4 141.018 1662.14 143.492 1662.56 146.292C1662.86 148.356 1661.13 150.312 1659.12 150.891C1657.1 151.471 1654.95 150.976 1652.98 150.264C1642.29 146.389 1634.95 136.443 1630.06 126.171C1628.57 123.045 1627.23 119.424 1628.55 116.225C1628.97 115.187 1629.66 114.282 1630.29 113.352C1632.6 109.936 1634.4 105.82 1633.67 101.752C1632.93 97.6847 1628.83 94.0877 1624.84 95.1499C1626.01 97.383 1623.67 100.123 1621.17 100.449C1618.67 100.775 1616.26 99.6039 1613.89 98.7228C1611.52 97.8416 1608.7 97.2985 1606.61 98.7107C1603.13 101.064 1604.12 107.039 1600.8 109.61C1598.51 111.385 1595.18 110.721 1592.57 109.478C1589.96 108.234 1587.47 106.46 1584.6 106.17C1579.61 105.675 1575.49 109.659 1571.59 112.809C1570.39 113.775 1568.74 114.728 1567.42 113.944C1565.61 112.857 1563.1 113.123 1561.55 114.571C1559.84 116.177 1559.5 118.724 1559.27 121.053L1558.67 127.052C1558.4 129.635 1560.19 132.086 1562.45 133.377C1564.7 134.669 1567.35 135.055 1569.93 135.381C1577.92 136.395 1585.94 137.179 1593.97 137.734C1596.88 144.506 1598.06 152.026 1597.39 159.365C1594.97 160.717 1592.29 157.409 1592.58 154.657C1592.89 151.712 1595.19 149.081 1598.05 148.356C1603.47 146.98 1608.34 151.905 1611.37 156.613C1613.01 159.16 1614.54 161.887 1614.95 164.893C1615.24 167.054 1614.95 169.335 1615.83 171.327C1617.75 175.744 1624.1 176.432 1626.76 180.452C1628.16 182.588 1628.25 185.509 1626.97 187.718C1629.2 189.505 1632.3 189.553 1635.05 190.301C1637.81 191.05 1640.74 193.343 1640.17 196.143L1630.64 199.74C1629.9 203.977 1629.83 209.53 1633.79 211.207C1634.9 211.678 1636.37 211.92 1636.71 213.066C1638.22 218.257 1639.73 223.435 1641.24 228.625C1641.48 229.446 1641.72 230.291 1641.74 231.148C1641.83 234.938 1637.82 237.449 1634.17 238.45C1630.53 239.452 1626.37 239.983 1623.91 242.856C1622.7 244.268 1621.38 245.765 1619.59 246.272C1617.8 246.779 1615.46 245.777 1615.29 243.918C1615.25 243.448 1615.35 242.977 1615.27 242.506C1614.94 240.756 1612.27 240.551 1610.97 241.758C1609.66 242.965 1609.29 244.836 1608.69 246.501C1606.91 251.402 1602.47 255.24 1597.35 256.291C1593.96 255.071 1592.45 250.847 1593.1 247.298C1593.75 243.749 1596.01 240.744 1598.21 237.871C1599.96 235.59 1601.7 233.296 1603.45 231.015C1607.3 225.982 1615.82 230.001 1621.46 227.092C1624.84 225.354 1626.46 221.491 1627.79 217.919C1629.38 213.597 1630.24 207.441 1626.04 205.558C1623.36 204.363 1620.69 203.168 1618.01 201.973C1617.22 201.623 1616.37 201.213 1616.03 200.416C1615.51 199.221 1616.39 197.942 1617.01 196.795C1619.91 191.4 1617.1 184.749 1613.71 179.643C1610.32 174.537 1606.13 169.335 1606.22 163.203L1598.21 162.648C1596.54 162.527 1594.69 162.467 1593.43 163.541C1591.57 165.11 1592.05 168.164 1593.33 170.24C1594.61 172.316 1596.53 174.042 1597.29 176.348C1598.33 179.51 1596.98 182.902 1595.65 185.956C1593.9 189.975 1590.77 194.767 1586.47 193.862C1582.68 193.053 1580.23 197.701 1579.18 201.43C1578.31 204.52 1577.44 207.598 1576.56 210.688C1575.26 215.287 1579.93 219.21 1584.06 221.612C1588.19 224.014 1593.02 227.539 1592.23 232.246C1591.63 235.831 1587.58 238.1 1583.97 237.69C1580.36 237.28 1577.26 234.841 1574.97 232.029C1572.67 229.217 1570.98 225.945 1568.8 223.036C1565.45 218.582 1560.97 214.985 1555.89 212.704C1554.96 212.282 1553.97 211.907 1552.94 211.98C1551.07 212.113 1549.52 213.766 1547.63 213.718C1543.65 213.621 1543.2 206.85 1539.39 205.715C1537.64 205.196 1535.73 206.114 1534.45 207.429C1532.03 209.904 1531.27 213.839 1532.59 217.025C1533.9 220.212 1537.21 222.481 1540.67 222.542C1544.55 222.614 1548.43 222.686 1552.32 222.759C1550.48 227.539 1547.35 231.812 1543.33 234.998C1543.06 235.216 1542.78 235.433 1542.57 235.698C1541.14 237.533 1543.44 239.947 1545.47 241.118C1549.66 243.556 1553.85 245.982 1558.05 248.421C1561.6 250.485 1565.36 252.754 1567.09 256.472C1568.83 260.189 1567.3 265.669 1563.27 266.43C1561.89 266.683 1560.12 266.019 1560.02 264.619C1557.85 263.424 1558.88 261.843 1560.22 261.336C1561.56 260.829 1563.05 261.07 1564.46 261.336C1576.44 263.533 1588.42 265.73 1600.38 267.914C1651.34 277.257 1703.69 274.565 1755.28 279.393C1787.32 282.387 1820.4 288.181 1851.08 278.464C1862.23 274.939 1873.87 273.081 1885.11 269.894C1894.47 267.226 1903.9 264.559 1913.6 263.557C1918.67 263.038 1923.78 262.965 1928.87 262.893C1954.45 262.519 1980.09 261.819 2005.57 264.076C2015.15 264.921 2024.72 266.188 2034.01 268.675C2040.38 270.377 2046.59 272.646 2052.91 274.517C2070.03 279.574 2087.93 281.687 2105.78 282.061C2115.68 282.266 2125.67 281.94 2135.28 279.587C2149.74 276.062 2162.7 268.168 2175.38 260.382" stroke="#16EEDC" stroke-miterlimit="10"/>
<path d="M811.074 65.3483C802.176 67.5934 799.291 73.7011 795.705 81.2934C795.451 90.3945 798.614 98.18 798.892 98.8318C799.206 99.5077 799.785 99.906 800.184 100.184C800.655 100.304 801.126 100.401 808.333 101.994C815.915 101.837 823.051 99.9543 825.647 99.2663C828.242 98.3248 830.343 96.6229 832.83 94.6192C834.412 91.7343 836.307 89.1633 840.859 82.9953C847.56 78.4448 854.973 76.4894 860.14 75.1375C865.682 74.9806 870.487 72.6268 874.145 70.8404C877.163 67.8711 880.918 66.2898 888.235 63.1998C896.795 65.8915 904.498 63.9119 909.049 62.7411C913.07 59.977 916.317 56.5852 916.921 55.9696C917.537 55.2091 917.428 54.3521 917.223 52.7951C915.086 52.5657 913.528 52.7468 910.136 53.1451C906.743 53.5434 903.351 53.9538 908.578 47.7858C914.929 42.5834 921.992 38.6605 925.952 35.7636C931.783 35.0877 934.041 30.7423 934.983 28.9318C935.091 26.7711 936.057 24.9726 936.516 24.1398C937.144 23.4156 937.772 22.6913 940.331 19.7461C942.915 16.7647 946.102 14.4955 949.277 12.2262C953.153 10.6933 957.041 11.0433 957.041 11.0433C957.536 12.9263 955.725 14.7731 953.805 15.0749C951.885 15.3766 949.978 14.5921 948.191 13.8437C943.325 11.8038 938.424 9.84837 933.329 8.50854C927.666 7.02388 921.762 6.66176 915.919 6.29965C911.114 6.00996 906.321 5.72027 901.515 5.43058C891.953 4.8512 882.198 4.28388 872.926 6.72212C871.404 7.12044 869.907 7.60326 868.398 8.06194C857.689 11.3572 846.304 12.3952 835.172 11.1399C828.918 10.1984 822.689 8.79824 816.362 8.81031C812.595 8.81031 808.768 9.37762 805.267 10.7778C801.766 12.178 799.81 14.9421 796.671 16.5475C789.258 20.3376 780.263 19.6616 772.282 21.2791C770.544 21.6291 768.757 22.124 767.465 23.3431C766.173 24.5623 765.594 26.6867 766.62 28.1351C767.163 28.8955 768.033 29.3301 768.902 29.6681C775.446 32.1425 782.678 29.4508 789.668 29.0766C792.469 28.9318 795.463 29.2335 797.697 30.9234C798.264 31.3458 798.759 31.8528 799.254 32.3598C804.482 37.8277 808.599 44.3578 811.279 51.4311C812.161 53.7607 812.897 56.2834 812.414 58.7337L811.11 65.3604L811.074 65.3483Z" stroke="#16EEDC" stroke-miterlimit="10"/>
<path d="M616.5 303.245C617.563 302.919 618.009 301.7 618.299 300.626C618.915 298.405 619.531 296.184 620.146 293.963C620.243 293.625 620.339 293.275 620.376 292.925C620.533 291.609 619.844 290.233 618.71 289.557C617.575 288.881 616.041 288.929 614.955 289.69C614.774 289.822 614.593 289.967 614.448 290.136C614.182 290.462 614.025 290.848 613.892 291.247C612.987 293.89 613.023 296.847 613.977 299.479C614.75 301.591 616.307 303.607 618.504 304.078C619.337 304.259 620.219 304.198 621.064 304.307C621.909 304.416 622.802 304.778 623.237 305.514C623.635 306.202 623.539 307.083 623.213 307.82C622.887 308.556 622.368 309.159 621.885 309.799C621.004 310.97 620.279 312.249 619.712 313.601C619.168 314.917 618.806 316.51 619.615 317.681C620.352 318.743 621.764 319.045 623.044 319.19C630.071 319.962 637.17 318.417 644.221 318.936C644.45 318.948 644.691 318.973 644.885 319.105C645.5 319.516 645.138 320.445 644.993 321.169C644.703 322.666 645.778 324.163 647.154 324.815C648.531 325.467 650.124 325.454 651.634 325.346C653.143 325.237 654.7 325.032 656.185 325.358C658.624 325.889 660.966 327.784 663.345 327.024C664.637 326.601 665.554 325.479 666.677 324.694C668.729 323.27 671.434 323.089 673.873 323.632C676.311 324.175 678.533 325.382 680.73 326.565C682.698 327.627 684.835 328.895 685.535 331.019C686.115 332.793 686.598 334.676 686.32 336.523C686.139 337.718 685.668 338.853 685.475 340.048C685.282 341.243 685.475 342.607 686.381 343.403C686.96 343.91 687.745 344.103 688.445 344.429C689.145 344.755 689.858 345.286 689.942 346.059C690.075 347.302 688.53 348.316 688.807 349.535C689.049 350.597 690.425 350.851 691.512 350.996C693.794 351.297 696.015 352.106 697.959 353.349C698.707 353.82 699.492 354.568 699.311 355.437C699.082 356.56 697.548 356.717 696.401 356.645C694.47 356.524 692.538 356.512 690.618 356.5C688.01 356.488 685.101 356.584 683.278 358.455C682.396 359.36 681.744 360.676 680.513 360.93C679.945 361.038 679.366 360.893 678.811 360.748C676.601 360.157 674.09 359.336 673.221 357.212C673.088 356.886 673.003 356.512 673.124 356.174C673.233 355.884 673.474 355.679 673.716 355.486C675.72 353.88 678.002 352.625 680.428 351.78C681.237 351.503 682.119 351.237 682.638 350.549C683.338 349.607 683.06 348.231 682.384 347.266C681.708 346.3 680.718 345.612 679.897 344.791C679.076 343.971 678.352 342.86 678.485 341.701C678.593 340.736 678.702 339.758 678.811 338.792C677.458 338.985 676.118 339.179 674.766 339.36C673.45 339.541 672.037 339.686 670.842 339.106C669.128 338.273 668.403 336.209 668.15 334.314C667.896 332.419 667.92 330.415 667.015 328.726C666.858 328.424 666.641 328.122 666.327 328.001C665.796 327.796 665.228 328.17 664.757 328.508C660.906 331.248 655.714 331.997 651.235 330.476C650.957 330.379 650.668 330.271 650.487 330.029C650.293 329.776 650.269 329.45 650.124 329.172C649.871 328.689 649.316 328.46 648.796 328.267L645.114 326.903C644.667 326.734 644.196 326.565 643.726 326.649C643.472 326.686 643.23 326.794 643.013 326.927C641.77 327.615 640.852 328.798 639.572 329.414C638.401 329.969 637.073 329.993 635.781 330.005C629.189 330.065 622.609 330.126 616.017 330.186C615.51 330.186 615.088 329.715 614.991 329.208C614.894 328.701 615.015 328.194 615.148 327.687C615.534 326.239 616.283 324.513 617.768 324.428C618.118 324.404 618.48 324.489 618.806 324.368C619.132 324.247 619.374 323.801 619.132 323.547L616.295 320.675C616.126 320.506 615.945 320.325 615.703 320.24C615.583 320.204 615.462 320.192 615.341 320.18C613.603 320.047 611.852 320.228 610.186 320.735C609.787 320.856 609.377 321 609.063 321.29C608.532 321.761 608.387 322.521 608.266 323.221C608.133 324.03 607.988 324.839 607.856 325.636C607.675 326.71 606.564 327.325 605.538 327.7C602.688 328.726 599.573 328.991 596.603 328.448C595.951 328.327 595.179 328.062 595.034 327.41C594.406 324.573 596.169 321.411 598.909 320.457C599.296 320.325 599.73 320.204 599.996 319.878C600.431 319.323 600.117 318.514 599.73 317.922C598.161 315.557 595.662 314 593.235 312.515C592.003 311.767 590.748 311.006 589.335 310.68C588.502 310.487 587.645 310.463 586.8 310.451C583.419 310.403 580.039 310.608 576.67 310.511C575.258 310.475 573.821 310.378 572.493 309.896C571.43 309.509 570.477 308.894 569.535 308.278C568.485 307.602 568.316 306.045 568.847 304.911C569.378 303.776 570.428 302.979 571.479 302.303C575.04 299.974 579.025 298.308 583.19 297.427C584.675 297.113 586.22 296.896 587.717 297.149C596.338 298.646 603.944 303.655 612.407 305.876C613.108 306.057 613.844 306.226 614.556 306.057C615.45 305.852 616.138 305.164 616.778 304.5C617.913 303.317 619.06 302.146 620.195 300.963" stroke="#16EEDC" stroke-miterlimit="10"/>
<path d="M1564.78 288.217L1570.31 287.191C1572.83 291.234 1575.47 295.845 1574.41 300.505C1573.35 305.152 1566.32 308.037 1563.74 304.029C1561.49 300.553 1563.95 294.433 1560.21 292.647C1557.04 291.138 1551.93 292.019 1551.83 295.532C1551.8 296.763 1552.46 297.946 1552.42 299.177C1552.35 301.434 1549.97 303.003 1547.73 303.245C1545.48 303.486 1543.22 302.846 1540.97 302.762C1533.02 302.472 1526.62 308.894 1521.32 314.82C1518.92 317.512 1516.36 321.217 1518.05 324.392C1514.89 324.018 1511.73 323.632 1508.56 323.257C1509.32 327.494 1504.75 331.719 1500.58 330.632C1498.89 322.859 1504.23 314.241 1511.94 312.285C1512.52 312.14 1513.25 312.08 1513.6 312.563C1516.52 316.643 1518.84 321.145 1520.48 325.877C1520.86 327.011 1521.23 328.206 1521.03 329.389C1520.82 330.705 1519.97 331.803 1519.26 332.938C1515.93 338.213 1515.5 345.201 1518.16 350.838C1519.27 353.192 1520.89 355.353 1521.54 357.875C1522.75 362.607 1520.15 367.652 1516.39 370.767C1512.62 373.881 1507.85 375.45 1503.2 376.947C1497.17 366.24 1488.39 357.091 1477.94 350.621C1472.58 353.385 1473.59 361.629 1469.77 366.313C1468.18 368.256 1465.81 369.487 1464.35 371.515C1460.2 377.273 1465.33 385.143 1470.77 389.705C1476.22 394.268 1482.92 399.531 1482.18 406.592C1482.04 407.968 1481.63 409.477 1482.36 410.647C1482.73 411.215 1483.29 411.601 1483.86 411.975C1487.74 414.534 1491.61 417.105 1495.49 419.664C1498.35 413.846 1497.59 406.7 1494.69 400.907C1491.78 395.113 1486.96 390.478 1481.78 386.567C1480.75 385.782 1479.69 385.022 1478.73 384.165C1475.52 381.304 1476.42 376.223 1476.6 371.938C1476.79 367.653 1475.95 363.476 1473.48 360.157C1471 356.837 1466.68 354.725 1462.64 355.606L1463.07 335.183C1459.85 333.409 1455.95 335.28 1452.58 336.728C1449.21 338.176 1444.54 338.889 1442.5 335.835C1441.82 334.833 1441.6 333.602 1441.28 332.443C1439.7 326.697 1435.55 322.074 1432.1 317.21C1428.65 312.346 1425.68 306.443 1426.97 300.625C1417.42 298.235 1408.03 305.405 1402.37 313.468C1396.7 321.531 1392.84 331.067 1385.35 337.464C1383.45 339.094 1381.31 340.506 1379.7 342.425C1377.25 345.334 1376.2 349.148 1375.22 352.818C1374.05 357.187 1372.88 361.69 1373.43 366.18C1373.97 370.67 1376.64 375.209 1380.95 376.597C1382.4 377.055 1384.05 377.2 1385.15 378.238C1387.58 380.52 1385.33 384.612 1382.69 386.639C1380.04 388.667 1376.62 390.804 1376.7 394.135C1376.79 398.891 1383.33 400.05 1388.07 399.712C1390.88 399.506 1392.97 396.839 1393.61 394.087C1395.4 386.446 1388.3 379.023 1380.61 377.466C1372.92 375.909 1365.06 378.516 1357.63 381.087C1354.27 375.595 1352.94 368.884 1353.98 362.535C1356.32 348.171 1335.95 338.237 1336.8 323.704C1336.99 320.336 1338.36 317.101 1338.34 313.722C1338.32 310.342 1336.07 306.516 1332.7 306.624C1328.24 306.781 1324.67 313.541 1320.83 311.259C1317.32 309.171 1320.35 302.991 1317.66 299.925C1316.56 298.67 1314.8 298.308 1313.25 297.704C1308.46 295.857 1304.98 290.993 1304.79 285.863C1288.63 287.613 1272.44 289.11 1256.24 290.353C1257.23 286.744 1257.87 282.085 1254.77 279.973C1249.65 276.484 1241.23 284.704 1237.2 279.997C1233.97 276.231 1230.74 272.465 1227.51 268.711C1224.27 264.957 1220.17 260.926 1215.35 261.807C1214.85 261.903 1214.36 262.048 1213.92 262.326C1211.75 263.738 1212.72 267.069 1213.92 269.363C1216.33 273.974 1219.91 279.273 1225.09 278.85C1225.84 281.119 1222.15 282.302 1221.33 284.547C1220.18 287.674 1224.71 289.532 1228 290.003C1231.3 290.474 1235.49 293.612 1233.3 296.123L1249.46 297.064L1250.62 288.808C1250.97 292.912 1254.36 296.256 1258.17 297.801C1261.99 299.346 1266.23 299.43 1270.36 299.503C1272.87 302.255 1271.67 306.793 1269.38 309.726C1267.08 312.66 1263.87 314.856 1261.99 318.079C1260.21 321.109 1259.8 324.754 1258.42 327.977C1257.03 331.2 1253.92 334.254 1250.46 333.638C1248.18 333.228 1246.02 334.676 1244.11 336.016C1233.98 343.137 1223.05 349.124 1211.59 353.856C1209.88 354.556 1208.09 355.256 1206.25 355.16C1202.67 354.991 1199.87 351.973 1198.22 348.798C1196.56 345.624 1195.65 342.063 1193.58 339.142C1190.74 335.123 1186.02 332.648 1183.51 328.411C1181.25 324.597 1181.09 319.841 1178.9 315.979C1175.04 309.123 1165.33 305.803 1164.3 298.006C1163.98 295.507 1164.61 292.731 1163.22 290.631C1162.69 289.822 1161.9 289.219 1161.16 288.579C1156.49 284.547 1153.28 278.862 1152.25 272.779C1151.94 270.92 1151.77 268.916 1150.59 267.456C1148.1 264.366 1142.57 266.043 1140.86 269.616C1139.14 273.189 1140.21 277.474 1141.82 281.083C1144.58 287.227 1148.87 292.671 1154.22 296.763C1157.23 299.056 1160.85 301.386 1161.41 305.128C1161.55 306.141 1161.45 307.167 1161.41 308.193C1160.87 318.127 1165.04 328.218 1172.42 334.881C1175.44 337.609 1179.08 339.975 1180.61 343.729C1181.46 345.805 1181.56 348.11 1182.2 350.259C1184.36 357.441 1191.9 361.34 1198.78 364.309C1205.86 367.363 1213.96 370.284 1221.04 367.23C1223.4 366.216 1225.48 364.575 1227.88 363.633C1230.28 362.692 1233.33 362.607 1235.14 364.442C1237.41 366.723 1236.62 370.549 1235.34 373.495C1231.7 381.823 1225.29 388.764 1221.98 397.237C1220.72 400.436 1219.94 403.816 1218.65 407.002C1213.72 419.061 1202.21 426.894 1191.59 434.426C1180.96 441.958 1169.93 450.915 1166.9 463.589C1166.67 464.554 1166.49 465.556 1166.62 466.534C1166.8 467.874 1167.55 469.056 1168.24 470.227C1173.26 478.749 1175.76 488.731 1175.35 498.605C1175.24 501.176 1174.92 503.843 1173.56 506.028C1171.05 510.096 1165.53 511.713 1163.42 516.011L1155.97 531.183C1154.57 534.044 1153.15 536.953 1152.62 540.091C1152.29 542.059 1152.31 544.05 1152.3 546.042C1152.27 554.672 1151.48 563.29 1149.98 571.788C1149.2 576.23 1147.97 581.034 1144.33 583.702C1141.15 586.043 1136.02 587.069 1135.61 591.004C1135.05 596.303 1131.62 601.204 1126.84 603.533C1124.51 604.668 1121.95 605.211 1119.43 605.742C1104.83 608.808 1090.22 611.886 1075.62 614.952C1071.54 615.809 1069.66 610.196 1068.86 606.104C1067.11 597.003 1062.01 588.578 1054.76 582.808C1053.47 581.77 1051.96 580.563 1051.97 578.91C1052.01 566.996 1056.09 554.105 1050.19 543.748C1046.85 537.894 1040.54 533.452 1039.65 526.777C1039.12 522.83 1040.65 518.944 1041.9 515.166C1048.58 495.129 1048.01 472.774 1040.33 453.099C1038.75 449.056 1036.51 444.759 1032.44 443.262C1030.08 442.393 1026.58 441.512 1027.09 439.061L1029.36 428.162C1030.41 423.152 1031.45 417.914 1030.08 412.977C1028.72 408.04 1024.16 403.586 1019.07 404.19C1017.47 409.284 1019.48 414.764 1019.33 420.111C1019.17 425.458 1014.56 431.638 1009.6 429.658C1014.45 425.917 1019.28 421.994 1022.73 416.924C1026.18 411.855 1028.1 405.445 1026.55 399.519C1023.14 395.402 1017.41 394.002 1012.07 393.882C1006.73 393.761 1001.36 394.642 996.05 394.014C993.635 393.725 991.269 393.133 988.89 392.663C978.821 390.683 968.305 390.948 958.344 393.447C952.513 394.908 946.815 397.129 940.814 397.611C932.93 398.251 924.841 395.68 918.768 390.635C908.506 382.113 903.572 357.878 900.602 344.878" stroke="#16EEDC" stroke-miterlimit="10"/>
<path d="M1600.43 366.24C1604 366.035 1606.83 362.052 1605.84 358.612C1601.1 357.393 1596.08 357.32 1591.31 358.407C1594.39 355.715 1593.79 349.982 1590.21 348.002C1587.68 346.59 1584.01 346.698 1582.68 344.115C1581.93 342.643 1582.33 340.88 1582.66 339.251C1583.48 335.195 1583.68 330.741 1581.61 327.156C1579.53 323.571 1574.48 321.519 1571.05 323.825C1567.11 333.119 1569.69 344.791 1577.21 351.527C1578.39 352.589 1579.69 353.542 1580.68 354.786C1582.67 357.32 1578.56 360.748 1579.17 363.911C1580.11 368.836 1588.96 365.782 1592.11 369.681C1591.53 373.531 1590.95 377.369 1590.37 381.22C1593.69 381.027 1596.58 384.769 1595.55 387.931C1594.77 386.217 1591.82 388.088 1592.35 389.899C1592.88 391.709 1594.95 392.506 1596.76 393.037C1599.04 393.713 1601.31 394.389 1603.59 395.077L1608.59 396.562C1618.66 385.771 1611.2 372.541 1600.43 366.228V366.24Z" stroke="#16EEDC" stroke-miterlimit="10"/>
<path d="M1564.82 409.887C1566.91 406.121 1569.07 402.066 1568.72 397.781C1568.37 393.496 1564.3 389.235 1560.15 390.418C1555.36 391.77 1554.08 398.807 1549.32 400.291C1547.1 400.991 1544.63 400.255 1542.4 400.955C1536.67 402.742 1536.51 412.12 1530.84 414.112C1527.86 415.162 1523.45 414.233 1522.35 417.202C1522.14 417.745 1522.12 418.337 1522.1 418.904C1521.83 425.229 1521.82 432.29 1526.13 436.937C1529.26 440.305 1533.96 441.596 1538.41 442.743C1543.67 444.095 1548.94 445.447 1554.2 446.799C1557.48 447.644 1560.51 444.385 1561.39 441.114C1562.28 437.842 1561.95 434.294 1563.07 431.083C1564.2 427.872 1567.82 425.048 1570.85 426.581C1568.7 422.742 1566.56 418.904 1564.81 409.887H1564.82Z" stroke="#16EEDC" stroke-miterlimit="10"/>
<path d="M1632.75 429.755C1633.42 433.509 1634.08 437.179 1638.74 438.289C1642.46 438.603 1641.26 441.995 1640.07 445.387C1638.87 448.778 1647.28 448.513 1655.76 450.758C1662.94 455.152 1665.36 456.624 1667.92 459.449C1666.53 461.923 1665.72 463.335 1663.97 463.842C1662.73 464.892 1661.48 465.943 1661.17 468.453C1662.75 468.803 1667.56 469.841 1672.51 470.131C1677.4 469.648 1680.11 476.999 1691.55 478.942C1696.54 472.919 1697.86 471.326 1700.27 469.262C1701.45 470.964 1707.41 479.63 1717.31 485.46C1727.78 486.474 1729.84 486.667 1732.72 485.907C1732.5 483.843 1732.43 483.083 1731.89 482.455C1731.35 481.924 1727.63 478.327 1722.34 476.975C1717.76 474.585 1713.17 472.183 1708.79 467.644C1709.69 462.551 1710.07 460.475 1711.27 458.604C1711.41 456.503 1711.72 451.748 1711.72 451.748C1706.71 448.585 1702.36 446.654 1690.37 441.319C1684.08 439.062 1677.55 436.478 1671.02 435.006C1664.49 433.533 1663.62 434.921 1658.11 438.289C1655.62 439.822 1651.99 440.498 1650.03 438.325C1649.46 437.71 1649.12 436.925 1648.76 436.177C1647.14 432.737 1644.85 429.2 1641.21 428.053C1637.58 426.907 1632.75 429.755 1632.75 429.755Z" stroke="#16EEDC" stroke-miterlimit="10"/>
<path d="M1546.52 469.334L1546.41 470.782C1546.27 472.678 1548.3 474.017 1549.96 473.088C1550.87 472.581 1551.75 471.7 1552.77 470.746C1553.64 469.95 1555.04 470.444 1555.23 471.603L1555.83 475.55C1555.42 475.997 1555.9 476.697 1556.46 476.456L1563.05 473.607C1563.82 473.269 1564.67 473.824 1564.72 474.669C1564.86 476.975 1567.37 479.34 1569.92 479.051C1572.68 478.737 1574.77 476.456 1575.88 473.824C1576.25 472.979 1577.39 472.883 1577.96 473.607C1579.36 475.381 1579.86 477.868 1579.09 480.004C1582.99 478.99 1586.77 477.506 1590.32 475.586C1590.94 475.249 1591.72 475.683 1591.74 476.383C1591.81 478.882 1594.64 481.417 1597.43 481.248C1600.81 481.042 1603.51 478.532 1605.87 476.081C1606.92 474.983 1606.8 473.184 1605.57 472.303C1604.34 471.422 1602.77 471.458 1601.3 471.507L1584.32 472.11C1583.6 472.134 1582.98 472.617 1582.75 473.305C1581 478.604 1574.63 481.199 1569.1 482.889C1560.18 485.617 1550.17 484.603 1541.98 480.125C1533.28 475.357 1526.33 466.811 1516.55 465.073C1512.22 464.301 1507.23 464.808 1503.97 461.85C1501.68 459.774 1500.93 456.551 1500.16 453.558C1495.64 436.104 1480.99 402.053 1459.68 399.422C1458.74 399.301 1457.73 399.265 1456.89 399.712C1455.68 400.363 1455.17 401.836 1455.02 403.2C1454.15 410.961 1460.85 417.334 1467.19 421.897C1473.53 426.46 1480.77 431.59 1481.77 439.339C1482.16 442.369 1481.59 445.724 1483.33 448.235C1483.82 448.959 1484.49 449.551 1485.18 450.094C1491.35 455.043 1499.43 456.732 1507.2 458.277L1543.64 465.52C1545.42 465.87 1546.65 467.499 1546.52 469.31V469.334Z" stroke="#16EEDC" stroke-miterlimit="10"/>
<path d="M1686.91 488.985C1687.42 499.546 1697.53 507.44 1699.34 517.857C1700.06 521.973 1699.43 526.258 1700.43 530.314C1703.4 542.312 1719.19 547.889 1721.64 559.995C1722.89 566.139 1720.28 572.331 1719.21 578.511C1718.51 582.555 1718.43 586.804 1716.73 590.546C1713.23 598.307 1704.08 601.59 1698.21 607.758C1693.84 612.357 1691.42 618.416 1688.15 623.848C1684.88 629.28 1680.08 634.482 1673.79 635.315C1670.95 635.689 1667.98 635.134 1665.26 636.015C1662.33 636.969 1660.18 639.395 1657.7 641.229C1655.23 643.064 1651.7 644.283 1649.16 642.569C1645.38 640.034 1641.6 637.488 1637.81 634.953C1635.85 633.637 1633.75 632.152 1633.03 629.907C1632.31 627.711 1633.1 625.345 1633.1 623.039C1633.12 617.04 1626.94 611.826 1621.04 612.852C1623.01 610.16 1619.07 607.01 1615.81 606.322C1612.55 605.634 1608.22 604.27 1608.49 600.95C1608.59 599.816 1609.04 598.234 1607.95 597.896C1599.56 595.338 1590.49 597.426 1582.17 600.226C1572.71 603.425 1563.11 607.601 1553.15 606.708C1550.08 606.43 1546.81 605.706 1544.08 607.13C1542.26 608.084 1541.02 609.834 1539.47 611.198C1536.09 614.192 1530.79 615.121 1526.9 612.816C1523.01 610.51 1521.4 604.789 1524.03 601.119C1525.49 599.079 1527.89 597.933 1529.68 596.17C1534.42 591.499 1533.93 583.883 1533.36 577.244C1532.64 568.758 1532.35 560.225 1532.49 551.703C1532.55 548.19 1535.26 545.149 1538.42 543.64C1541.58 542.131 1545.19 541.817 1548.69 541.539C1554.77 541.045 1560.95 540.489 1566.54 538.051C1572.12 535.613 1577.07 530.917 1578.19 524.931C1578.74 521.961 1579.4 517.761 1582.43 517.869C1586.56 518.026 1590.73 516.469 1593.75 513.657C1596.73 510.868 1598.69 506.885 1602.3 504.99C1609.47 501.236 1618.42 507.706 1626.14 505.316C1623.57 502.479 1625.12 497.579 1628.24 495.37C1631.37 493.161 1635.43 492.883 1639.26 492.69C1647.22 492.28 1655.19 491.87 1663.16 491.459C1662.69 497.772 1653.59 500.512 1652.77 506.777C1652.04 512.317 1658.17 516.192 1663.61 517.519C1668.24 518.654 1673.86 518.775 1677 515.178C1680.17 511.544 1679.25 506.064 1679.6 501.26C1679.96 496.456 1683.84 490.723 1686.89 488.973L1686.91 488.985Z" stroke="#16EEDC" stroke-miterlimit="10"/>
<path d="M1782.47 650.174C1786.68 650.21 1792.09 650.246 1793.12 640.421C1798.52 640.264 1802.22 640.143 1805.16 635.907C1803.96 632.406 1802.95 629.437 1799.7 627.518C1799.12 624.428 1798.76 622.508 1799.52 620.553C1799.41 618.598 1799.29 616.654 1797.46 614.494C1790.08 617.934 1793.42 624.017 1791.07 630.185C1789.57 634.132 1785.69 636.655 1783.53 640.276C1781.37 643.897 1782.46 650.174 1782.46 650.174H1782.47Z" stroke="#16EEDC" stroke-miterlimit="10"/>
<path d="M1775.83 647.193C1777.5 647.205 1776.18 655.207 1774.75 658.478C1771.33 660.386 1767.97 661.617 1764.61 662.86C1761.02 663.717 1758.17 665.878 1756.31 667.29C1754.87 669.185 1753.14 670.766 1745.78 677.526C1734.62 677.453 1724.64 676.994 1723.82 670.633C1728.65 664.067 1734.95 662.957 1738.81 662.281C1742.87 663.403 1746.65 662.365 1755.41 659.939L1759.37 646.987C1764.87 647.06 1770.36 647.132 1775.85 647.205L1775.83 647.193Z" stroke="#16EEDC" stroke-miterlimit="10"/>
<path d="M1619.77 412.929C1616.91 412.144 1613.85 412.048 1610.94 412.651C1612.76 418.916 1615 425.06 1617.63 431.023C1616.66 433.28 1612.77 432.037 1612.24 429.635C1611.7 427.233 1613.21 424.903 1614.65 422.899C1617.09 419.495 1619.54 416.104 1621.98 412.7" stroke="#16EEDC" stroke-miterlimit="10"/>
<path d="M1598.68 418.53C1600.91 422.416 1598.42 428.15 1594.05 429.164C1592.54 429.514 1590.79 429.441 1589.7 430.54C1588.95 431.288 1588.7 432.386 1588.55 433.424C1587.63 439.194 1587.91 445.157 1589.36 450.83L1585.42 450.89C1586.16 448.621 1584.44 446.135 1582.26 445.157C1580.07 444.179 1577.57 444.324 1575.19 444.493C1575.69 447.028 1576.18 449.671 1575.48 452.158C1574.78 454.644 1572.45 456.865 1569.89 456.539C1569.79 451.784 1569.15 447.04 1567.98 442.429C1571.44 440.727 1572 435.151 1568.93 432.797C1571.26 432.604 1573.59 432.411 1575.92 432.217C1576.81 427.848 1577.15 423.358 1576.93 418.904C1578.18 417.576 1580.45 418.192 1581.86 419.338C1583.27 420.485 1584.41 422.066 1586.12 422.694C1590.73 424.384 1594.79 418.083 1598.7 418.53H1598.68Z" stroke="#16EEDC" stroke-miterlimit="10"/>
<path d="M1228.36 508.346C1228.3 515.649 1222.88 521.672 1220.25 528.479C1219.8 529.65 1219.43 530.857 1219.06 532.052C1218.27 534.599 1217.49 537.146 1216.7 539.693C1216.12 541.576 1215.53 543.519 1215.6 545.487C1215.75 549.554 1218.67 553.538 1217.37 557.4C1216.47 560.056 1213.84 561.673 1211.35 562.989C1208.3 564.594 1204.89 566.115 1201.51 565.427C1198.71 564.86 1196.45 562.868 1194.34 560.961C1191.42 558.33 1190.16 554.19 1190.45 550.267C1190.74 546.344 1192.46 542.65 1194.69 539.427C1197.61 535.191 1201.61 531.34 1202.46 526.271C1202.58 525.57 1202.61 524.798 1202.23 524.194C1199.32 519.62 1199.27 513.162 1202.73 508.986C1204.33 507.066 1206.49 505.727 1208.43 504.182C1212.37 501.055 1215.52 496.939 1217.5 492.316C1218.46 490.083 1219.91 486.667 1222.99 487.573C1225.15 488.212 1224.94 489.757 1224.94 491.568C1224.94 497.386 1228.42 502.492 1228.36 508.358V508.346Z" stroke="#16EEDC" stroke-miterlimit="10"/>
<path d="M1154.33 185.992C1149.6 184.109 1152.24 182.009 1150.17 181.321C1151.45 180.017 1152.76 178.641 1153.3 176.891C1153.85 175.141 1153.3 172.92 1151.66 172.135C1148.14 170.469 1145.18 176.348 1141.28 176.312C1143.17 178.134 1145.23 180.705 1144.15 183.095C1143.08 185.485 1139.82 185.666 1137.21 185.485C1136.1 185.413 1134.93 185.316 1133.98 184.737C1131.43 183.192 1131.69 179.245 1129.63 177.108C1127.56 174.972 1124.07 175.418 1121.79 177.132C1119.51 178.846 1118.2 181.526 1116.96 184.109C1115.39 187.38 1113.84 190.663 1112.27 193.934C1110.47 197.7 1112.47 202.517 1115.97 204.786C1119.47 207.055 1124.03 207.176 1128.07 206.174C1128.23 206.138 1128.39 206.089 1128.53 206.041C1129.33 205.727 1129.82 204.931 1130.32 204.231C1133 200.465 1137.72 198.244 1142.32 198.57C1148.15 198.98 1152.99 203.024 1158.41 205.208C1163.83 207.393 1171.66 206.669 1173.44 201.104C1174.65 197.338 1172.21 193.174 1168.83 191.11C1165.45 189.046 1158.41 187.878 1154.31 185.992H1154.33Z" stroke="#16EEDC" stroke-miterlimit="10"/>
<path d="M1219.26 182.48C1215.62 181.514 1212.19 185.715 1212.73 189.457C1213.27 193.198 1216.47 195.999 1219.86 197.652C1223.26 199.306 1227 200.163 1230.33 201.925C1231.38 202.481 1232.53 203.458 1232.24 204.617C1231.96 205.74 1230.57 206.078 1229.61 206.717C1228.64 207.357 1228.46 209.325 1229.61 209.264C1228.1 208.878 1227.01 211.002 1227.57 212.451C1228.12 213.899 1229.54 214.817 1230.66 215.891C1233.76 218.836 1234.9 223.664 1233.45 227.684C1229.22 228.601 1224.55 226.959 1221.82 223.616C1220.65 222.18 1219.03 221.117 1217.26 220.622C1216.18 220.321 1215.05 220.212 1214.02 219.765C1210.75 218.365 1209.74 214.237 1209.59 210.688C1209.45 207.14 1209.66 203.229 1207.48 200.417C1204.54 196.638 1198.51 196.445 1195.62 192.631C1192.52 188.527 1194.95 182.19 1199.23 179.366C1203.52 176.541 1208.95 176.264 1214.09 176.07C1216.92 175.962 1220.47 176.3 1219.26 182.48Z" stroke="#16EEDC" stroke-miterlimit="10"/>
<path d="M1264.48 63.4532C1262.42 61.2806 1259.37 60.0977 1256.39 60.3391C1257.26 65.7708 1256.69 71.4318 1254.76 76.5859C1258.22 79.7846 1264.37 79.3621 1267.36 75.7289C1270.36 72.0957 1269.59 65.988 1265.79 63.1998" stroke="#16EEDC" stroke-miterlimit="10"/>
<path d="M913.251 78.4082C911.15 78.9997 909.013 79.6998 907.274 81.0275C905.536 82.3553 904.232 84.4314 904.377 86.6161C904.413 87.1472 904.558 87.7146 904.968 88.0525C908.844 91.1546 914.373 92.0599 919.034 90.3459C921.183 89.5613 923.127 88.2698 925.288 87.5214C928.62 86.3627 932.23 86.5437 935.731 86.1575C937.989 85.904 940.367 85.3367 941.937 83.6951C943.506 82.0535 943.844 79.0721 942.082 77.6357C941.128 76.8632 939.836 76.6942 938.617 76.5735C929.646 75.7044 922.028 75.9459 913.251 78.4082Z" stroke="#16EEDC" stroke-miterlimit="10"/>
</mask>
<g mask="url(#mask0_4096_820)">
<rect x="106.102" y="-34.6221" width="1919" height="832" fill="url(#paint0_linear_4096_820)" stroke="#16EEDC"/>
<g filter="url(#filter0_f_4096_820)">
<ellipse cx="1083.6" cy="564.5" rx="336" ry="176" fill="white"/>
<path d="M1083.6 389C1176.32 389 1260.24 408.687 1320.96 440.492C1381.7 472.31 1419.1 516.178 1419.1 564.5C1419.1 612.822 1381.7 656.69 1320.96 688.508C1260.24 720.313 1176.32 740 1083.6 740C990.882 740 906.965 720.313 846.246 688.508C785.503 656.69 748.102 612.822 748.102 564.5C748.102 516.178 785.503 472.31 846.246 440.492C906.965 408.687 990.882 389 1083.6 389Z" stroke="#16EEDC"/>
</g>
</g>
<rect x="424" y="217.5" width="32" height="22" fill="#EEF3F8"/>
<rect x="424" y="217.5" width="18" height="14" fill="#41479B"/>
<rect x="442" y="217.5" width="14" height="2" fill="#DC251C"/>
<rect x="442" y="221.5" width="14" height="2" fill="#DC251C"/>
<rect x="442" y="225.5" width="14" height="2" fill="#DC251C"/>
<rect x="442" y="229.5" width="14" height="2" fill="#DC251C"/>
<rect x="424" y="233.5" width="32" height="2" fill="#DC251C"/>
<rect x="424" y="237.5" width="32" height="2" fill="#DC251C"/>
<rect x="426" y="219.5" width="2" height="2" fill="#C5D0EC"/>
<rect x="430" y="219.5" width="2" height="2" fill="#C5D0EC"/>
<rect x="434" y="219.5" width="2" height="2" fill="#C5D0EC"/>
<rect x="438" y="219.5" width="2" height="2" fill="#C5D0EC"/>
<rect x="426" y="223.5" width="2" height="2" fill="#C5D0EC"/>
<rect x="430" y="223.5" width="2" height="2" fill="#C5D0EC"/>
<rect x="434" y="223.5" width="2" height="2" fill="#C5D0EC"/>
<rect x="428" y="225.5" width="2" height="2" fill="#C5D0EC"/>
<rect x="432" y="225.5" width="2" height="2" fill="#C5D0EC"/>
<rect x="436" y="225.5" width="2" height="2" fill="#C5D0EC"/>
<rect x="428" y="221.5" width="2" height="2" fill="#C5D0EC"/>
<rect x="432" y="221.5" width="2" height="2" fill="#C5D0EC"/>
<rect x="436" y="221.5" width="2" height="2" fill="#C5D0EC"/>
<rect x="438" y="223.5" width="2" height="2" fill="#C5D0EC"/>
<rect x="426" y="227.5" width="2" height="2" fill="#C5D0EC"/>
<rect x="430" y="227.5" width="2" height="2" fill="#C5D0EC"/>
<rect x="434" y="227.5" width="2" height="2" fill="#C5D0EC"/>
<rect x="438" y="227.5" width="2" height="2" fill="#C5D0EC"/>
<g clip-path="url(#clip0_4096_820)">
<rect x="688" y="441.5" width="32" height="8" fill="#FFD018"/>
<rect x="688" y="449.5" width="32" height="8" fill="#41479B"/>
<rect x="688" y="457.5" width="32" height="8" fill="#DC251C"/>
<path d="M698 457.5C698 455.5 700 451.5 704 451.5C708 451.5 710 455.5 710 457.5" stroke="#F5F8FB" stroke-width="0.75" stroke-dasharray="1 0.5"/>
</g>
<g clip-path="url(#clip1_4096_820)">
<rect x="1480" y="384.5" width="32" height="24" rx="4" fill="#F5F8FB"/>
<rect x="1480" y="384.5" width="32" height="4" fill="#DC251C"/>
<rect x="1480" y="392.5" width="32" height="8" fill="#41479B"/>
<rect x="1480" y="404.5" width="32" height="4" fill="#DC251C"/>
</g>
<rect x="1480.25" y="384.75" width="31.5" height="23.5" rx="3.75" stroke="#DBDBDB" stroke-width="0.5"/>
<rect x="1128.25" y="213.75" width="31.5" height="23.5" rx="3.75" fill="#E31D1C"/>
<rect x="1128.25" y="213.75" width="31.5" height="23.5" rx="3.75" stroke="#DBDBDB" stroke-width="0.5"/>
<path d="M1142.49 221.261C1141.22 221.016 1139.85 221.387 1138.87 222.373C1137.29 223.952 1137.29 226.512 1138.87 228.092C1139.85 229.078 1141.22 229.448 1142.5 229.202C1140.63 230.479 1138.06 230.288 1136.4 228.629C1134.52 226.753 1134.52 223.711 1136.4 221.835C1138.06 220.177 1140.62 219.986 1142.49 221.261Z" fill="#F5F8FB"/>
<path d="M1143.7 223.053L1144.64 224.284L1146.17 224.003L1145.29 225.285L1146.03 226.652L1144.54 226.213L1143.47 227.338L1143.43 225.785L1142.03 225.114L1143.49 224.593L1143.7 223.053Z" fill="#F5F8FB"/>
<g clip-path="url(#clip2_4096_820)">
<rect x="1040" y="195.5" width="32" height="24" fill="#F5F8FB"/>
<rect x="1040" y="195.5" width="10" height="24" fill="#2B9F5A"/>
<rect x="1062" y="195.5" width="10" height="24" fill="#DC251C"/>
</g>
<rect x="1040.25" y="195.75" width="31.5" height="23.5" rx="3.75" stroke="#DBDBDB" stroke-width="0.5"/>
<g clip-path="url(#clip3_4096_820)">
<rect x="989" y="176.5" width="32" height="24" rx="4" fill="white"/>
<rect x="989" y="176.5" width="33" height="24" fill="#DC251C"/>
<rect x="1003" y="180.5" width="4" height="16" fill="#F5F8FB"/>
<rect x="1013" y="186.5" width="4" height="16" transform="rotate(90 1013 186.5)" fill="#F5F8FB"/>
</g>
<rect x="989.25" y="176.75" width="31.5" height="23.5" rx="3.75" stroke="#DBDBDB" stroke-width="0.5"/>
<g clip-path="url(#clip4_4096_820)">
<rect x="1009" y="137.5" width="32" height="24" fill="#272727"/>
<rect x="1009" y="145.5" width="32" height="8" fill="#E31D1C"/>
<rect x="1009" y="153.5" width="32" height="8" fill="#FFD018"/>
</g>
<rect x="1009.25" y="137.75" width="31.5" height="23.5" rx="3.75" stroke="#DBDBDB" stroke-width="0.5"/>
<rect x="1496.25" y="274.75" width="31.5" height="23.5" rx="3.75" fill="#E31D1C"/>
<rect x="1496.25" y="274.75" width="31.5" height="23.5" rx="3.75" stroke="#DBDBDB" stroke-width="0.5"/>
<path d="M1501.5 280.5L1502.27 282.146L1504 282.41L1502.75 283.691L1503.05 285.5L1501.5 284.646L1499.95 285.5L1500.25 283.691L1499 282.41L1500.73 282.146L1501.5 280.5Z" fill="#FFD018"/>
<path d="M1505.5 278.634L1505.44 279.358L1505.98 279.795L1505.29 279.989L1505.04 280.675L1504.67 280.07L1503.96 280.057L1504.43 279.489L1504.25 278.795L1504.9 279.049L1505.5 278.634Z" fill="#FFD018"/>
<path d="M1506.74 280.534L1507.21 281.09L1507.9 281.013L1507.55 281.638L1507.86 282.306L1507.17 282.136L1506.66 282.626L1506.59 281.896L1505.97 281.531L1506.61 281.25L1506.74 280.534Z" fill="#FFD018"/>
<path d="M1507 283.5L1507.31 284.158L1508 284.264L1507.5 284.776L1507.62 285.5L1507 285.158L1506.38 285.5L1506.5 284.776L1506 284.264L1506.69 284.158L1507 283.5Z" fill="#FFD018"/>
<path d="M1505.5 285.634L1505.44 286.358L1505.98 286.795L1505.29 286.989L1505.04 287.675L1504.67 287.07L1503.96 287.057L1504.43 286.489L1504.25 285.795L1504.9 286.049L1505.5 285.634Z" fill="#FFD018"/>
<rect x="1611.25" y="221.75" width="31.5" height="23.5" rx="3.75" fill="#F5F8FB"/>
<rect x="1611.25" y="221.75" width="31.5" height="23.5" rx="3.75" stroke="#DBDBDB" stroke-width="0.5"/>
<circle cx="1626.5" cy="233" r="3.5" fill="#DC251C"/>
<g clip-path="url(#clip5_4096_820)">
<rect x="1059" y="164.5" width="32" height="12" fill="#E31D1C"/>
<rect x="1059" y="152.5" width="32" height="12" fill="#F5F8FB"/>
</g>
<rect x="1059.25" y="152.75" width="31.5" height="23.5" rx="3.75" stroke="#DBDBDB" stroke-width="0.5"/>
<defs>
<filter id="filter0_f_4096_820" x="619.602" y="260.5" width="928" height="608" filterUnits="userSpaceOnUse" color-interpolation-filters="sRGB">
<feFlood flood-opacity="0" result="BackgroundImageFix"/>
<feBlend mode="normal" in="SourceGraphic" in2="BackgroundImageFix" result="shape"/>
<feGaussianBlur stdDeviation="64" result="effect1_foregroundBlur_4096_820"/>
</filter>
<linearGradient id="paint0_linear_4096_820" x1="105.602" y1="413.878" x2="2025.6" y2="413.878" gradientUnits="userSpaceOnUse">
<stop stop-color="white"/>
<stop offset="0.386192" stop-color="#C9C9C9"/>
<stop offset="0.860577" stop-color="#E8E8E8"/>
<stop offset="1" stop-color="white"/>
</linearGradient>
<clipPath id="clip0_4096_820">
<rect x="688" y="441.5" width="32" height="24" rx="4" fill="white"/>
</clipPath>
<clipPath id="clip1_4096_820">
<rect x="1480" y="384.5" width="32" height="24" rx="4" fill="white"/>
</clipPath>
<clipPath id="clip2_4096_820">
<rect x="1040" y="195.5" width="32" height="24" rx="4" fill="white"/>
</clipPath>
<clipPath id="clip3_4096_820">
<rect x="989" y="176.5" width="32" height="24" rx="4" fill="white"/>
</clipPath>
<clipPath id="clip4_4096_820">
<rect x="1009" y="137.5" width="32" height="24" rx="4" fill="white"/>
</clipPath>
<clipPath id="clip5_4096_820">
<rect x="1059" y="152.5" width="32" height="24" rx="4" fill="white"/>
</clipPath>
</defs>
</svg>
