<svg xmlns="http://www.w3.org/2000/svg" width="18" height="18" viewBox="0 0 18 18" fill="none">
    <g clip-path="url(#clip0_2152_629)">
        <path d="M0 6.75H18V11.25H0V6.75Z" fill="#EC1C24" />
        <path
            d="M15.1875 2.8125H2.8125C0.948656 2.8125 0 4.19766 0 5.90625V6.75H18V5.90625C18 4.19766 17.0513 2.8125 15.1875 2.8125Z"
            fill="#1B75BB" />
        <path
            d="M0 12.0938C0 13.8023 0.948656 15.1875 2.8125 15.1875H15.1875C17.0513 15.1875 18 13.8023 18 12.0938V11.25H0V12.0938Z"
            fill="#29B473" />
        <path fill-rule="evenodd" clip-rule="evenodd"
            d="M9.94218 9.90829C9.57852 10.4736 8.82196 10.8316 8.03024 10.601C7.28352 10.3825 6.77052 9.65882 6.81355 8.87835C6.85461 8.09422 7.44299 7.4271 8.20855 7.29097C9.0194 7.14782 9.66993 7.58207 9.94893 8.03629C9.61846 7.71341 9.2354 7.5666 8.78652 7.61863C8.43524 7.65913 8.14105 7.81776 7.91155 8.08551C7.46099 8.60947 7.4773 9.39613 7.94811 9.89113C8.21755 10.1752 8.54915 10.3231 8.94093 10.3268C9.33158 10.3296 9.6629 10.1817 9.94218 9.90829Z"
            fill="#E6E7E8" />
        <path
            d="M11.2022 9.17373L11.6297 8.96785L11.2022 8.76085L11.3597 8.31451L10.9111 8.47116L10.7044 8.04395L10.4991 8.47116L10.0513 8.31451L10.2066 8.76085L9.78076 8.96785L10.2066 9.17373L10.0513 9.62148L10.4991 9.46538L10.7044 9.89148L10.9111 9.46538L11.3597 9.62148L11.2022 9.17373Z"
            fill="#E6E7E8" />
    </g>
    <defs>
        <clipPath id="clip0_2152_629">
            <rect width="18" height="18" fill="white" />
        </clipPath>
    </defs>
</svg>