<svg xmlns="http://www.w3.org/2000/svg" width="18" height="18" viewBox="0 0 18 18" fill="none">
    <g clip-path="url(#clip0_2152_611)">
        <path d="M0 6.1875H18V11.8125H0V6.1875Z" fill="#E6E7E8" />
        <path fill-rule="evenodd" clip-rule="evenodd"
            d="M11.0897 7.77975C11.0106 7.9156 10.9389 8.03991 10.8666 8.16535C10.7226 8.41369 10.5806 8.6626 10.4349 8.9101C10.4088 8.95454 10.4076 8.98772 10.4343 9.03357C10.6422 9.3885 10.8478 9.74541 11.0537 10.102C11.0635 10.1198 11.0733 10.1397 11.0871 10.1664H11.0148C10.6005 10.1668 10.1862 10.1662 9.772 10.1645C9.7256 10.1645 9.70225 10.1802 9.68003 10.2196C9.47303 10.5796 9.26528 10.9399 9.05678 11.3004C9.0475 11.3173 9.03654 11.3331 9.02275 11.3553C9.00897 11.335 8.998 11.3193 8.98816 11.3027C8.78116 10.9441 8.5736 10.5869 8.36913 10.228C8.34325 10.1816 8.31625 10.1642 8.26253 10.1642C7.85275 10.1673 7.44269 10.1662 7.03207 10.1662H6.95585C6.97075 10.1394 6.9806 10.1192 6.99185 10.0995C7.19772 9.74119 7.40444 9.38232 7.61369 9.02541C7.63591 8.98519 7.63591 8.95678 7.612 8.91797C7.40613 8.56444 7.20166 8.20838 6.99663 7.85372C6.98454 7.8315 6.973 7.80985 6.95557 7.77947H7.02897C7.43875 7.77947 7.85022 7.77835 8.25888 7.78004C8.31175 7.78004 8.34044 7.76654 8.36716 7.72013C8.57107 7.3621 8.77863 7.00547 8.98394 6.64969C8.99379 6.63141 9.00644 6.61257 9.0205 6.58838C9.03541 6.612 9.04722 6.6286 9.05763 6.6466C9.26407 7.00294 9.47022 7.35844 9.67385 7.71619C9.70197 7.76513 9.73263 7.78004 9.78635 7.78004C10.1944 7.77835 10.602 7.77947 11.0112 7.77947L11.0897 7.77975ZM9.01882 9.79463C9.15972 9.79463 9.30007 9.79407 9.44125 9.79575C9.47866 9.79575 9.502 9.78535 9.52169 9.75132C9.6626 9.50579 9.80294 9.26025 9.94666 9.01585C9.96466 8.98519 9.96466 8.961 9.9461 8.9295C9.80266 8.68397 9.66203 8.439 9.52113 8.19291C9.50341 8.16169 9.48288 8.14847 9.44603 8.14988C9.16197 8.15072 8.87791 8.15072 8.59666 8.14988C8.55925 8.14847 8.53957 8.16338 8.52129 8.19432C8.38179 8.43844 8.24229 8.68228 8.09941 8.92472C8.0786 8.961 8.07916 8.98632 8.09941 9.02147C8.24266 9.26428 8.38329 9.50794 8.52129 9.75244C8.53985 9.78338 8.56038 9.79604 8.59666 9.79604C8.73869 9.79407 8.87791 9.79463 9.01882 9.79463ZM7.85782 9.34519C7.76978 9.4996 7.68766 9.64107 7.603 9.78928H8.11432C8.02825 9.64078 7.9481 9.50016 7.85782 9.34519ZM10.1852 9.34519C10.0957 9.50044 10.0153 9.64163 9.92978 9.78928H10.4422L10.1852 9.34519ZM7.60075 8.15466C7.6885 8.30597 7.77063 8.44744 7.85753 8.59988L8.1146 8.15466H7.60075ZM9.92894 8.15466L10.1857 8.59988C10.2746 8.44491 10.3564 8.30288 10.4422 8.15466H9.92894ZM8.76457 7.77441H9.27841C9.19122 7.62507 9.10966 7.48219 9.02163 7.33032C8.93275 7.48388 8.85175 7.62535 8.76457 7.77441ZM8.76344 10.1681C8.85204 10.3208 8.9336 10.4632 9.02163 10.6156C9.11163 10.4603 9.19291 10.3183 9.27841 10.1681H8.76344Z"
            fill="#1B75BB" />
        <path
            d="M2.81249 15.1875H15.1875C16.4984 15.1875 17.3545 14.501 17.7483 13.5H0.251709C0.645459 14.501 1.50158 15.1875 2.81249 15.1875ZM15.1875 2.8125H2.81249C1.50158 2.8125 0.645459 3.49903 0.251709 4.5H17.7483C17.3542 3.49903 16.4984 2.8125 15.1875 2.8125Z"
            fill="#E6E7E8" />
        <path
            d="M18 5.90625C18 5.39916 17.9142 4.92244 17.7483 4.5H0.251719C0.0857813 4.92244 0 5.39916 0 5.90625V6.1875H18V5.90625ZM18 11.8125H0V12.0938C0 12.6008 0.0857813 13.0776 0.251719 13.5H17.7483C17.9139 13.0776 17.9997 12.6008 17.9997 12.0938L18 11.8125Z"
            fill="#1B75BB" />
    </g>
    <defs>
        <clipPath id="clip0_2152_611">
            <rect width="18" height="18" fill="white" />
        </clipPath>
    </defs>
</svg>