<svg
    width="18"
    height="18"
    viewBox="0 0 18 18"
    fill="none"
    xmlns="http://www.w3.org/2000/svg">
    <path
        d="M18 13.5C18 14.0304 17.7893 14.5391 17.4142 14.9142C17.0391 15.2893 16.5304 15.5 16 15.5H2C1.46957 15.5 0.960859 15.2893 0.585786 14.9142C0.210714 14.5391 0 14.0304 0 13.5V4.5C0 3.96957 0.210714 3.46086 0.585786 3.08579C0.960859 2.71071 1.46957 2.5 2 2.5H16C16.5304 2.5 17.0391 2.71071 17.4142 3.08579C17.7893 3.46086 18 3.96957 18 4.5V13.5Z"
        fill="#FFCC4D" />
    <path
        d="M17.5 13.5C17.5 13.8978 17.342 14.2794 17.0607 14.5607C16.7794 14.842 16.3978 15 16 15H2C1.60218 15 1.22064 14.842 0.93934 14.5607C0.658035 14.2794 0.5 13.8978 0.5 13.5V4.5C0.5 4.10218 0.658035 3.72064 0.93934 3.43934C1.22064 3.15804 1.60218 3 2 3H16C16.3978 3 16.7794 3.15804 17.0607 3.43934C17.342 3.72064 17.5 4.10218 17.5 4.5V13.5Z"
        fill="#DD2E44" />
    <path
        d="M11.4424 8.7007C11.7444 7.4957 10.7654 6.4297 10.7654 6.4297L10.5089 7.6802L9.9814 8.3752L10.2004 8.7647L9.9819 8.8857L9.4634 8.1672L9.6554 7.7327L10.3234 7.3882L9.5839 7.1437L9.1359 7.6652L8.9999 8.2417L8.8289 7.6652L8.3449 7.1437L7.6509 7.3017L8.2324 7.6897L8.4649 8.1672L7.9884 8.9087L7.7279 8.7642L7.9469 8.3747L7.4199 7.6797L7.1634 6.4292C7.1634 6.4292 6.1849 7.4952 6.4864 8.7002C6.7884 9.9052 8.0869 10.0737 8.0869 10.0737L7.2609 10.6322L6.7774 10.6712L6.6949 11.2022L7.1329 11.4057L7.5179 10.9837L8.4769 10.6322L7.9299 11.4292L8.9999 12.0002L10.0344 11.4297L9.4999 10.6757V10.6447L10.4199 10.9852L10.8004 11.4072L11.2364 11.2037L11.1524 10.6727L10.6679 10.6337L9.8419 10.0752C9.8419 10.0742 11.1404 9.9052 11.4424 8.7007Z"
        fill="#FFCC4D" />
    <path
        d="M9 9.75V10.3985C9 10.3985 8.9095 10.263 8.625 10.1795C8.25 10.07 8.1875 9.75 8.1875 9.75H9ZM9.001 9.75V10.3985C9.001 10.3985 9.0915 10.263 9.376 10.1795C9.751 10.07 9.8135 9.75 9.8135 9.75H9.001Z"
        fill="#5C913B" />
    <path
        d="M8.36717 8.39844C8.36717 8.39844 8.73417 8.54694 9.00017 8.41394V9.68744H8.18767C8.18767 9.68744 8.15667 9.41394 8.26567 9.05444C8.33417 8.82994 8.20317 8.64844 8.20317 8.64844L8.36717 8.39844ZM9.63417 8.39844C9.63417 8.39844 9.26717 8.54694 9.00117 8.41394V9.68744H9.81367C9.81367 9.68744 9.84467 9.41394 9.73567 9.05444C9.66717 8.82994 9.79817 8.64844 9.79817 8.64844L9.63417 8.39844ZM11.5392 10.5859C11.5411 10.6394 11.5322 10.6927 11.513 10.7427C11.4938 10.7927 11.4648 10.8383 11.4276 10.8768C11.3905 10.9153 11.3459 10.9459 11.2967 10.9669C11.2474 10.9878 11.1944 10.9986 11.1409 10.9986C11.0874 10.9986 11.0344 10.9878 10.9852 10.9669C10.9359 10.9459 10.8914 10.9153 10.8542 10.8768C10.817 10.8383 10.788 10.7927 10.7688 10.7427C10.7497 10.6927 10.7408 10.6394 10.7427 10.5859C10.7463 10.4828 10.7899 10.385 10.8642 10.3133C10.9385 10.2416 11.0377 10.2016 11.1409 10.2016C11.2442 10.2016 11.3434 10.2416 11.4177 10.3133C11.492 10.385 11.5355 10.4828 11.5392 10.5859Z"
        fill="#226699" />
    <path
        d="M9.51509 7.0115C9.51509 7.1215 9.29659 7.2105 9.02659 7.2105C8.75659 7.2105 8.53809 7.1215 8.53809 7.0115C8.53809 6.9015 8.75659 6.8125 9.02659 6.8125C9.29659 6.8125 9.51509 6.9015 9.51509 7.0115Z"
        fill="#FFCC4D" />
    <path
        d="M9.0155 6.125C8.5925 6.125 8.25 6.3225 8.25 6.5665C8.25 6.8105 8.5925 7.008 9.0155 7.008C9.4385 7.008 9.781 6.8105 9.781 6.5665C9.781 6.3225 9.4385 6.125 9.0155 6.125ZM8.4765 6.7515C8.3825 6.7105 8.3825 6.6015 8.3985 6.523C8.414 6.445 8.547 6.367 8.547 6.367C8.547 6.367 8.4565 6.5565 8.533 6.6375C8.6095 6.7185 8.5705 6.7925 8.4765 6.7515ZM8.7995 6.745C8.7655 6.7345 8.7615 6.697 8.74 6.6335C8.7185 6.57 8.695 6.5235 8.7105 6.445C8.726 6.367 8.921 6.3015 8.921 6.3015C8.921 6.3015 8.8665 6.4605 8.882 6.5385C8.8975 6.6165 8.96 6.6995 8.96 6.6995C8.96 6.6995 8.8335 6.7555 8.7995 6.745ZM9.283 6.6335C9.2615 6.697 9.2575 6.7345 9.2235 6.745C9.1895 6.7555 9.0625 6.7005 9.0625 6.7005C9.0625 6.7005 9.125 6.6175 9.1405 6.5395C9.156 6.4615 9.1015 6.3025 9.1015 6.3025C9.1015 6.3025 9.2965 6.3675 9.312 6.446C9.328 6.5235 9.3045 6.5705 9.283 6.6335ZM9.547 6.7515C9.453 6.7925 9.414 6.7185 9.4905 6.6375C9.567 6.5565 9.4765 6.367 9.4765 6.367C9.4765 6.367 9.6095 6.445 9.625 6.523C9.6405 6.6015 9.6405 6.711 9.547 6.7515ZM11.5375 10.629C11.5308 10.6551 11.514 10.6774 11.4909 10.6912C11.4678 10.705 11.4401 10.709 11.414 10.7025L10.862 10.559C10.8361 10.5519 10.8139 10.535 10.8003 10.5119C10.7866 10.4887 10.7826 10.4611 10.789 10.435C10.7957 10.409 10.8125 10.3866 10.8356 10.3729C10.8588 10.3593 10.8864 10.3553 10.9125 10.362L11.4645 10.5055C11.4775 10.5086 11.4897 10.5144 11.5005 10.5223C11.5113 10.5303 11.5203 10.5403 11.5271 10.5518C11.5339 10.5633 11.5383 10.5761 11.5401 10.5894C11.5419 10.6026 11.541 10.6161 11.5375 10.629Z"
        fill="#FFCC4D" />
    <path
        d="M11.2479 10.5655C11.2419 10.5886 11.2271 10.6083 11.2065 10.6204C11.186 10.6325 11.1615 10.636 11.1384 10.63C11.1154 10.6239 11.0957 10.6089 11.0837 10.5883C11.0717 10.5676 11.0683 10.5431 11.0744 10.52L11.1979 9.95452C11.2041 9.93156 11.219 9.91195 11.2395 9.89996C11.26 9.88797 11.2844 9.88458 11.3074 9.89052C11.3304 9.89663 11.35 9.91157 11.362 9.93209C11.374 9.9526 11.3774 9.97702 11.3714 10L11.2479 10.5655ZM7.41795 11.9375C7.38795 11.949 7.33495 11.8865 7.30045 11.7985L6.32795 9.32802C6.29295 9.23952 6.28895 9.15802 6.31895 9.14602L6.36845 9.12652C6.39895 9.11502 6.52545 9.14802 6.56045 9.23602L7.53295 11.7065C7.56795 11.795 7.49745 11.9055 7.46745 11.918L7.41795 11.9375ZM8.59245 9.12402H9.40795V9.68752H8.59245V9.12402Z"
        fill="#FFCC4D" />
</svg>