<svg
    width="18"
    height="18"
    viewBox="0 0 18 18"
    fill="none"
    xmlns="http://www.w3.org/2000/svg">
    <path d="M0 6.1875H18V11.8125H0V6.1875Z" fill="#2B3990" />
    <path
        d="M2.81294 15.1875H15.1879C16.6184 15.1875 17.5074 14.3705 17.8446 13.2188H0.15625C0.493469 14.3705 1.3825 15.1875 2.81294 15.1875ZM15.1879 2.8125H2.81294C1.3825 2.8125 0.493469 3.62953 0.15625 4.78125H17.8449C17.5074 3.62953 16.6184 2.8125 15.1879 2.8125Z"
        fill="#EC1C24" />
    <path
        d="M18.0001 11.8125H5.08978e-05V12.0938C5.08978e-05 12.4912 0.0534884 12.8697 0.155863 13.2188H17.8445C17.9466 12.8697 18.0001 12.4912 18.0001 12.0938V11.8125ZM18.0001 5.90625C18.0001 5.50884 17.9466 5.13028 17.8442 4.78125H0.155863C0.0505978 5.14691 -0.00187014 5.52574 5.08978e-05 5.90625V6.1875H18.0001V5.90625Z"
        fill="#E6E7E8" />
</svg>