<svg
    width="18"
    height="18"
    viewBox="0 0 18 18"
    fill="none"
    xmlns="http://www.w3.org/2000/svg">
    <path
        d="M18 13.5C18 14.0304 17.7893 14.5391 17.4142 14.9142C17.0391 15.2893 16.5304 15.5 16 15.5H2C1.46957 15.5 0.960859 15.2893 0.585786 14.9142C0.210714 14.5391 0 14.0304 0 13.5V4.5C0 3.96957 0.210714 3.46086 0.585786 3.08579C0.960859 2.71071 1.46957 2.5 2 2.5H16C16.5304 2.5 17.0391 2.71071 17.4142 3.08579C17.7893 3.46086 18 3.96957 18 4.5V13.5Z"
        fill="#E30917" />
    <path
        d="M7.99974 12.0002C7.20409 12.0002 6.44103 11.6842 5.87842 11.1216C5.31581 10.5589 4.99974 9.79588 4.99974 9.00023C4.99974 8.20458 5.31581 7.44152 5.87842 6.87891C6.44103 6.3163 7.20409 6.00023 7.99974 6.00023C8.65474 6.00023 9.25974 6.21273 9.75324 6.56923C9.40921 6.1778 8.98566 5.86423 8.51084 5.64946C8.03603 5.43469 7.52087 5.32364 6.99974 5.32373C6.02467 5.32373 5.08954 5.71107 4.40006 6.40055C3.71059 7.09003 3.32324 8.02516 3.32324 9.00023C3.32318 9.48308 3.41822 9.96121 3.60296 10.4073C3.78769 10.8534 4.05849 11.2588 4.39989 11.6002C4.74129 11.9417 5.14661 12.2125 5.59269 12.3973C6.03878 12.5821 6.5169 12.6772 6.99974 12.6772C8.09724 12.6772 9.07974 12.1937 9.75324 11.4312C9.24358 11.8015 8.62969 12.0007 7.99974 12.0002ZM9.95624 9.11523L11.1762 9.39623L11.2862 10.6427L11.9302 9.56973L13.1502 9.85023L12.3282 8.90623L12.9717 7.83273L11.8202 8.32273L10.9982 7.37823L11.1082 8.62523L9.95624 9.11523Z"
        fill="#EEEEEE" />
</svg>