<svg xmlns="http://www.w3.org/2000/svg" width="22" height="16" viewBox="0 0 22 16" fill="none">
    <g clip-path="url(#clip0_4001_211)">
        <path fill-rule="evenodd" clip-rule="evenodd" d="M0 0H22V16H0V0Z" fill="#F7FCFF" />
        <path fill-rule="evenodd" clip-rule="evenodd"
            d="M0 9.778V11.1113H22V9.778H0ZM0 12.222V13.5553H22V12.222H0ZM0 4.88867V6.222H22V4.88867H0ZM0 14.6667V16H22V14.6667H0ZM0 7.33333V8.66667H22V7.33333H0ZM0 0V1.33333H22V0H0ZM0 2.44467V3.778H22V2.44467H0Z"
            fill="#E31D1C" />
        <path d="M0 0H13.75V8.66667H0V0Z" fill="#2E42A5" />
        <path fill-rule="evenodd" clip-rule="evenodd"
            d="M1.18392 1.95933L0.68479 2.29867L0.853228 1.69467L0.40979 1.312H0.989353L1.18323 0.818668L1.41079 1.312H1.90442L1.51667 1.69467L1.66654 2.29867L1.18392 1.95933ZM3.93391 1.95933L3.43479 2.29867L3.60323 1.69467L3.16048 1.312H3.73935L3.93323 0.818668L4.16079 1.312H4.65442L4.26666 1.69467L4.41654 2.29867L3.93391 1.95933ZM6.18479 2.29867L6.68392 1.95867L7.16654 2.29867L7.01667 1.69467L7.40442 1.312H6.91079L6.68323 0.818668L6.48935 1.312H5.91048L6.35323 1.69467L6.18479 2.29867ZM9.43392 1.95867L8.93479 2.29867L9.10323 1.69467L8.66048 1.312H9.23935L9.43323 0.818668L9.66079 1.312H10.1544L9.76667 1.69467L9.91654 2.29867L9.43392 1.95867ZM0.68479 4.966L1.18392 4.626L1.66654 4.966L1.51667 4.362L1.90442 3.97933H1.41079L1.18323 3.486L0.989353 3.97933H0.40979L0.853228 4.362L0.68479 4.966ZM3.93391 4.626L3.43479 4.966L3.60323 4.362L3.16048 3.97933H3.73935L3.93323 3.486L4.16079 3.97933H4.65442L4.26666 4.362L4.41654 4.966L3.93391 4.626ZM6.18479 4.966L6.68392 4.626L7.16654 4.966L7.01667 4.362L7.40442 3.97933H6.91079L6.68323 3.486L6.48935 3.97933H5.91048L6.35323 4.362L6.18479 4.966ZM9.43392 4.626L8.93479 4.966L9.10323 4.362L8.66048 3.97933H9.23935L9.43323 3.486L9.66079 3.97933H10.1544L9.76667 4.362L9.91654 4.966L9.43392 4.626ZM0.68479 7.63267L1.18392 7.29267L1.66654 7.63267L1.51667 7.02867L1.90442 6.646H1.41079L1.18323 6.15267L0.989353 6.646H0.40979L0.853228 7.02867L0.68479 7.63267ZM3.93391 7.29267L3.43479 7.63267L3.60323 7.02867L3.16048 6.646H3.73935L3.93323 6.15267L4.16079 6.646H4.65442L4.26666 7.02867L4.41654 7.63267L3.93391 7.29267ZM6.18479 7.63267L6.68392 7.29267L7.16654 7.63267L7.01667 7.02867L7.40442 6.646H6.91079L6.68323 6.15267L6.48935 6.646H5.91048L6.35323 7.02867L6.18479 7.63267ZM9.43392 7.29267L8.93479 7.63267L9.10323 7.02867L8.66048 6.646H9.23935L9.43323 6.15267L9.66079 6.646H10.1544L9.76667 7.02867L9.91654 7.63267L9.43392 7.29267ZM11.6848 2.29933L12.1839 1.95933L12.6665 2.29933L12.5167 1.69533L12.9044 1.31267H12.4108L12.1832 0.819335L11.9894 1.31267H11.4098L11.8532 1.69533L11.6848 2.29933ZM12.1839 4.626L11.6848 4.966L11.8532 4.362L11.4098 3.97933H11.9894L12.1832 3.486L12.4108 3.97933H12.9044L12.5167 4.362L12.6665 4.966L12.1839 4.626ZM11.6848 7.63267L12.1839 7.29267L12.6665 7.63267L12.5167 7.02867L12.9044 6.646H12.4108L12.1832 6.15267L11.9894 6.646H11.4098L11.8532 7.02867L11.6848 7.63267ZM2.55891 3.292L2.05979 3.632L2.22823 3.028L1.78479 2.64533H2.36435L2.55823 2.152L2.78579 2.64533H3.27941L2.89166 3.028L3.04154 3.632L2.55891 3.292ZM4.80979 3.632L5.30892 3.292L5.79154 3.632L5.64166 3.028L6.02942 2.64533H5.53579L5.30823 2.152L5.11435 2.64533H4.53479L4.97823 3.028L4.80979 3.632ZM8.05892 3.292L7.55979 3.632L7.72823 3.028L7.28548 2.64533H7.86435L8.05823 2.152L8.28579 2.64533H8.77942L8.39167 3.028L8.54154 3.632L8.05892 3.292ZM2.05979 6.29867L2.55891 5.95867L3.04154 6.29867L2.89166 5.69467L3.27941 5.312H2.78579L2.55823 4.81867L2.36435 5.312H1.78479L2.22823 5.69467L2.05979 6.29867ZM5.30892 5.95867L4.80979 6.29867L4.97823 5.69467L4.53548 5.312H5.11435L5.30823 4.81867L5.53579 5.312H6.02942L5.64166 5.69467L5.79154 6.29867L5.30892 5.95867ZM7.55979 6.29867L8.05892 5.95867L8.54154 6.29867L8.39167 5.69467L8.77942 5.312H8.28579L8.05823 4.81867L7.86435 5.312H7.28548L7.72823 5.69467L7.55979 6.29867ZM10.8089 3.292L10.3098 3.632L10.4782 3.028L10.0355 2.64533H10.6144L10.8082 2.152L11.0358 2.64533H11.5294L11.1417 3.028L11.2915 3.632L10.8089 3.292ZM10.3098 6.29867L10.8089 5.95867L11.2915 6.29867L11.1417 5.69467L11.5294 5.312H11.0358L10.8082 4.81867L10.6144 5.312H10.0355L10.4782 5.69467L10.3098 6.29867Z"
            fill="#F7FCFF" />
    </g>
    <defs>
        <clipPath id="clip0_4001_211">
            <rect width="22" height="16" rx="1" fill="white" />
        </clipPath>
    </defs>
</svg>