<svg
    width="18"
    height="18"
    viewBox="0 0 18 18"
    fill="none"
    xmlns="http://www.w3.org/2000/svg">
    <path
        d="M0 13.5C0 14.0304 0.210714 14.5391 0.585786 14.9142C0.960859 15.2893 1.46957 15.5 2 15.5H16C16.5304 15.5 17.0391 15.2893 17.4142 14.9142C17.7893 14.5391 18 14.0304 18 13.5V11.5H0V13.5Z"
        fill="#CF142B" />
    <path
        d="M0 11.5H18V6.5H0V11.5ZM12.658 9.725L12.7925 10.095L13.186 10.0815L12.876 10.324L13.0105 10.694L12.684 10.474L12.374 10.7165L12.4825 10.338L12.156 10.118L12.5495 10.1045L12.658 9.725ZM12.05 8.8925L12.415 8.745L12.2065 9.0785L12.4595 9.38L12.0775 9.285L11.869 9.6185L11.8415 9.226L11.4595 9.131L11.8245 8.9835L11.797 8.591L12.05 8.8925ZM10.6 7.82L10.941 8.017L11.2335 7.7535L11.1515 8.1385L11.4925 8.3355L11.101 8.3765L11.019 8.7615L10.859 8.402L10.4675 8.443L10.76 8.1795L10.6 7.82ZM9.599 7.5735L9.784 7.226L9.839 7.6155L10.2265 7.684L9.873 7.8565L9.928 8.246L9.6545 7.963L9.3 8.1355L9.485 7.788L9.2115 7.505L9.599 7.5735ZM8.1615 7.6155L8.2165 7.226L8.4015 7.5735L8.789 7.505L8.5155 7.788L8.7005 8.1355L8.347 7.963L8.0735 8.246L8.1285 7.8565L7.775 7.684L8.1615 7.6155ZM6.767 7.7535L7.0595 8.017L7.4 7.82L7.24 8.1795L7.5325 8.443L7.141 8.402L6.981 8.7615L6.899 8.3765L6.5075 8.3355L6.8485 8.1385L6.767 7.7535ZM5.585 8.745L5.95 8.8925L6.203 8.591L6.1755 8.9835L6.5405 9.131L6.1585 9.226L6.131 9.6185L5.9225 9.285L5.5405 9.38L5.7935 9.0785L5.585 8.745ZM5.207 10.0945L5.3415 9.7245L5.45 10.103L5.8435 10.1165L5.517 10.3365L5.6255 10.715L5.3155 10.4725L4.989 10.6925L5.1235 10.3225L4.8135 10.08L5.207 10.0945Z"
        fill="#00247D" />
    <path
        d="M16 2.5H2C1.46957 2.5 0.960859 2.71071 0.585786 3.08579C0.210714 3.46086 0 3.96957 0 4.5L0 6.5H18V4.5C18 3.96957 17.7893 3.46086 17.4142 3.08579C17.0391 2.71071 16.5304 2.5 16 2.5Z"
        fill="#FFCC00" />
    <path
        d="M9.30045 8.13557L9.65395 7.96307L9.92745 8.24607L9.87245 7.85657L10.2265 7.68407L9.83895 7.61557L9.78395 7.22607L9.59945 7.57357L9.21145 7.50507L9.48495 7.78807L9.30045 8.13557ZM10.8595 8.40157L11.0195 8.76107L11.101 8.37657L11.4925 8.33507L11.152 8.13857L11.2335 7.75357L10.941 8.01657L10.6005 7.82007L10.7605 8.17957L10.468 8.44307L10.8595 8.40157ZM11.46 9.13107L11.842 9.22607L11.8695 9.61857L12.078 9.28507L12.4595 9.38007L12.2065 9.07857L12.4155 8.74507L12.0505 8.89257L11.7975 8.59107L11.825 8.98357L11.46 9.13107ZM12.483 10.3371L12.3745 10.7151L12.685 10.4731L13.011 10.6931L12.8765 10.3231L13.1865 10.0811L12.7935 10.0946L12.6585 9.72507L12.55 10.1031L12.157 10.1171L12.483 10.3371ZM8.07345 8.24607L8.34695 7.96307L8.70045 8.13557L8.51595 7.78807L8.78945 7.50507L8.40145 7.57357L8.21695 7.22607L8.16195 7.61557L7.77445 7.68407L8.12845 7.85657L8.07345 8.24607ZM6.89995 8.37657L6.98145 8.76107L7.14145 8.40157L7.53295 8.44307L7.24045 8.17957L7.40045 7.82007L7.05995 8.01657L6.76745 7.75357L6.84895 8.13857L6.50845 8.33507L6.89995 8.37657ZM5.92295 9.28507L6.13145 9.61857L6.15895 9.22607L6.54095 9.13107L6.17595 8.98357L6.20345 8.59107L5.95045 8.89257L5.58545 8.74507L5.79445 9.07857L5.54145 9.38007L5.92295 9.28507ZM4.98995 10.6931L5.31595 10.4731L5.62645 10.7151L5.51795 10.3371L5.84395 10.1171L5.45095 10.1031L5.34245 9.72507L5.20745 10.0946L4.81445 10.0811L5.12445 10.3231L4.98995 10.6931Z"
        fill="white" />
</svg>