<svg
    width="18"
    height="18"
    viewBox="0 0 18 18"
    fill="none"
    xmlns="http://www.w3.org/2000/svg">
    <path
        d="M18 13.5C18 14.0304 17.7893 14.5391 17.4142 14.9142C17.0391 15.2893 16.5304 15.5 16 15.5H2C1.46957 15.5 0.960859 15.2893 0.585786 14.9142C0.210714 14.5391 0 14.0304 0 13.5V4.5C0 3.96957 0.210714 3.46086 0.585786 3.08579C0.960859 2.71071 1.46957 2.5 2 2.5H16C16.5304 2.5 17.0391 2.71071 17.4142 3.08579C17.7893 3.46086 18 3.96957 18 4.5V13.5Z"
        fill="#DE2910" />
    <path
        d="M5.56757 4.4883L5.93557 4.6663L6.23007 4.3833L6.17457 4.7883L6.53457 4.9813L6.13257 5.0533L6.06057 5.4553L5.86757 5.0953L5.46257 5.1508L5.74557 4.8563L5.56757 4.4883ZM7.90007 5.9588L7.72207 6.3263L8.00507 6.6213L7.60057 6.5653L7.40757 6.9258L7.33557 6.5233L6.93307 6.4513L7.29357 6.2583L7.23757 5.8538L7.53257 6.1368L7.90007 5.9588ZM7.42157 7.8483L7.55557 8.2343L7.96407 8.2428L7.63857 8.4893L7.75707 8.8808L7.42157 8.6473L7.08607 8.8808L7.20407 8.4893L6.87857 8.2428L7.28707 8.2343L7.42157 7.8483ZM5.56757 9.4883L5.93557 9.6663L6.23007 9.3833L6.17457 9.7883L6.53457 9.9813L6.13257 10.0533L6.06057 10.4553L5.86757 10.0953L5.46257 10.1508L5.74557 9.8563L5.56757 9.4883ZM3.49957 5.4753L3.96407 6.8108L5.37707 6.8398L4.25057 7.6938L4.66007 9.0468L3.49957 8.2393L2.33907 9.0468L2.74857 7.6938L1.62207 6.8398L3.03507 6.8108L3.49957 5.4753Z"
        fill="#FFDE02" />
</svg>