<svg
    width="18"
    height="18"
    viewBox="0 0 18 18"
    fill="none"
    xmlns="http://www.w3.org/2000/svg">
    <path
        d="M18 13.5C18 14.0304 17.7893 14.5391 17.4142 14.9142C17.0391 15.2893 16.5304 15.5 16 15.5H2C1.46957 15.5 0.960859 15.2893 0.585786 14.9142C0.210714 14.5391 0 14.0304 0 13.5V4.5C0 3.96957 0.210714 3.46086 0.585786 3.08579C0.960859 2.71071 1.46957 2.5 2 2.5H16C16.5304 2.5 17.0391 2.71071 17.4142 3.08579C17.7893 3.46086 18 3.96957 18 4.5V13.5Z"
        fill="#141414" />
    <path d="M0 6.5H18V11.5H0V6.5Z" fill="#EEEEEE" />
    <path
        d="M16 2.5H2C1.46957 2.5 0.960859 2.71071 0.585786 3.08579C0.210714 3.46086 0 3.96957 0 4.5L0 6.5H18V4.5C18 3.96957 17.7893 3.46086 17.4142 3.08579C17.0391 2.71071 16.5304 2.5 16 2.5Z"
        fill="#CE1225" />
    <path
        d="M7.375 10.7809C7.375 10.7809 7.383 10.9059 7.492 10.9684C7.492 10.9684 7.461 11.0624 7.578 11.1169C7.695 11.1714 8.117 11.2574 8.8515 11.2574C9.586 11.2574 10 11.1794 10.1095 11.1244C10.219 11.0699 10.2265 10.9449 10.2265 10.9449C10.2265 10.9449 10.3435 10.8824 10.336 10.8044C10.3285 10.7264 10.172 10.6404 10.172 10.6404C10.172 10.6404 10.133 10.5389 10.0235 10.4999C9.914 10.4609 9.5625 10.6719 8.8905 10.6404C8.2185 10.6089 7.836 10.5074 7.711 10.5154C7.586 10.5234 7.5315 10.6484 7.5315 10.6484C7.5315 10.6484 7.3905 10.7109 7.375 10.7809Z"
        fill="#BF9300" />
    <path
        d="M7.46124 10.7737C7.45474 10.8202 7.55524 10.9222 7.55524 10.9222C7.55524 10.9222 7.55524 11.0392 7.65674 11.0707C7.75824 11.1022 8.17224 11.1802 8.84424 11.1722C9.51624 11.1642 9.99274 11.1252 10.0472 11.0782C10.1017 11.0312 10.1487 10.9297 10.1487 10.9297C10.1487 10.9297 10.2582 10.8517 10.2502 10.7892C10.2422 10.7267 10.0862 10.6877 10.0862 10.6877C10.0862 10.6877 10.0422 10.5937 9.99024 10.5547C9.93824 10.5157 9.60224 10.7107 8.88324 10.7107C8.17974 10.7107 7.77374 10.5387 7.70374 10.5467C7.63374 10.5547 7.58674 10.6872 7.58674 10.6872C7.58674 10.6872 7.46924 10.7192 7.46124 10.7737Z"
        fill="#EEEEEE" />
    <path
        d="M10.4291 7.74186C10.4291 7.74186 10.4136 7.37486 10.0776 7.42136C9.74165 7.46836 9.71815 7.63236 9.35865 7.67136L9.28465 7.67836C9.22475 7.51578 9.19165 7.34456 9.18665 7.17136C9.18665 6.93686 9.25715 6.83536 9.01465 6.71836C8.77265 6.60136 8.72565 6.71036 8.72565 6.71036C8.72565 6.71036 8.53815 6.61636 8.45215 6.68686C8.36615 6.75736 8.41315 6.93686 8.45215 6.88236C8.49115 6.82786 8.64765 6.98386 8.64765 6.98386C8.70065 7.24336 8.55015 7.52436 8.44715 7.68086C8.41165 7.67736 8.38315 7.67586 8.34315 7.67136C7.98365 7.63236 7.96015 7.46836 7.62415 7.42136C7.28815 7.37436 7.27265 7.74186 7.27265 7.74186L7.13965 10.5779L7.41315 10.3669L7.41465 10.3334L7.98365 9.82786L8.07865 9.73286L7.84315 10.4214C7.84315 10.4214 7.48365 10.3979 7.58515 10.6869C7.58515 10.6869 7.63965 10.5229 7.73365 10.5539C7.82765 10.5849 8.10065 10.6554 8.10065 10.6554L8.19465 10.8039L8.31165 10.6944L8.67865 10.6789C8.67865 10.6789 8.79565 10.7099 8.78815 10.8119C8.80951 10.768 8.816 10.7183 8.80665 10.6704L8.91715 10.6629C8.90549 10.7132 8.91149 10.766 8.93415 10.8124C8.92615 10.7109 9.04365 10.6794 9.04365 10.6794L9.41065 10.6949L9.52815 10.8044L9.62215 10.6559C9.62215 10.6559 9.89515 10.5854 9.98865 10.5544C10.0821 10.5234 10.1371 10.6874 10.1371 10.6874C10.2386 10.3984 9.87915 10.4219 9.87915 10.4219L9.65465 9.76536L9.71765 9.82836L10.2866 10.3339L10.2881 10.3674L10.5616 10.5784L10.4291 7.74186ZM8.87565 9.46086C8.31215 9.11286 8.26565 8.23436 8.26565 8.23436C8.26565 8.23436 8.61415 8.21636 8.86715 8.03886C9.09515 8.24136 9.48415 8.21836 9.48415 8.21836C9.48415 8.21836 9.45765 9.10036 8.87565 9.46086ZM10.1636 7.63286L9.68715 8.08586L9.60715 8.11786C9.52515 8.12086 9.12615 8.12186 8.87465 7.89836C8.56215 8.11736 8.13265 8.13286 8.13265 8.13286L8.06615 8.10636L7.53865 7.63286L7.40015 7.68986C7.40615 7.63336 7.43715 7.50636 7.60915 7.53136C7.89115 7.57186 8.00765 7.72686 8.30465 7.75786L8.38865 7.76636L8.35915 7.80436C8.40515 7.80436 8.47315 7.79086 8.52315 7.77986L8.57965 7.78536L8.55415 7.87436C8.59415 7.86236 8.65215 7.82786 8.69965 7.79736L8.82965 7.80986L8.85915 7.85086L8.95815 7.80136L9.02465 7.79486C9.08215 7.82836 9.16415 7.85836 9.16415 7.85836L9.17965 7.78036C9.25015 7.82736 9.36715 7.82736 9.36715 7.82736C9.35365 7.81636 9.34015 7.78836 9.32615 7.76436L9.39815 7.75686C9.69515 7.72586 9.81115 7.57086 10.0936 7.53036C10.2656 7.50586 10.2966 7.63236 10.3026 7.68886L10.1636 7.63286Z"
        fill="#BF9300" />
    <path
        d="M8.6875 9.44538L8.406 10.5154L7.9375 10.4219L8.422 9.04688L8.6875 9.44538ZM9.037 9.44538L9.318 10.5154L9.787 10.4219L9.3025 9.04688L9.037 9.44538Z"
        fill="#EEEEEE" />
    <path
        d="M8.38281 8.32074C8.38281 8.32074 8.42181 8.77374 8.62481 9.12524V8.21924C8.62481 8.21924 8.49181 8.29724 8.38281 8.32074ZM9.35931 8.33624C9.35931 8.33624 9.32031 8.78924 9.11731 9.14074V8.23474C9.11681 8.23474 9.24981 8.31274 9.35931 8.33624Z"
        fill="#BF9300" />
    <path
        d="M8.47656 6.78902C8.47656 6.78902 8.53106 6.73452 8.68756 6.84352C8.78906 6.91452 8.87906 6.96852 8.87906 6.96852C8.87906 6.96852 8.94306 6.90102 9.03706 6.91652C9.13106 6.93202 9.07856 7.06252 9.09406 7.33552C9.10956 7.60902 9.21906 7.72602 9.21906 7.72602L9.08606 7.64802L9.09406 7.73402L8.94556 7.66352L8.87506 7.76502L8.80456 7.65552L8.69056 7.72502L8.65606 7.63202L8.52306 7.70252C8.52306 7.70252 8.71856 7.46052 8.73406 7.19452C8.73856 7.11502 8.71856 6.93652 8.71856 6.93652C8.71856 6.93652 8.59406 6.78102 8.47656 6.78902Z"
        fill="#EEEEEE" />
    <path
        d="M7.77353 10.8279C7.68403 10.8814 7.71903 10.9139 7.77353 10.9374C7.82803 10.9609 8.15603 11.0004 8.82053 11.0154C9.50003 11.0309 9.92203 10.9529 9.97653 10.9214C10.031 10.8904 10.039 10.8354 9.94553 10.8199C9.85153 10.8044 9.38303 10.8824 8.81253 10.8824C8.10953 10.8829 7.81253 10.8044 7.77353 10.8279Z"
        fill="#BF9300" />
</svg>