<svg
    width="18"
    height="18"
    viewBox="0 0 18 18"
    fill="none"
    xmlns="http://www.w3.org/2000/svg">
    <path
        d="M9 9V2.5H2C1.46957 2.5 0.960859 2.71071 0.585786 3.08579C0.210714 3.46086 0 3.96957 0 4.5L0 9H9ZM9 9V15.5H16C16.5304 15.5 17.0391 15.2893 17.4142 14.9142C17.7893 14.5391 18 14.0304 18 13.5V9H9Z"
        fill="#EEEEEE" />
    <path
        d="M9 9V15.5H2C1.46957 15.5 0.960859 15.2893 0.585786 14.9142C0.210714 14.5391 0 14.0304 0 13.5V9H9Z"
        fill="#005293" />
    <path
        d="M9 9V2.5H16C16.5304 2.5 17.0391 2.71071 17.4142 3.08579C17.7893 3.46086 18 3.96957 18 4.5V9H9Z"
        fill="#D21034" />
    <path
        d="M4.83674 5.2865L4.49974 4.25L4.16274 5.2865H3.07324L3.95474 5.927L3.61824 6.9635L4.49974 6.323L5.38124 6.9635L5.04474 5.927L5.92624 5.2865H4.83674Z"
        fill="#005293" />
    <path
        d="M12.9547 12.427L12.6182 13.4635L13.4997 12.823L14.3812 13.4635L14.0447 12.427L14.9262 11.7865H13.8367L13.4997 10.75L13.1627 11.7865H12.0732L12.9547 12.427Z"
        fill="#D21034" />
</svg>